{
.appVersion = "911";
classes = (
{
code = "a' b c d e f g h i j k l m n o p q r s t u v w x y z ae oe";
name = lowercase;
},
{
code = "A.sc' B.sc C.sc D.sc E.sc F.sc G.sc H.sc I.sc J.sc K.sc L.sc M.sc N.sc O.sc P.sc Q.sc R.sc S.sc T.sc U.sc V.sc W.sc X.sc Y.sc Z.sc AE.sc OE.sc";
name = smallcaps;
}
);
copyright = "Copyright (c) 2011 by Pablo Impallari. www.impallari.com Igino Marini. www.ikern.com. All rights reserved.";
customParameters = (
{
name = licenseURL;
value = "http://scripts.sil.org/OFL";
},
{
name = description;
value = "Copyright (c) 2011 by Pablo Impallari. www.impallari.com Copyright (c) 2011 by Igino Marini. www.ikern.com All rights reserved.";
},
{
name = trademark;
value = "Cabin is a trademark of Pablo Impallari. www.impallari.com Igino Marini. www.ikern.com.";
},
{
name = license;
value = "Copyright (c) 2010, Pablo Impallari (www.impallari.com|impallari@gmail.com),\012with Reserved Font Name Cabin.\012This Font Software is licensed under the SIL Open Font License, Version 1.1.\012This license is available with a FAQ at: http://scripts.sil.org/OFL";
},
{
name = panose;
value = (
2,
11,
8,
3,
5,
2,
2,
2,
0,
4
);
},
{
name = glyphOrder;
value = (
A,
A.sc,
AE,
AE.sc,
Aacute,
Acircumflex,
Adieresis,
Agrave,
Aring,
Atilde,
B,
B.sc,
C,
C.sc,
Ccedilla,
D,
D.sc,
E,
E.sc,
Eacute,
Ecircumflex,
Edieresis,
Egrave,
Eth,
Euro,
F,
F.sc,
G,
G.sc,
H,
H.sc,
I,
I.sc,
Iacute,
Icircumflex,
Idieresis,
Igrave,
J,
J.sc,
K,
K.sc,
L,
L.sc,
M,
M.sc,
N,
N.sc,
Ntilde,
O,
O.sc,
OE,
OE.sc,
Oacute,
Ocircumflex,
Odieresis,
Ograve,
Oslash,
Otilde,
P,
P.sc,
Q,
Q.sc,
R,
R.sc,
S,
S.sc,
Scaron,
T,
T.sc,
Thorn,
U,
U.sc,
Uacute,
Ucircumflex,
Udieresis,
Ugrave,
V,
V.sc,
W,
W.sc,
X,
X.sc,
Y,
Y.sc,
Yacute,
Ydieresis,
Z,
Z.sc,
Zcaron,
a,
aacute,
acircumflex,
acute,
adieresis,
ae,
agrave,
ampersand,
aring,
asciicircum,
asciitilde,
asterisk,
at,
atilde,
b,
backslash,
bar,
braceleft,
braceright,
bracketleft,
bracketright,
brokenbar,
bullet,
c,
caron,
ccedilla,
cedilla,
cent,
circumflex,

glyphs = (
{
glyphname = A;
lastChange = "2016-08-23 09:36:31 +0000";
layers = (
{
layerId = UUID0;
paths = (
{
closed = 1;
nodes = (
"614 0 LINE",
"363 700 LINE",
"263 700 LINE",
"12 0 LINE",
"112 0 LINE",
"179 189 LINE",
"447 189 LINE",
"514 0 LINE"
);
},
{
closed = 1;
nodes = (
"417 275 LINE",
"209 275 LINE",
"313 567 LINE"
);
}
);
width = 628;
},
{
layerId = "7C863538-AAB4-42AD-A9FE-7240E615272A";
paths = (
{
closed = 1;
nodes = (
"622 0 LINE",
"373 700 LINE",
"252 700 LINE",
"3 0 LINE",
"136 0 LINE",
"196 169 LINE",
"429 169 LINE",
"489 0 LINE"
);
},
{
closed = 1;
nodes = (
"385 293 LINE",
"240 293 LINE",
"312 498 LINE"
);
}
);
width = 625;
}
);
leftKerningGroup = A;
rightKerningGroup = A;
unicode = 0041;
},
{
glyphname = A.sc;
lastChange = "2016-08-23 09:36:31 +0000";
layers = (
{
layerId = UUID0;
paths = (
{
closed = 1;
nodes = (
"555 0 LINE",
"343 560 LINE",
"250 560 LINE",
"37 0 LINE",
"135 0 LINE",
"189 141 LINE",
"403 141 LINE",
"458 0 LINE"
);
},
{
closed = 1;
nodes = (
"372 229 LINE",
"220 229 LINE",
"296 418 LINE"
);
}
);
width = 593;
},
{
layerId = "7C863538-AAB4-42AD-A9FE-7240E615272A";
paths = (
{
closed = 1;
nodes = (
"580 0 LINE",
"362 581 LINE",
"248 581 LINE",
"30 0 LINE",
"158 0 LINE",
"208 131 LINE",
"402 131 LINE",
"453 0 LINE"
);
},
{
closed = 1;
nodes = (
"359 251 LINE",
"251 251 LINE",
"304 382 LINE"
);
}
);
width = 609;
}
);
},
{
glyphname = AE;
lastChange = "2016-08-23 09:36:31 +0000";
layers = (
{
layerId = UUID0;
paths = (
{
closed = 1;
nodes = (
"833 0 LINE",
"833 86 LINE",
"511 86 LINE",
"511 323 LINE",
"752 323 LINE",
"752 409 LINE",
"511 409 LINE",
"511 613 LINE",
"823 613 LINE",
"823 700 LINE",
"340 700 LINE",
"-2 0 LINE",
"91 0 LINE",
"183 180 LINE",
"397 180 LINE",
"397 0 LINE"
);
},
{
closed = 1;
nodes = (
"397 272 LINE",
"226 272 LINE",
"397 611 LINE"
);
}
);
width = 867;
},
{
layerId = "7C863538-AAB4-42AD-A9FE-7240E615272A";
paths = (
{
closed = 1;
nodes = (
"833 0 LINE",
"833 124 LINE",
"528 124 LINE",
"528 303 LINE",
"756 303 LINE",
"756 427 LINE",
"528 427 LINE",
"528 576 LINE",
"824 576 LINE",
"824 700 LINE",
"330 700 LINE",
"-11 0 LINE",
"122 0 LINE",
"203 169 LINE",
"397 169 LINE",
"397 0 LINE"
);
},
{
closed = 1;
nodes = (
"397 293 LINE",
"262 293 LINE",
"397 573 LINE"
);
}
);
width = 867;
}
);
rightKerningGroup = E;
unicode = 00C6;
},
{
glyphname = AE.sc;
lastChange = "2016-08-23 09:36:31 +0000";
layers = (
{
layerId = UUID0;
paths = (
{
closed = 1;
nodes = (
"738 0 LINE",
"738 88 LINE",
"471 88 LINE",
"471 248 LINE",
"671 248 LINE",
"671 336 LINE",
"471 336 LINE",
"471 471 LINE",
"730 471 LINE",
"730 560 LINE",
"315 560 LINE",
"25 0 LINE",
"119 0 LINE",
"193 138 LINE",
"368 138 LINE",
"368 0 LINE"
);
},
{
closed = 1;
nodes = (
"368 228 LINE",
"236 228 LINE",
"368 469 LINE"
);
}
);
width = 797;
},
{
layerId = "7C863538-AAB4-42AD-A9FE-7240E615272A";
paths = (
{
closed = 1;
nodes = (
"763 0 LINE",
"763 120 LINE",
"500 120 LINE",
"500 243 LINE",
"696 243 LINE",
"696 362 LINE",
"500 362 LINE",
"500 461 LINE",
"755 461 LINE",
"755 581 LINE",
"317 581 LINE",
"17 0 LINE",
"147 0 LINE",
"215 135 LINE",
"379 135 LINE",
"379 0 LINE"
);
},
{
closed = 1;
nodes = (
"379 253 LINE",
"272 253 LINE",
"379 459 LINE"
);
}
);
width = 823;
}
);
},
{
glyphname = B;
lastChange = "2016-08-23 09:36:31 +0000";
layers = (
{
layerId = UUID0;
paths = (
{
closed = 1;
nodes = (
"306 0 LINE SMOOTH",
"421 0 OFFCURVE",
"548 29 OFFCURVE",
"548 208 CURVE SMOOTH",
"548 283 OFFCURVE",
"522 338 OFFCURVE",
"431 373 CURVE",
"485 429 OFFCURVE",
"488 468 OFFCURVE",
"488 527 CURVE SMOOTH",
"488 675 OFFCURVE",
"388 700 OFFCURVE",
"224 700 CURVE SMOOTH",
"66 700 LINE",
"66 0 LINE"
);
},
{
closed = 1;
nodes = (
"251 615 LINE SMOOTH",
"328 615 OFFCURVE",
"390 608 OFFCURVE",
"390 520 CURVE SMOOTH",
"390 415 OFFCURVE",
"335 409 OFFCURVE",
"279 409 CURVE SMOOTH",
"161 409 LINE",
"161 615 LINE"
);
},
{
closed = 1;
nodes = (
"309 323 LINE SMOOTH",
"383 323 OFFCURVE",
"449 301 OFFCURVE",
"449 199 CURVE SMOOTH",
"449 98 OFFCURVE",
"374 86 OFFCURVE",
"259 86 CURVE SMOOTH",
"161 86 LINE",
"161 323 LINE"
);
}
);
width = 600;
},
{
layerId = "7C863538-AAB4-42AD-A9FE-7240E615272A";
paths = (
{
closed = 1;
nodes = (
"324 0 LINE SMOOTH",
"441 0 OFFCURVE",
"574 44 OFFCURVE",
"574 206 CURVE SMOOTH",
"574 295 OFFCURVE",
"533 343 OFFCURVE",
"452 374 CURVE",
"493 408 OFFCURVE",
"511 457 OFFCURVE",
"511 520 CURVE SMOOTH",
"511 675 OFFCURVE",
"404 700 OFFCURVE",
"243 700 CURVE SMOOTH",
"54 700 LINE",
"54 0 LINE"
);
},
{
closed = 1;
nodes = (
"295 591 LINE SMOOTH",
"354 591 OFFCURVE",
"392 574 OFFCURVE",
"392 501 CURVE SMOOTH",
"392 434 OFFCURVE",
"343 419 OFFCURVE",
"307 419 CURVE SMOOTH",
"182 419 LINE",
"182 591 LINE"
);
},
{
closed = 1;
nodes = (
"315 318 LINE SMOOTH",
"387 318 OFFCURVE",
"442 294 OFFCURVE",
"442 213 CURVE SMOOTH",
"442 134 OFFCURVE",
"390 109 OFFCURVE",
"308 109 CURVE SMOOTH",
"182 109 LINE",
"182 318 LINE"
);
}
);
width = 628;
}
);
leftKerningGroup = I;
unicode = 0042;
},
{
glyphname = B.sc;
lastChange = "2016-08-23 09:36:31 +0000";
layers = (
{
layerId = UUID0;
paths = (
{
closed = 1;
nodes = (
"297 0 LINE SMOOTH",
"395 0 OFFCURVE",
"505 31 OFFCURVE",
"505 165 CURVE SMOOTH",
"505 233 OFFCURVE",
"477 273 OFFCURVE",
"404 299 CURVE",
"445 332 OFFCURVE",
"453 369 OFFCURVE",
"453 418 CURVE SMOOTH",
"453 540 OFFCURVE",
"365 560 OFFCURVE",
"227 560 CURVE SMOOTH",
"81 560 LINE",
"81 0 LINE"
);
},
{
closed = 1;
nodes = (
"260 480 LINE SMOOTH",
"318 480 OFFCURVE",
"362 469 OFFCURVE",
"362 406 CURVE SMOOTH",
"362 342 OFFCURVE",
"317 332 OFFCURVE",
"277 332 CURVE SMOOTH",
"174 332 LINE",
"174 480 LINE"
);
},
{
closed = 1;
nodes = (
"294 256 LINE SMOOTH",
"357 256 OFFCURVE",
"408 237 OFFCURVE",
"408 166 CURVE SMOOTH",
"408 97 OFFCURVE",
"354 81 OFFCURVE",
"269 81 CURVE SMOOTH",
"174 81 LINE",
"174 256 LINE"
);
}
);
width = 580;
},
{
layerId = "7C863538-AAB4-42AD-A9FE-7240E615272A";
paths = (
{
closed = 1;
nodes = (
"321 0 LINE SMOOTH",
"425 0 OFFCURVE",
"544 43 OFFCURVE",
"544 170 CURVE SMOOTH",
"544 250 OFFCURVE",
"503 287 OFFCURVE",
"435 311 CURVE",
"467 329 OFFCURVE",
"487 374 OFFCURVE",
"487 428 CURVE SMOOTH",
"487 560 OFFCURVE",
"391 581 OFFCURVE",
"250 581 CURVE SMOOTH",
"74 581 LINE",
"74 0 LINE"
);
},
{
closed = 1;
nodes = (
"304 480 LINE SMOOTH",
"350 480 OFFCURVE",
"376 461 OFFCURVE",
"376 407 CURVE SMOOTH",
"376 369 OFFCURVE",
"335 352 OFFCURVE",
"309 352 CURVE SMOOTH",
"197 352 LINE",
"197 480 LINE"
);
},
{
closed = 1;
nodes = (
"309 262 LINE SMOOTH",
"372 262 OFFCURVE",
"417 241 OFFCURVE",
"417 183 CURVE SMOOTH",
"417 127 OFFCURVE",
"379 101 OFFCURVE",
"317 101 CURVE SMOOTH",
"197 101 LINE",
"197 262 LINE"
);
}
);
width = 622;
}
);
},
{
glyphname = C;
lastChange = "2016-08-23 09:36:31 +0000";
layers = (
{
layerId = UUID0;
paths = (
{
closed = 1;
nodes = (
"386 -14 LINE",
"456 -14 OFFCURVE",
"528 3 OFFCURVE",
"579 26 CURVE",
"569 114 LINE",
"514 95 OFFCURVE",
"457 72 OFFCURVE",
"387 72 CURVE SMOOTH",
"224 72 OFFCURVE",
"139 195 OFFCURVE",
"139 350 CURVE SMOOTH",
"139 505 OFFCURVE",
"224 628 OFFCURVE",
"385 628 CURVE SMOOTH",
"457 628 OFFCURVE",
"514 604 OFFCURVE",
"569 585 CURVE",
"579 673 LINE",
"531 696 OFFCURVE",
"456 714 OFFCURVE",
"385 714 CURVE SMOOTH",
"183 714 OFFCURVE",
"35 572 OFFCURVE",
"35 350 CURVE SMOOTH",
"35 128 OFFCURVE",
"183 -14 OFFCURVE",
"386 -14 CURVE SMOOTH"
);
}
);
width = 609;
},
{
layerId = "7C863538-AAB4-42AD-A9FE-7240E615272A";
paths = (
{
closed = 1;
nodes = (
"380 -14 LINE",
"453 -14 OFFCURVE",
"528 2 OFFCURVE",
"579 27 CURVE",
"565 149 LINE",
"507 126 OFFCURVE",
"453 109 OFFCURVE",
"380 109 CURVE SMOOTH",
"244 109 OFFCURVE",
"175 210 OFFCURVE",
"175 350 CURVE SMOOTH",
"175 490 OFFCURVE",
"244 591 OFFCURVE",
"380 591 CURVE SMOOTH",
"453 591 OFFCURVE",
"507 574 OFFCURVE",
"565 551 CURVE",
"579 673 LINE",
"528 698 OFFCURVE",
"453 714 OFFCURVE",
"380 714 CURVE SMOOTH",
"180 714 OFFCURVE",
"35 570 OFFCURVE",
"35 350 CURVE SMOOTH",
"35 130 OFFCURVE",
"180 -14 OFFCURVE",
"380 -14 CURVE SMOOTH"
);
}
);
width = 609;
}
);
leftKerningGroup = O;
rightKerningGroup = C;
unicode = 0043;
},
{
glyphname = C.sc;
lastChange = "2016-08-23 09:36:31 +0000";
layers = (
{
layerId = UUID0;
paths = (
{
closed = 1;
nodes = (
"356 -11 LINE",
"417 -11 OFFCURVE",
"479 2 OFFCURVE",
"522 21 CURVE",
"512 109 LINE",
"464 92 OFFCURVE",
"417 77 OFFCURVE",
"357 77 CURVE SMOOTH",
"228 77 OFFCURVE",
"162 164 OFFCURVE",
"162 280 CURVE SMOOTH",
"162 396 OFFCURVE",
"228 483 OFFCURVE",
"356 483 CURVE SMOOTH",
"417 483 OFFCURVE",
"464 468 OFFCURVE",
"512 451 CURVE",
"522 538 LINE",
"480 558 OFFCURVE",
"417 571 OFFCURVE",
"356 571 CURVE SMOOTH",
"185 571 OFFCURVE",
"60 457 OFFCURVE",
"60 280 CURVE SMOOTH",
"60 103 OFFCURVE",
"185 -11 OFFCURVE",
"356 -11 CURVE SMOOTH"
);
}
);
width = 578;
},
{
layerId = "7C863538-AAB4-42AD-A9FE-7240E615272A";
paths = (
{
closed = 1;
nodes = (
"363 -12 LINE",
"428 -12 OFFCURVE",
"495 1 OFFCURVE",
"540 23 CURVE",
"526 139 LINE",
"474 118 OFFCURVE",
"428 107 OFFCURVE",
"362 107 CURVE SMOOTH",
"251 107 OFFCURVE",
"196 181 OFFCURVE",
"196 291 CURVE SMOOTH",
"196 400 OFFCURVE",
"251 474 OFFCURVE",
"363 474 CURVE SMOOTH",
"428 474 OFFCURVE",
"474 463 OFFCURVE",
"526 442 CURVE",
"540 559 LINE",
"494 580 OFFCURVE",
"428 593 OFFCURVE",
"363 593 CURVE SMOOTH",
"188 593 OFFCURVE",
"61 472 OFFCURVE",
"61 291 CURVE SMOOTH",
"61 109 OFFCURVE",
"188 -12 OFFCURVE",
"363 -12 CURVE SMOOTH"
);
}
);
width = 596;
}
);
},
{
glyphname = D;
lastChange = "2016-08-23 09:36:31 +0000";
layers = (
{
layerId = UUID0;
paths = (
{
closed = 1;
nodes = (
"336 0 LINE SMOOTH",
"539 0 OFFCURVE",
"684 129 OFFCURVE",
"684 350 CURVE SMOOTH",
"684 571 OFFCURVE",
"539 700 OFFCURVE",
"336 700 CURVE SMOOTH",
"77 700 LINE",
"77 0 LINE"
);
},
{
closed = 1;
nodes = (
"336 614 LINE SMOOTH",
"496 614 OFFCURVE",
"580 507 OFFCURVE",
"580 350 CURVE SMOOTH",
"580 193 OFFCURVE",
"496 86 OFFCURVE",
"336 86 CURVE SMOOTH",
"172 86 LINE",
"172 614 LINE"
);
}
);
width = 720;
},
{
layerId = "7C863538-AAB4-42AD-A9FE-7240E615272A";
paths = (
{
closed = 1;
nodes = (
"339 0 LINE SMOOTH",
"539 0 OFFCURVE",
"684 130 OFFCURVE",
"684 350 CURVE SMOOTH",
"684 570 OFFCURVE",
"539 700 OFFCURVE",
"339 700 CURVE SMOOTH",
"77 700 LINE",
"77 0 LINE"
);
},
{
closed = 1;
nodes = (
"339 577 LINE SMOOTH",
"475 577 OFFCURVE",
"544 490 OFFCURVE",
"544 350 CURVE SMOOTH",
"544 210 OFFCURVE",
"475 123 OFFCURVE",
"339 123 CURVE SMOOTH",
"205 123 LINE",
"205 577 LINE"
);
}
);
width = 720;
}
);
leftKerningGroup = I;
rightKerningGroup = D;
unicode = 0044;
},
{
glyphname = D.sc;
lastChange = "2016-08-23 09:36:31 +0000";
layers = (
{
layerId = UUID0;
paths = (
{
closed = 1;
nodes = (
"316 0 LINE SMOOTH",
"488 0 OFFCURVE",
"611 104 OFFCURVE",
"611 280 CURVE SMOOTH",
"611 456 OFFCURVE",
"488 560 OFFCURVE",
"316 560 CURVE SMOOTH",
"95 560 LINE",
"95 0 LINE"
);
},
{
closed = 1;
nodes = (
"316 472 LINE SMOOTH",
"443 472 OFFCURVE",
"509 397 OFFCURVE",
"509 280 CURVE SMOOTH",
"509 163 OFFCURVE",
"443 88 OFFCURVE",
"316 88 CURVE SMOOTH",
"188 88 LINE",
"188 472 LINE"
);
}
);
width = 672;
},
{
layerId = "7C863538-AAB4-42AD-A9FE-7240E615272A";
paths = (
{
closed = 1;
nodes = (
"330 0 LINE SMOOTH",
"505 0 OFFCURVE",
"632 108 OFFCURVE",
"632 291 CURVE SMOOTH",
"632 473 OFFCURVE",
"505 581 OFFCURVE",
"330 581 CURVE SMOOTH",
"98 581 LINE",
"98 0 LINE"
);
},
{
closed = 1;
nodes = (
"330 462 LINE SMOOTH",
"442 462 OFFCURVE",
"497 399 OFFCURVE",
"497 291 CURVE SMOOTH",
"497 182 OFFCURVE",
"442 119 OFFCURVE",
"330 119 CURVE SMOOTH",
"221 119 LINE",
"221 462 LINE"
);
}
);
width = 694;
}
);
},
{
glyphname = E;
lastChange = "2016-08-23 09:36:31 +0000";
layers = (
{
layerId = UUID0;
paths = (
{
closed = 1;
nodes = (
"513 0 LINE",
"513 86 LINE",
"172 86 LINE",
"172 323 LINE",
"436 323 LINE",
"436 409 LINE",
"172 409 LINE",
"172 614 LINE",
"504 614 LINE",
"504 700 LINE",
"77 700 LINE",
"77 0 LINE"
);
}
);
width = 547;
},
{
layerId = "7C863538-AAB4-42AD-A9FE-7240E615272A";
paths = (
{
closed = 1;
nodes = (
"535 0 LINE",
"535 124 LINE",
"208 124 LINE",
"208 303 LINE",
"454 303 LINE",
"454 427 LINE",
"208 427 LINE",
"208 576 LINE",
"525 576 LINE",
"525 700 LINE",
"77 700 LINE",
"77 0 LINE"
);
}
);
width = 569;
}
);
leftKerningGroup = E;
rightKerningGroup = E;
unicode = 0045;
},
{
glyphname = E.sc;
lastChange = "2016-08-23 09:36:31 +0000";
layers = (
{
layerId = UUID0;
paths = (
{
closed = 1;
nodes = (
"474 0 LINE",
"474 88 LINE",
"190 88 LINE",
"190 248 LINE",
"407 248 LINE",
"407 336 LINE",
"190 336 LINE",
"190 472 LINE",
"466 472 LINE",
"466 560 LINE",
"95 560 LINE",
"95 0 LINE"
);
}
);
width = 533;
},
{
layerId = "7C863538-AAB4-42AD-A9FE-7240E615272A";
paths = (
{
closed = 1;
nodes = (
"508 0 LINE",
"508 120 LINE",
"225 120 LINE",
"225 243 LINE",
"436 243 LINE",
"436 362 LINE",
"225 362 LINE",
"225 461 LINE",
"499 461 LINE",
"499 581 LINE",
"98 581 LINE",
"98 0 LINE"
);
}
);
width = 568;
}
);
},
{
glyphname = Eth;
lastChange = "2016-08-23 09:36:31 +0000";
layers = (
{
layerId = UUID0;
paths = (
{
closed = 1;
nodes = (
"350 0 LINE SMOOTH",
"551 0 OFFCURVE",
"695 129 OFFCURVE",
"695 350 CURVE SMOOTH",
"695 571 OFFCURVE",
"551 700 OFFCURVE",
"350 700 CURVE SMOOTH",
"94 700 LINE",
"94 377 LINE",
"-3 377 LINE",
"-3 313 LINE",
"94 313 LINE",
"94 0 LINE"
);
},
{
closed = 1;
nodes = (
"350 614 LINE SMOOTH",
"511 614 OFFCURVE",
"593 509 OFFCURVE",
"593 350 CURVE SMOOTH",
"593 191 OFFCURVE",
"511 87 OFFCURVE",
"350 87 CURVE SMOOTH",
"184 87 LINE",
"184 313 LINE",
"317 313 LINE",
"317 377 LINE",
"184 377 LINE",
"184 614 LINE"
);
}
);
width = 731;
},
{
layerId = "7C863538-AAB4-42AD-A9FE-7240E615272A";
paths = (
{
closed = 1;
nodes = (
"350 0 LINE SMOOTH",
"550 0 OFFCURVE",
"695 130 OFFCURVE",
"695 350 CURVE SMOOTH",
"695 570 OFFCURVE",
"550 700 OFFCURVE",
"350 700 CURVE SMOOTH",
"88 700 LINE",
"88 393 LINE",
"-4 393 LINE",
"-4 299 LINE",
"88 299 LINE",
"88 0 LINE"
);
},
{
closed = 1;
nodes = (
"350 577 LINE SMOOTH",
"486 577 OFFCURVE",
"555 490 OFFCURVE",
"555 350 CURVE SMOOTH",
"555 210 OFFCURVE",
"486 123 OFFCURVE",
"350 123 CURVE SMOOTH",
"216 123 LINE",
"216 299 LINE",
"338 299 LINE",
"338 393 LINE",
"216 393 LINE",
"216 577 LINE"
);
}
);
width = 731;
}
);
leftKerningGroup = I;
rightKerningGroup = D;
unicode = 00D0;
},
{
glyphname = Euro;
lastChange = "2016-08-23 09:36:31 +0000";
layers = (
{
layerId = UUID0;
paths = (
{
closed = 1;
nodes = (
"479 17 LINE",
"541 17 OFFCURVE",
"605 28 OFFCURVE",
"655 51 CURVE",
"643 149 LINE",
"591 127 OFFCURVE",
"542 111 OFFCURVE",
"479 111 CURVE SMOOTH",
"400 111 OFFCURVE",
"344 143 OFFCURVE",
"303 215 CURVE",
"501 215 LINE",
"525 284 LINE",
"282 284 LINE",
"278 310 OFFCURVE",
"277 329 OFFCURVE",
"277 350 CURVE SMOOTH",
"277 374 LINE",
"521 374 LINE",
"545 438 LINE",
"287 438 LINE",
"316 534 OFFCURVE",
"377 589 OFFCURVE",
"479 589 CURVE SMOOTH",
"542 589 OFFCURVE",
"591 573 OFFCURVE",
"643 551 CURVE",
"655 649 LINE",
"605 672 OFFCURVE",
"541 683 OFFCURVE",
"479 683 CURVE SMOOTH",
"327 683 OFFCURVE",
"208 592 OFFCURVE",
"170 438 CURVE",
"94 438 LINE",
"72 374 LINE",
"161 374 LINE",
"161 350 LINE",
"161 331 OFFCURVE",
"162 312 OFFCURVE",
"165 284 CURVE",
"66 284 LINE",
"42 215 LINE",
"183 215 LINE",
"234 89 OFFCURVE",
"344 17 OFFCURVE",
"479 17 CURVE SMOOTH"
);
}
);
width = 708;
},
{
layerId = "7C863538-AAB4-42AD-A9FE-7240E615272A";
paths = (
{
closed = 1;
nodes = (
"469 17 LINE",
"533 17 OFFCURVE",
"599 29 OFFCURVE",
"650 54 CURVE",
"636 167 LINE",
"582 144 OFFCURVE",
"533 127 OFFCURVE",
"469 127 CURVE SMOOTH",
"395 127 OFFCURVE",
"344 157 OFFCURVE",
"314 209 CURVE",
"497 209 LINE",
"527 295 LINE",
"286 295 LINE",
"283 312 OFFCURVE",
"282 330 OFFCURVE",
"282 350 CURVE SMOOTH",
"282 364 LINE",
"516 364 LINE",
"546 445 LINE",
"295 445 LINE",
"319 523 OFFCURVE",
"375 573 OFFCURVE",
"469 573 CURVE SMOOTH",
"533 573 OFFCURVE",
"582 556 OFFCURVE",
"636 533 CURVE",
"650 646 LINE",
"599 671 OFFCURVE",
"533 683 OFFCURVE",
"469 683 CURVE SMOOTH",
"317 683 OFFCURVE",
"198 592 OFFCURVE",
"162 445 CURVE",
"89 445 LINE",
"61 364 LINE",
"151 364 LINE",
"151 350 LINE",
"151 331 OFFCURVE",
"152 312 OFFCURVE",
"154 295 CURVE",
"62 295 LINE",
"32 209 LINE",
"176 209 LINE",
"224 89 OFFCURVE",
"334 17 OFFCURVE",
"469 17 CURVE SMOOTH"
);
}
);
width = 701;
}
);
unicode = 20AC;
},
{
glyphname = F;
lastChange = "2016-08-23 09:36:31 +0000";
layers = (
{
layerId = UUID0;
paths = (
{
closed = 1;
nodes = (
"504 614 LINE",
"504 700 LINE",
"77 700 LINE",
"77 0 LINE",
"172 0 LINE",
"172 323 LINE",
"428 323 LINE",
"428 409 LINE",
"172 409 LINE",
"172 614 LINE"
);
}
);
width = 521;
},
{
layerId = "7C863538-AAB4-42AD-A9FE-7240E615272A";
paths = (
{
closed = 1;
nodes = (
"508 576 LINE",
"508 700 LINE",
"77 700 LINE",
"77 0 LINE",
"205 0 LINE",
"205 303 LINE",
"439 303 LINE",
"439 427 LINE",
"205 427 LINE",
"205 576 LINE"
);
}
);
width = 525;
}
);
leftKerningGroup = I;
unicode = 0046;
},
{
glyphname = F.sc;
lastChange = "2016-08-23 09:36:31 +0000";
layers = (
{
layerId = UUID0;
paths = (
{
closed = 1;
nodes = (
"459 472 LINE",
"459 560 LINE",
"95 560 LINE",
"95 0 LINE",
"188 0 LINE",
"188 248 LINE",
"398 248 LINE",
"398 336 LINE",
"188 336 LINE",
"188 472 LINE"
);
}
);
width = 503;
},
{
layerId = "7C863538-AAB4-42AD-A9FE-7240E615272A";
paths = (
{
closed = 1;
nodes = (
"479 461 LINE",
"479 581 LINE",
"98 581 LINE",
"98 0 LINE",
"221 0 LINE",
"221 243 LINE",
"420 243 LINE",
"420 362 LINE",
"221 362 LINE",
"221 461 LINE"
);
}
);
width = 524;
}
);
},
{
glyphname = G;
lastChange = "2016-08-23 09:36:31 +0000";
layers = (
{
layerId = UUID0;
paths = (
{
closed = 1;
nodes = (
"378 -14 LINE",
"458 -14 OFFCURVE",
"562 10 OFFCURVE",
"617 39 CURVE",
"617 351 LINE",
"412 351 LINE",
"412 265 LINE",
"522 265 LINE",
"522 91 LINE",
"485 76 OFFCURVE",
"435 72 OFFCURVE",
"405 72 CURVE SMOOTH",
"223 72 OFFCURVE",
"139 190 OFFCURVE",
"139 350 CURVE SMOOTH",
"139 505 OFFCURVE",
"218 628 OFFCURVE",
"389 628 CURVE SMOOTH",
"453 628 OFFCURVE",
"527 611 OFFCURVE",
"585 591 CURVE",
"594 674 LINE",
"541 697 OFFCURVE",
"456 714 OFFCURVE",
"386 714 CURVE SMOOTH",
"182 714 OFFCURVE",
"35 572 OFFCURVE",
"35 351 CURVE SMOOTH",
"35 128 OFFCURVE",
"184 -14 OFFCURVE",
"378 -14 CURVE SMOOTH"
);
}
);
width = 664;
},
{
layerId = "7C863538-AAB4-42AD-A9FE-7240E615272A";
paths = (
{
closed = 1;
nodes = (
"377 -14 LINE",
"457 -14 OFFCURVE",
"566 10 OFFCURVE",
"617 39 CURVE",
"617 351 LINE",
"412 351 LINE",
"412 245 LINE",
"489 245 LINE",
"489 120 LINE",
"455 113 OFFCURVE",
"422 109 OFFCURVE",
"393 109 CURVE SMOOTH",
"248 109 OFFCURVE",
"175 210 OFFCURVE",
"175 353 CURVE SMOOTH",
"175 489 OFFCURVE",
"241 591 OFFCURVE",
"387 591 CURVE SMOOTH",
"449 591 OFFCURVE",
"526 573 OFFCURVE",
"580 551 CURVE",
"594 673 LINE",
"543 698 OFFCURVE",
"452 714 OFFCURVE",
"384 714 CURVE SMOOTH",
"179 714 OFFCURVE",
"35 570 OFFCURVE",
"35 351 CURVE SMOOTH",
"35 130 OFFCURVE",
"181 -14 OFFCURVE",
"377 -14 CURVE SMOOTH"
);
}
);
width = 664;
}
);
leftKerningGroup = O;
unicode = 0047;
},
{
glyphname = G.sc;
lastChange = "2016-08-23 09:36:31 +0000";
layers = (
{
layerId = UUID0;
paths = (
{
closed = 1;
nodes = (
"351 -11 LINE",
"419 -11 OFFCURVE",
"509 8 OFFCURVE",
"555 31 CURVE",
"555 281 LINE",
"380 281 LINE",
"380 202 LINE",
"461 202 LINE",
"461 88 LINE",
"431 80 OFFCURVE",
"395 77 OFFCURVE",
"370 77 CURVE SMOOTH",
"229 77 OFFCURVE",
"162 162 OFFCURVE",
"162 282 CURVE SMOOTH",
"162 396 OFFCURVE",
"224 483 OFFCURVE",
"360 483 CURVE SMOOTH",
"414 483 OFFCURVE",
"478 469 OFFCURVE",
"526 452 CURVE",
"535 539 LINE",
"491 558 OFFCURVE",
"416 571 OFFCURVE",
"358 571 CURVE SMOOTH",
"184 571 OFFCURVE",
"60 457 OFFCURVE",
"60 281 CURVE SMOOTH",
"60 103 OFFCURVE",
"185 -11 OFFCURVE",
"351 -11 CURVE SMOOTH"
);
}
);
width = 625;
},
{
layerId = "7C863538-AAB4-42AD-A9FE-7240E615272A";
paths = (
{
closed = 1;
nodes = (
"362 -12 LINE",
"432 -12 OFFCURVE",
"530 8 OFFCURVE",
"573 32 CURVE",
"573 291 LINE",
"393 291 LINE",
"393 194 LINE",
"450 194 LINE",
"450 113 LINE",
"421 110 OFFCURVE",
"397 107 OFFCURVE",
"372 107 CURVE SMOOTH",
"256 107 OFFCURVE",
"196 183 OFFCURVE",
"196 294 CURVE SMOOTH",
"196 399 OFFCURVE",
"250 474 OFFCURVE",
"370 474 CURVE SMOOTH",
"424 474 OFFCURVE",
"493 459 OFFCURVE",
"539 439 CURVE",
"553 558 LINE",
"509 580 OFFCURVE",
"427 593 OFFCURVE",
"367 593 CURVE SMOOTH",
"187 593 OFFCURVE",
"61 472 OFFCURVE",
"61 291 CURVE SMOOTH",
"61 109 OFFCURVE",
"189 -12 OFFCURVE",
"362 -12 CURVE SMOOTH"
);
}
);
width = 644;
}
);
},
{
glyphname = H;
lastChange = "2016-08-23 09:36:31 +0000";
layers = (
{
layerId = UUID0;
paths = (
{
closed = 1;
nodes = (
"663 0 LINE",
"663 700 LINE",
"568 700 LINE",
"568 411 LINE",
"172 411 LINE",
"172 700 LINE",
"77 700 LINE",
"77 0 LINE",
"172 0 LINE",
"172 321 LINE",
"568 321 LINE",
"568 0 LINE"
);
}
);
width = 740;
},
{
layerId = "7C863538-AAB4-42AD-A9FE-7240E615272A";
paths = (
{
closed = 1;
nodes = (
"663 0 LINE",
"663 700 LINE",
"535 700 LINE",
"535 427 LINE",
"205 427 LINE",
"205 700 LINE",
"77 700 LINE",
"77 0 LINE",
"205 0 LINE",
"205 303 LINE",
"535 303 LINE",
"535 0 LINE"
);
}
);
width = 740;
}
);
leftKerningGroup = I;
rightKerningGroup = I;
unicode = 0048;
},
{
glyphname = H.sc;
lastChange = "2016-08-23 09:36:31 +0000";
layers = (
{
layerId = UUID0;
paths = (
{
closed = 1;
nodes = (
"593 0 LINE",
"593 560 LINE",
"500 560 LINE",
"500 337 LINE",
"188 337 LINE",
"188 560 LINE",
"95 560 LINE",
"95 0 LINE",
"188 0 LINE",
"188 248 LINE",
"500 248 LINE",
"500 0 LINE"
);
}
);
width = 688;
},
{
layerId = "7C863538-AAB4-42AD-A9FE-7240E615272A";
paths = (
{
closed = 1;
nodes = (
"614 0 LINE",
"614 581 LINE",
"490 581 LINE",
"490 362 LINE",
"221 362 LINE",
"221 581 LINE",
"98 581 LINE",
"98 0 LINE",
"221 0 LINE",
"221 243 LINE",
"490 243 LINE",
"490 0 LINE"
);
}
);
width = 712;
}
);
},
{
glyphname = I;
lastChange = "2016-08-23 09:36:31 +0000";
layers = (
{
layerId = UUID0;
paths = (
{
closed = 1;
nodes = (
"188 0 LINE",
"188 700 LINE",
"93 700 LINE",
"93 0 LINE"
);
}
);
width = 282;
},
{
layerId = "7C863538-AAB4-42AD-A9FE-7240E615272A";
paths = (
{
closed = 1;
nodes = (
"205 0 LINE",
"205 700 LINE",
"77 700 LINE",
"77 0 LINE"
);
}
);
width = 282;
}
);
leftKerningGroup = I;
rightKerningGroup = I;
unicode = 0049;
},
{
glyphname = I.sc;
lastChange = "2016-08-23 09:36:31 +0000";
layers = (
{
layerId = UUID0;
paths = (
{
closed = 1;
nodes = (
"196 0 LINE",
"196 560 LINE",
"103 560 LINE",
"103 0 LINE"
);
}
);
width = 299;
},
{
layerId = "7C863538-AAB4-42AD-A9FE-7240E615272A";
paths = (
{
closed = 1;
nodes = (
"216 0 LINE",
"216 581 LINE",
"93 581 LINE",
"93 0 LINE"
);
}
);
width = 308;
}
);
},
{
glyphname = J;
lastChange = "2016-08-23 09:36:31 +0000";
layers = (
{
layerId = UUID0;
paths = (
{
closed = 1;
nodes = (
"27 -172 LINE SMOOTH",
"142 -172 OFFCURVE",
"193 -122 OFFCURVE",
"193 -32 CURVE SMOOTH",
"193 700 LINE",
"98 700 LINE",
"98 -3 LINE SMOOTH",
"98 -81 OFFCURVE",
"81 -116 OFFCURVE",
"4 -116 CURVE SMOOTH",
"1 -116 LINE",
"11 -172 LINE"
);
}
);
width = 282;
},
{
layerId = "7C863538-AAB4-42AD-A9FE-7240E615272A";
paths = (
{
closed = 1;
nodes = (
"43 -172 LINE SMOOTH",
"143 -172 OFFCURVE",
"205 -124 OFFCURVE",
"205 -24 CURVE SMOOTH",
"205 700 LINE",
"77 700 LINE",
"77 4 LINE SMOOTH",
"77 -51 OFFCURVE",
"64 -76 OFFCURVE",
"24 -76 CURVE SMOOTH",
"-3 -76 LINE",
"7 -172 LINE"
);
}
);
width = 282;
}
);
unicode = 004A;
},
{
glyphname = J.sc;
lastChange = "2016-08-23 09:36:31 +0000";
layers = (
{
layerId = UUID0;
paths = (
{
closed = 1;
nodes = (
"59 -138 LINE SMOOTH",
"151 -138 OFFCURVE",
"198 -99 OFFCURVE",
"198 -22 CURVE SMOOTH",
"198 560 LINE",
"105 560 LINE",
"105 1 LINE SMOOTH",
"105 -49 OFFCURVE",
"92 -72 OFFCURVE",
"41 -72 CURVE SMOOTH",
"29 -72 LINE",
"38 -138 LINE"
);
}
);
width = 299;
},
{
layerId = "7C863538-AAB4-42AD-A9FE-7240E615272A";
paths = (
{
closed = 1;
nodes = (
"73 -143 LINE SMOOTH",
"156 -143 OFFCURVE",
"214 -104 OFFCURVE",
"214 -16 CURVE SMOOTH",
"214 581 LINE",
"91 581 LINE",
"91 6 LINE SMOOTH",
"91 -29 OFFCURVE",
"81 -45 OFFCURVE",
"57 -45 CURVE SMOOTH",
"26 -45 LINE",
"35 -143 LINE"
);
}
);
width = 308;
}
);
},
{
glyphname = K;
lastChange = "2016-08-23 09:36:31 +0000";
layers = (
{
layerId = UUID0;
paths = (
{
closed = 1;
nodes = (
"603 0 LINE",
"344 371 LINE",
"603 700 LINE",
"503 700 LINE",
"244 371 LINE",
"503 0 LINE"
);
},
{
closed = 1;
nodes = (
"205 0 LINE",
"205 700 LINE",
"110 700 LINE",
"110 0 LINE"
);
}
);
width = 641;
},
{
layerId = "7C863538-AAB4-42AD-A9FE-7240E615272A";
paths = (
{
closed = 1;
nodes = (
"618 0 LINE",
"374 370 LINE",
"618 700 LINE",
"474 700 LINE",
"230 370 LINE",
"474 0 LINE"
);
},
{
closed = 1;
nodes = (
"205 0 LINE",
"205 700 LINE",
"77 700 LINE",
"77 0 LINE"
);
}
);
width = 621;
}
);
leftKerningGroup = I;
unicode = 004B;
},
{
glyphname = K.sc;
lastChange = "2016-08-23 09:36:31 +0000";
layers = (
{
layerId = UUID0;
paths = (
{
closed = 1;
nodes = (
"549 0 LINE",
"334 296 LINE",
"549 560 LINE",
"447 560 LINE",
"232 296 LINE",
"447 0 LINE"
);
},
{
closed = 1;
nodes = (
"204 0 LINE",
"204 560 LINE",
"111 560 LINE",
"111 0 LINE"
);
}
);
width = 598;
},
{
layerId = "7C863538-AAB4-42AD-A9FE-7240E615272A";
paths = (
{
closed = 1;
nodes = (
"578 0 LINE",
"368 307 LINE",
"578 581 LINE",
"438 581 LINE",
"228 307 LINE",
"438 0 LINE"
);
},
{
closed = 1;
nodes = (
"210 0 LINE",
"210 581 LINE",
"87 581 LINE",
"87 0 LINE"
);
}
);
width = 599;
}
);
},
{
glyphname = L;
lastChange = "2016-08-23 09:36:31 +0000";
layers = (
{
layerId = UUID0;
paths = (
{
closed = 1;
nodes = (
"493 0 LINE",
"493 86 LINE",
"172 86 LINE",
"172 700 LINE",
"77 700 LINE",
"77 0 LINE"
);
}
);
width = 500;
},
{
layerId = "7C863538-AAB4-42AD-A9FE-7240E615272A";
paths = (
{
closed = 1;
nodes = (
"493 0 LINE",
"493 124 LINE",
"205 124 LINE",
"205 700 LINE",
"77 700 LINE",
"77 0 LINE"
);
}
);
width = 500;
}
);
leftKerningGroup = I;
unicode = 004C;
},
{
glyphname = L.sc;
lastChange = "2016-08-23 09:36:31 +0000";
layers = (
{
layerId = UUID0;
paths = (
{
closed = 1;
nodes = (
"449 0 LINE",
"449 88 LINE",
"188 88 LINE",
"188 560 LINE",
"95 560 LINE",
"95 0 LINE"
);
}
);
width = 485;
},
{
layerId = "7C863538-AAB4-42AD-A9FE-7240E615272A";
paths = (
{
closed = 1;
nodes = (
"464 0 LINE",
"464 120 LINE",
"221 120 LINE",
"221 581 LINE",
"98 581 LINE",
"98 0 LINE"
);
}
);
width = 500;
}
);
},
{
glyphname = M;
lastChange = "2016-08-23 09:36:31 +0000";
layers = (
{
layerId = UUID0;
paths = (
{
closed = 1;
nodes = (
"776 0 LINE",
"683 700 LINE",
"601 700 LINE",
"419 353 LINE",
"235 700 LINE",
"154 700 LINE",
"60 0 LINE",
"160 0 LINE",
"226 529 LINE",
"420 166 LINE",
"610 529 LINE",
"676 0 LINE"
);
}
);
width = 816;
},
{
layerId = "7C863538-AAB4-42AD-A9FE-7240E615272A";
paths = (
{
closed = 1;
nodes = (
"792 0 LINE",
"695 700 LINE",
"590 700 LINE",
"420 381 LINE",
"249 700 LINE",
"144 700 LINE",
"47 0 LINE",
"180 0 LINE",
"240 468 LINE",
"420 147 LINE",
"599 469 LINE",
"659 0 LINE"
);
}
);
width = 839;
}
);
unicode = 004D;
},
{
glyphname = M.sc;
lastChange = "2016-08-23 09:36:31 +0000";
layers = (
{
layerId = UUID0;
paths = (
{
closed = 1;
nodes = (
"696 0 LINE",
"615 560 LINE",
"537 560 LINE",
"387 297 LINE",
"235 560 LINE",
"157 560 LINE",
"76 0 LINE",
"174 0 LINE",
"228 392 LINE",
"387 123 LINE",
"544 392 LINE",
"598 0 LINE"
);
}
);
width = 763;
},
{
layerId = "7C863538-AAB4-42AD-A9FE-7240E615272A";
paths = (
{
closed = 1;
nodes = (
"732 0 LINE",
"645 581 LINE",
"545 581 LINE",
"400 329 LINE",
"253 581 LINE",
"153 581 LINE",
"67 0 LINE",
"195 0 LINE",
"245 361 LINE",
"399 113 LINE",
"553 362 LINE",
"604 0 LINE"
);
}
);
width = 806;
}
);
},
{
glyphname = N;
lastChange = "2016-08-23 09:36:31 +0000";
layers = (
{
layerId = UUID0;
paths = (
{
closed = 1;
nodes = (
"621 0 LINE",
"621 700 LINE",
"525 700 LINE",
"525 176 LINE",
"180 700 LINE",
"77 700 LINE",
"77 0 LINE",
"172 0 LINE",
"172 553 LINE",
"540 0 LINE"
);
}
);
width = 698;
},
{
layerId = "7C863538-AAB4-42AD-A9FE-7240E615272A";
paths = (
{
closed = 1;
nodes = (
"630 0 LINE",
"630 700 LINE",
"502 700 LINE",
"502 248 LINE",
"203 700 LINE",
"77 700 LINE",
"77 0 LINE",
"205 0 LINE",
"205 480 LINE",
"525 0 LINE"
);
}
);
width = 707;
}
);
leftKerningGroup = I;
rightKerningGroup = I;
unicode = 004E;
},
{
glyphname = N.sc;
lastChange = "2016-08-23 09:36:31 +0000";
layers = (
{
layerId = UUID0;
paths = (
{
closed = 1;
nodes = (
"561 0 LINE",
"561 560 LINE",
"467 560 LINE",
"467 178 LINE",
"191 560 LINE",
"95 560 LINE",
"95 0 LINE",
"188 0 LINE",
"188 405 LINE",
"483 0 LINE"
);
}
);
width = 656;
},
{
layerId = "7C863538-AAB4-42AD-A9FE-7240E615272A";
paths = (
{
closed = 1;
nodes = (
"588 0 LINE",
"588 581 LINE",
"465 581 LINE",
"465 238 LINE",
"216 581 LINE",
"98 581 LINE",
"98 0 LINE",
"221 0 LINE",
"221 366 LINE",
"487 0 LINE"
);
}
);
width = 686;
}
);
},
{
glyphname = O;
lastChange = "2016-08-23 09:36:31 +0000";
layers = (
{
layerId = UUID0;
paths = (
{
closed = 1;
nodes = (
"380 -14 LINE",
"580 -14 OFFCURVE",
"725 128 OFFCURVE",
"725 350 CURVE SMOOTH",
"725 572 OFFCURVE",
"580 714 OFFCURVE",
"380 714 CURVE SMOOTH",
"180 714 OFFCURVE",
"35 572 OFFCURVE",
"35 350 CURVE SMOOTH",
"35 128 OFFCURVE",
"180 -14 OFFCURVE",
"380 -14 CURVE SMOOTH"
);
},
{
closed = 1;
nodes = (
"380 628 LINE",
"540 628 OFFCURVE",
"621 505 OFFCURVE",
"621 350 CURVE SMOOTH",
"621 195 OFFCURVE",
"540 72 OFFCURVE",
"380 72 CURVE SMOOTH",
"220 72 OFFCURVE",
"139 195 OFFCURVE",
"139 350 CURVE SMOOTH",
"139 505 OFFCURVE",
"220 628 OFFCURVE",
"380 628 CURVE SMOOTH"
);
}
);
width = 760;
},
{
layerId = "7C863538-AAB4-42AD-A9FE-7240E615272A";
paths = (
{
closed = 1;
nodes = (
"380 -14 LINE",
"580 -14 OFFCURVE",
"725 130 OFFCURVE",
"725 350 CURVE SMOOTH",
"725 570 OFFCURVE",
"580 714 OFFCURVE",
"380 714 CURVE SMOOTH",
"180 714 OFFCURVE",
"35 570 OFFCURVE",
"35 350 CURVE SMOOTH",
"35 130 OFFCURVE",
"180 -14 OFFCURVE",
"380 -14 CURVE SMOOTH"
);
},
{
closed = 1;
nodes = (
"380 591 LINE",
"516 591 OFFCURVE",
"585 490 OFFCURVE",
"585 350 CURVE SMOOTH",
"585 210 OFFCURVE",
"516 109 OFFCURVE",
"380 109 CURVE SMOOTH",
"244 109 OFFCURVE",
"175 210 OFFCURVE",
"175 350 CURVE SMOOTH",
"175 490 OFFCURVE",
"244 591 OFFCURVE",
"380 591 CURVE SMOOTH"
);
}
);
width = 760;
}
);
leftKerningGroup = O;
rightKerningGroup = O;
unicode = 004F;
},
{
glyphname = O.sc;
lastChange = "2016-08-23 09:36:31 +0000";
layers = (
{
layerId = UUID0;
paths = (
{
closed = 1;
nodes = (
"353 -11 LINE",
"523 -11 OFFCURVE",
"647 103 OFFCURVE",
"647 280 CURVE SMOOTH",
"647 457 OFFCURVE",
"523 571 OFFCURVE",
"353 571 CURVE SMOOTH",
"183 571 OFFCURVE",
"60 457 OFFCURVE",
"60 280 CURVE SMOOTH",
"60 103 OFFCURVE",
"183 -11 OFFCURVE",
"353 -11 CURVE SMOOTH"
);
},
{
closed = 1;
nodes = (
"353 483 LINE",
"480 483 OFFCURVE",
"544 396 OFFCURVE",
"544 280 CURVE SMOOTH",
"544 164 OFFCURVE",
"480 77 OFFCURVE",
"353 77 CURVE SMOOTH",
"226 77 OFFCURVE",
"162 164 OFFCURVE",
"162 280 CURVE SMOOTH",
"162 396 OFFCURVE",
"226 483 OFFCURVE",
"353 483 CURVE SMOOTH"
);
}
);
width = 707;
},
{
layerId = "7C863538-AAB4-42AD-A9FE-7240E615272A";
paths = (
{
closed = 1;
nodes = (
"365 -12 LINE",
"541 -12 OFFCURVE",
"668 109 OFFCURVE",
"668 291 CURVE SMOOTH",
"668 472 OFFCURVE",
"541 593 OFFCURVE",
"365 593 CURVE SMOOTH",
"189 593 OFFCURVE",
"61 472 OFFCURVE",
"61 291 CURVE SMOOTH",
"61 109 OFFCURVE",
"189 -12 OFFCURVE",
"365 -12 CURVE SMOOTH"
);
},
{
closed = 1;
nodes = (
"365 474 LINE",
"477 474 OFFCURVE",
"533 400 OFFCURVE",
"533 291 CURVE SMOOTH",
"533 181 OFFCURVE",
"477 107 OFFCURVE",
"365 107 CURVE SMOOTH",
"253 107 OFFCURVE",
"196 181 OFFCURVE",
"196 291 CURVE SMOOTH",
"196 400 OFFCURVE",
"253 474 OFFCURVE",
"365 474 CURVE SMOOTH"
);
}
);
width = 729;
}
);
},
{
glyphname = OE;
lastChange = "2016-08-23 09:36:31 +0000";
layers = (
{
layerId = UUID0;
paths = (
{
closed = 1;
nodes = (
"1029 0 LINE",
"1029 86 LINE",
"710 86 LINE",
"710 323 LINE",
"948 323 LINE",
"948 409 LINE",
"710 409 LINE",
"710 614 LINE",
"1020 614 LINE",
"1020 699 LINE",
"619 699 LINE",
"619 617 LINE",
"525 689 OFFCURVE",
"454 714 OFFCURVE",
"373 714 CURVE SMOOTH",
"177 714 OFFCURVE",
"35 572 OFFCURVE",
"35 350 CURVE SMOOTH",
"35 128 OFFCURVE",
"177 -14 OFFCURVE",
"373 -14 CURVE SMOOTH",
"454 -14 OFFCURVE",
"525 11 OFFCURVE",
"619 83 CURVE",
"619 0 LINE"
);
},
{
closed = 1;
nodes = (
"373 628 LINE",
"532 628 OFFCURVE",
"610 507 OFFCURVE",
"610 350 CURVE SMOOTH",
"610 193 OFFCURVE",
"532 72 OFFCURVE",
"373 72 CURVE SMOOTH",
"213 72 OFFCURVE",
"135 193 OFFCURVE",
"135 350 CURVE SMOOTH",
"135 507 OFFCURVE",
"213 628 OFFCURVE",
"373 628 CURVE SMOOTH"
);
}
);
width = 1063;
},
{
layerId = "7C863538-AAB4-42AD-A9FE-7240E615272A";
paths = (
{
closed = 1;
nodes = (
"1029 0 LINE",
"1029 124 LINE",
"724 124 LINE",
"724 303 LINE",
"952 303 LINE",
"952 427 LINE",
"724 427 LINE",
"724 576 LINE",
"1020 576 LINE",
"1020 700 LINE",
"593 700 LINE",
"593 645 LINE",
"535 689 OFFCURVE",
"462 714 OFFCURVE",
"380 714 CURVE SMOOTH",
"180 714 OFFCURVE",
"35 570 OFFCURVE",
"35 350 CURVE SMOOTH",
"35 130 OFFCURVE",
"180 -14 OFFCURVE",
"380 -14 CURVE SMOOTH",
"462 -14 OFFCURVE",
"535 11 OFFCURVE",
"593 55 CURVE",
"593 0 LINE"
);
},
{
closed = 1;
nodes = (
"380 591 LINE",
"516 591 OFFCURVE",
"585 490 OFFCURVE",
"585 350 CURVE SMOOTH",
"585 210 OFFCURVE",
"516 109 OFFCURVE",
"380 109 CURVE SMOOTH",
"244 109 OFFCURVE",
"175 210 OFFCURVE",
"175 350 CURVE SMOOTH",
"175 490 OFFCURVE",
"244 591 OFFCURVE",
"380 591 CURVE SMOOTH"
);
}
);
width = 1063;
}
);
leftKerningGroup = O;
rightKerningGroup = E;
unicode = 0152;
},
{
glyphname = OE.sc;
lastChange = "2016-08-23 09:36:31 +0000";
layers = (
{
layerId = UUID0;
paths = (
{
closed = 1;
nodes = (
"905 0 LINE",
"905 88 LINE",
"639 88 LINE",
"639 248 LINE",
"838 248 LINE",
"838 336 LINE",
"639 336 LINE",
"639 472 LINE",
"897 472 LINE",
"897 560 LINE",
"546 560 LINE",
"546 508 LINE",
"480 551 OFFCURVE",
"419 571 OFFCURVE",
"350 571 CURVE SMOOTH",
"182 571 OFFCURVE",
"60 457 OFFCURVE",
"60 280 CURVE SMOOTH",
"60 103 OFFCURVE",
"182 -11 OFFCURVE",
"350 -11 CURVE SMOOTH",
"419 -11 OFFCURVE",
"480 9 OFFCURVE",
"546 52 CURVE",
"546 0 LINE"
);
},
{
closed = 1;
nodes = (
"350 483 LINE",
"476 483 OFFCURVE",
"539 397 OFFCURVE",
"539 280 CURVE SMOOTH",
"539 163 OFFCURVE",
"476 77 OFFCURVE",
"350 77 CURVE SMOOTH",
"223 77 OFFCURVE",
"160 163 OFFCURVE",
"160 280 CURVE SMOOTH",
"160 397 OFFCURVE",
"223 483 OFFCURVE",
"350 483 CURVE SMOOTH"
);
}
);
width = 964;
},
{
layerId = "7C863538-AAB4-42AD-A9FE-7240E615272A";
paths = (
{
closed = 1;
nodes = (
"936 0 LINE",
"936 120 LINE",
"672 120 LINE",
"672 243 LINE",
"869 243 LINE",
"869 362 LINE",
"672 362 LINE",
"672 461 LINE",
"928 461 LINE",
"928 581 LINE",
"544 581 LINE",
"544 548 LINE",
"504 572 OFFCURVE",
"439 593 OFFCURVE",
"367 593 CURVE SMOOTH",
"190 593 OFFCURVE",
"61 472 OFFCURVE",
"61 291 CURVE SMOOTH",
"61 109 OFFCURVE",
"190 -12 OFFCURVE",
"367 -12 CURVE SMOOTH",
"439 -12 OFFCURVE",
"504 9 OFFCURVE",
"544 33 CURVE",
"544 0 LINE"
);
},
{
closed = 1;
nodes = (
"367 474 LINE",
"479 474 OFFCURVE",
"537 399 OFFCURVE",
"537 291 CURVE SMOOTH",
"537 182 OFFCURVE",
"479 107 OFFCURVE",
"367 107 CURVE SMOOTH",
"255 107 OFFCURVE",
"197 182 OFFCURVE",
"197 291 CURVE SMOOTH",
"197 399 OFFCURVE",
"255 474 OFFCURVE",
"367 474 CURVE SMOOTH"
);
}
);
width = 996;
}
);
},
{
glyphname = Oslash;
lastChange = "2016-08-23 09:36:31 +0000";
layers = (
{
layerId = UUID0;
paths = (
{
closed = 1;
nodes = (
"379 -12 LINE",
"580 -12 OFFCURVE",
"725 129 OFFCURVE",
"725 349 CURVE SMOOTH",
"725 462 OFFCURVE",
"687 554 OFFCURVE",
"614 627 CURVE",
"675 716 LINE",
"583 716 LINE",
"552 672 LINE",
"491 702 OFFCURVE",
"438 714 OFFCURVE",
"380 714 CURVE SMOOTH",
"180 714 OFFCURVE",
"35 572 OFFCURVE",
"35 350 CURVE SMOOTH",
"35 240 OFFCURVE",
"71 150 OFFCURVE",
"141 75 CURVE",
"68 -30 LINE",
"161 -30 LINE",
"203 31 LINE",
"265 0 OFFCURVE",
"320 -12 OFFCURVE",
"379 -12 CURVE SMOOTH"
);
},
{
closed = 1;
nodes = (
"559 548 LINE",
"604 493 OFFCURVE",
"617 415 OFFCURVE",
"617 352 CURVE SMOOTH",
"617 196 OFFCURVE",
"539 76 OFFCURVE",
"380 76 CURVE SMOOTH",
"342 76 OFFCURVE",
"307 83 OFFCURVE",
"256 105 CURVE"
);
},
{
closed = 1;
nodes = (
"379 625 LINE",
"417 625 OFFCURVE",
"449 618 OFFCURVE",
"499 597 CURVE",
"198 156 LINE",
"155 231 OFFCURVE",
"143 288 OFFCURVE",
"143 349 CURVE SMOOTH",
"143 505 OFFCURVE",
"221 625 OFFCURVE",
"379 625 CURVE SMOOTH"
);
}
);
width = 760;
},
{
layerId = "7C863538-AAB4-42AD-A9FE-7240E615272A";
paths = (
{
closed = 1;
nodes = (
"380 -14 LINE",
"580 -14 OFFCURVE",
"725 130 OFFCURVE",
"725 350 CURVE SMOOTH",
"725 460 OFFCURVE",
"688 552 OFFCURVE",
"626 615 CURVE",
"695 716 LINE",
"561 716 LINE",
"536 680 LINE",
"490 702 OFFCURVE",
"437 714 OFFCURVE",
"380 714 CURVE SMOOTH",
"180 714 OFFCURVE",
"35 570 OFFCURVE",
"35 350 CURVE SMOOTH",
"35 241 OFFCURVE",
"70 151 OFFCURVE",
"130 87 CURVE",
"49 -31 LINE",
"183 -31 LINE",
"219 22 LINE",
"266 -1 OFFCURVE",
"321 -14 OFFCURVE",
"380 -14 CURVE SMOOTH"
);
},
{
closed = 1;
nodes = (
"548 502 LINE",
"573 461 OFFCURVE",
"585 409 OFFCURVE",
"585 350 CURVE SMOOTH",
"585 210 OFFCURVE",
"516 109 OFFCURVE",
"380 109 CURVE SMOOTH",
"346 109 OFFCURVE",
"316 115 OFFCURVE",
"291 126 CURVE"
);
},
{
closed = 1;
nodes = (
"380 591 LINE",
"412 591 OFFCURVE",
"440 585 OFFCURVE",
"464 575 CURVE",
"209 202 LINE",
"186 242 OFFCURVE",
"175 293 OFFCURVE",
"175 350 CURVE SMOOTH",
"175 490 OFFCURVE",
"244 591 OFFCURVE",
"380 591 CURVE SMOOTH"
);
}
);
width = 760;
}
);
leftKerningGroup = O;
rightKerningGroup = O;
unicode = 00D8;
},
{
glyphname = P;
lastChange = "2016-08-23 09:36:31 +0000";
layers = (
{
background = {
paths = (
{
closed = 1;
nodes = (
"343 245 LINE SMOOTH",
"436 245 OFFCURVE",
"559 300 OFFCURVE",
"559 482 CURVE SMOOTH",
"559 670 OFFCURVE",
"466 700 OFFCURVE",
"265 700 CURVE SMOOTH",
"77 700 LINE",
"77 0 LINE",
"177 0 LINE",
"177 245 LINE"
);
},
{
closed = 1;
nodes = (
"297 615 LINE SMOOTH",
"420 615 OFFCURVE",
"460 578 OFFCURVE",
"460 478 CURVE SMOOTH",
"460 384 OFFCURVE",
"422 330 OFFCURVE",
"325 330 CURVE SMOOTH",
"177 330 LINE",
"177 615 LINE"
);
}
);
};
layerId = UUID0;
paths = (
{
closed = 1;
nodes = (
"345 245 LINE SMOOTH",
"438 245 OFFCURVE",
"561 300 OFFCURVE",
"561 482 CURVE SMOOTH",
"561 670 OFFCURVE",
"447 700 OFFCURVE",
"317 700 CURVE SMOOTH",
"93 700 LINE",
"93 0 LINE",
"193 0 LINE",
"193 245 LINE"
);
},
{
closed = 1;
nodes = (
"299 615 LINE SMOOTH",
"422 615 OFFCURVE",
"462 578 OFFCURVE",
"462 478 CURVE SMOOTH",
"462 384 OFFCURVE",
"424 330 OFFCURVE",
"327 330 CURVE SMOOTH",
"193 330 LINE",
"193 615 LINE"
);
}
);
width = 581;
},
{
background = {
paths = (
{
closed = 1;
nodes = (
"264 230 LINE SMOOTH",
"480 230 OFFCURVE",
"575 288 OFFCURVE",
"575 478 CURVE SMOOTH",
"575 670 OFFCURVE",
"469 700 OFFCURVE",
"275 700 CURVE SMOOTH",
"77 700 LINE",
"77 0 LINE",
"205 0 LINE",
"205 230 LINE"
);
},
{
closed = 1;
nodes = (
"310 593 LINE SMOOTH",
"417 593 OFFCURVE",
"445 557 OFFCURVE",
"445 477 CURVE SMOOTH",
"445 382 OFFCURVE",
"406 350 OFFCURVE",
"313 350 CURVE SMOOTH",
"205 350 LINE",
"205 593 LINE"
);
}
);
};
layerId = "7C863538-AAB4-42AD-A9FE-7240E615272A";
paths = (
{
closed = 1;
nodes = (
"330 230 LINE SMOOTH",
"429 230 OFFCURVE",
"575 277 OFFCURVE",
"575 478 CURVE SMOOTH",
"575 670 OFFCURVE",
"469 700 OFFCURVE",
"275 700 CURVE SMOOTH",
"77 700 LINE",
"77 0 LINE",
"205 0 LINE",
"205 230 LINE"
);
},
{
closed = 1;
nodes = (
"310 593 LINE SMOOTH",
"417 593 OFFCURVE",
"445 557 OFFCURVE",
"445 477 CURVE SMOOTH",
"445 382 OFFCURVE",
"406 350 OFFCURVE",
"313 350 CURVE SMOOTH",
"205 350 LINE",
"205 593 LINE"
);
}
);
width = 597;
}
);
leftKerningGroup = I;
unicode = 0050;
},
{
glyphname = P.sc;
lastChange = "2016-08-23 09:36:32 +0000";
layers = (
{
background = {
paths = (
{
closed = 1;
nodes = (
"343 245 LINE SMOOTH",
"436 245 OFFCURVE",
"559 300 OFFCURVE",
"559 482 CURVE SMOOTH",
"559 670 OFFCURVE",
"466 700 OFFCURVE",
"265 700 CURVE SMOOTH",
"77 700 LINE",
"77 0 LINE",
"177 0 LINE",
"177 245 LINE"
);
},
{
closed = 1;
nodes = (
"297 615 LINE SMOOTH",
"420 615 OFFCURVE",
"460 578 OFFCURVE",
"460 478 CURVE SMOOTH",
"460 384 OFFCURVE",
"422 330 OFFCURVE",
"325 330 CURVE SMOOTH",
"177 330 LINE",
"177 615 LINE"
);
}
);
};
layerId = UUID0;
paths = (
{
closed = 1;
nodes = (
"318 188 LINE SMOOTH",
"399 188 OFFCURVE",
"512 228 OFFCURVE",
"512 384 CURVE SMOOTH",
"512 536 OFFCURVE",
"419 560 OFFCURVE",
"283 560 CURVE SMOOTH",
"103 560 LINE",
"103 0 LINE",
"199 0 LINE",
"199 188 LINE"
);
},
{
closed = 1;
nodes = (
"289 481 LINE SMOOTH",
"387 481 OFFCURVE",
"416 452 OFFCURVE",
"416 382 CURVE SMOOTH",
"416 306 OFFCURVE",
"384 274 OFFCURVE",
"303 274 CURVE SMOOTH",
"199 274 LINE",
"199 481 LINE"
);
}
);
width = 560;
},
{
background = {
paths = (
{
closed = 1;
nodes = (
"264 230 LINE SMOOTH",
"480 230 OFFCURVE",
"575 288 OFFCURVE",
"575 478 CURVE SMOOTH",
"575 670 OFFCURVE",
"469 700 OFFCURVE",
"275 700 CURVE SMOOTH",
"77 700 LINE",
"77 0 LINE",
"205 0 LINE",
"205 230 LINE"
);
},
{
closed = 1;
nodes = (
"310 593 LINE SMOOTH",
"417 593 OFFCURVE",
"445 557 OFFCURVE",
"445 477 CURVE SMOOTH",
"445 382 OFFCURVE",
"406 350 OFFCURVE",
"313 350 CURVE SMOOTH",
"205 350 LINE",
"205 593 LINE"
);
}
);
};
layerId = "7C863538-AAB4-42AD-A9FE-7240E615272A";
paths = (
{
closed = 1;
nodes = (
"316 184 LINE SMOOTH",
"405 184 OFFCURVE",
"541 220 OFFCURVE",
"541 395 CURVE SMOOTH",
"541 556 OFFCURVE",
"450 581 OFFCURVE",
"259 581 CURVE SMOOTH",
"93 581 LINE",
"93 0 LINE",
"215 0 LINE",
"215 184 LINE"
);
},
{
closed = 1;
nodes = (
"307 482 LINE SMOOTH",
"396 482 OFFCURVE",
"417 453 OFFCURVE",
"417 395 CURVE SMOOTH",
"417 316 OFFCURVE",
"382 299 OFFCURVE",
"301 299 CURVE SMOOTH",
"215 299 LINE",
"215 482 LINE"
);
}
);
width = 591;
}
);
},
{
glyphname = Q;
lastChange = "2016-08-23 09:36:32 +0000";
layers = (
{
layerId = UUID0;
paths = (
{
closed = 1;
nodes = (
"711 62 LINE",
"651 111 LINE",
"702 187 OFFCURVE",
"725 263 OFFCURVE",
"725 350 CURVE SMOOTH",
"725 572 OFFCURVE",
"580 714 OFFCURVE",
"380 714 CURVE SMOOTH",
"180 714 OFFCURVE",
"35 572 OFFCURVE",
"35 350 CURVE SMOOTH",
"35 128 OFFCURVE",
"180 -14 OFFCURVE",
"380 -14 CURVE SMOOTH",
"458 -14 OFFCURVE",
"528 8 OFFCURVE",
"596 57 CURVE",
"661 3 LINE"
);
},
{
closed = 1;
nodes = (
"380 628 LINE",
"542 628 OFFCURVE",
"631 506 OFFCURVE",
"631 350 CURVE SMOOTH",
"631 294 OFFCURVE",
"627 233 OFFCURVE",
"583 164 CURVE",
"478 257 LINE",
"428 196 LINE",
"531 112 LINE",
"486 79 OFFCURVE",
"425 72 OFFCURVE",
"380 72 CURVE SMOOTH",
"218 72 OFFCURVE",
"139 194 OFFCURVE",
"139 350 CURVE SMOOTH",
"139 506 OFFCURVE",
"218 628 OFFCURVE",
"380 628 CURVE SMOOTH"
);
}
);
width = 760;
},
{
layerId = "7C863538-AAB4-42AD-A9FE-7240E615272A";
paths = (
{
closed = 1;
nodes = (
"725 79 LINE",
"663 130 LINE",
"702 189 OFFCURVE",
"725 264 OFFCURVE",
"725 350 CURVE SMOOTH",
"725 570 OFFCURVE",
"580 714 OFFCURVE",
"380 714 CURVE SMOOTH",
"180 714 OFFCURVE",
"35 570 OFFCURVE",
"35 350 CURVE SMOOTH",
"35 130 OFFCURVE",
"180 -14 OFFCURVE",
"380 -14 CURVE SMOOTH",
"457 -14 OFFCURVE",
"527 7 OFFCURVE",
"582 47 CURVE",
"651 -10 LINE"
);
},
{
closed = 1;
nodes = (
"380 591 LINE",
"516 591 OFFCURVE",
"585 490 OFFCURVE",
"585 350 CURVE SMOOTH",
"585 300 OFFCURVE",
"576 255 OFFCURVE",
"558 218 CURVE",
"470 292 LINE",
"396 203 LINE",
"480 132 LINE",
"452 117 OFFCURVE",
"419 109 OFFCURVE",
"380 109 CURVE SMOOTH",
"244 109 OFFCURVE",
"175 210 OFFCURVE",
"175 350 CURVE SMOOTH",
"175 490 OFFCURVE",
"244 591 OFFCURVE",
"380 591 CURVE SMOOTH"
);
}
);
width = 760;
}
);
leftKerningGroup = O;
rightKerningGroup = O;
unicode = 0051;
},
{
glyphname = Q.sc;
lastChange = "2016-08-23 09:36:32 +0000";
layers = (
{
layerId = UUID0;
paths = (
{
closed = 1;
nodes = (
"640 58 LINE",
"588 99 LINE",
"627 151 OFFCURVE",
"647 211 OFFCURVE",
"647 280 CURVE SMOOTH",
"647 457 OFFCURVE",
"523 571 OFFCURVE",
"353 571 CURVE SMOOTH",
"183 571 OFFCURVE",
"60 457 OFFCURVE",
"60 280 CURVE SMOOTH",
"60 103 OFFCURVE",
"183 -11 OFFCURVE",
"353 -11 CURVE SMOOTH",
"419 -11 OFFCURVE",
"479 6 OFFCURVE",
"531 40 CURVE",
"588 -4 LINE"
);
},
{
closed = 1;
nodes = (
"353 483 LINE",
"481 483 OFFCURVE",
"549 397 OFFCURVE",
"549 280 CURVE SMOOTH",
"549 238 OFFCURVE",
"544 198 OFFCURVE",
"516 159 CURVE",
"433 224 LINE",
"382 160 LINE",
"462 100 LINE",
"430 83 OFFCURVE",
"389 77 OFFCURVE",
"353 77 CURVE SMOOTH",
"226 77 OFFCURVE",
"162 163 OFFCURVE",
"162 280 CURVE SMOOTH",
"162 397 OFFCURVE",
"226 483 OFFCURVE",
"353 483 CURVE SMOOTH"
);
}
);
width = 707;
},
{
layerId = "7C863538-AAB4-42AD-A9FE-7240E615272A";
paths = (
{
closed = 1;
nodes = (
"673 73 LINE",
"617 116 LINE",
"648 158 OFFCURVE",
"668 220 OFFCURVE",
"668 291 CURVE SMOOTH",
"668 472 OFFCURVE",
"541 593 OFFCURVE",
"365 593 CURVE SMOOTH",
"189 593 OFFCURVE",
"61 472 OFFCURVE",
"61 291 CURVE SMOOTH",
"61 109 OFFCURVE",
"189 -12 OFFCURVE",
"365 -12 CURVE SMOOTH",
"432 -12 OFFCURVE",
"494 5 OFFCURVE",
"538 35 CURVE",
"600 -14 LINE"
);
},
{
closed = 1;
nodes = (
"365 474 LINE",
"476 474 OFFCURVE",
"530 400 OFFCURVE",
"530 291 CURVE SMOOTH",
"530 252 OFFCURVE",
"521 222 OFFCURVE",
"513 205 CURVE",
"441 258 LINE",
"368 172 LINE",
"436 119 LINE",
"417 114 OFFCURVE",
"397 107 OFFCURVE",
"365 107 CURVE SMOOTH",
"253 107 OFFCURVE",
"196 181 OFFCURVE",
"196 291 CURVE SMOOTH",
"196 400 OFFCURVE",
"253 474 OFFCURVE",
"365 474 CURVE SMOOTH"
);
}
);
width = 729;
}
);
},
{
glyphname = R;
lastChange = "2016-08-23 09:36:32 +0000";
layers = (
{
layerId = UUID0;
paths = (
{
closed = 1;
nodes = (
"594 0 LINE",
"431 298 LINE",
"512 336 OFFCURVE",
"559 409 OFFCURVE",
"559 495 CURVE SMOOTH",
"559 652 OFFCURVE",
"463 700 OFFCURVE",
"317 700 CURVE SMOOTH",
"90 700 LINE",
"90 0 LINE",
"190 0 LINE",
"190 273 LINE",
"337 273 LINE",
"492 0 LINE"
);
},
{
closed = 1;
nodes = (
"316 623 LINE SMOOTH",
"411 623 OFFCURVE",
"460 576 OFFCURVE",
"460 495 CURVE SMOOTH",
"460 397 OFFCURVE",
"393 365 OFFCURVE",
"341 365 CURVE SMOOTH",
"190 365 LINE",
"190 623 LINE"
);
}
);
width = 630;
},
{
layerId = "7C863538-AAB4-42AD-A9FE-7240E615272A";
paths = (
{
closed = 1;
nodes = (
"613 0 LINE",
"455 294 LINE",
"521 335 OFFCURVE",
"574 390 OFFCURVE",
"574 498 CURVE SMOOTH",
"574 650 OFFCURVE",
"468 700 OFFCURVE",
"333 700 CURVE SMOOTH",
"77 700 LINE",
"77 0 LINE",
"205 0 LINE",
"205 260 LINE",
"335 260 LINE",
"480 0 LINE"
);
},
{
closed = 1;
nodes = (
"304 593 LINE SMOOTH",
"414 593 OFFCURVE",
"440 554 OFFCURVE",
"440 489 CURVE SMOOTH",
"440 426 OFFCURVE",
"415 380 OFFCURVE",
"299 380 CURVE SMOOTH",
"205 380 LINE",
"205 593 LINE"
);
}
);
width = 626;
}
);
leftKerningGroup = I;
unicode = 0052;
},
{
glyphname = R.sc;
lastChange = "2016-08-23 09:36:32 +0000";
layers = (
{
layerId = UUID0;
paths = (
{
closed = 1;
nodes = (
"542 0 LINE",
"405 236 LINE",
"468 268 OFFCURVE",
"510 317 OFFCURVE",
"510 398 CURVE SMOOTH",
"510 521 OFFCURVE",
"425 560 OFFCURVE",
"305 560 CURVE SMOOTH",
"101 560 LINE",
"101 0 LINE",
"197 0 LINE",
"197 212 LINE",
"315 212 LINE",
"443 0 LINE"
);
},
{
closed = 1;
nodes = (
"293 483 LINE SMOOTH",
"380 483 OFFCURVE",
"413 450 OFFCURVE",
"413 393 CURVE SMOOTH",
"413 332 OFFCURVE",
"372 300 OFFCURVE",
"303 300 CURVE SMOOTH",
"197 300 LINE",
"197 483 LINE"
);
}
);
width = 594;
},
{
layerId = "7C863538-AAB4-42AD-A9FE-7240E615272A";
paths = (
{
closed = 1;
nodes = (
"576 0 LINE",
"438 242 LINE",
"492 278 OFFCURVE",
"540 315 OFFCURVE",
"540 415 CURVE SMOOTH",
"540 539 OFFCURVE",
"444 581 OFFCURVE",
"329 581 CURVE SMOOTH",
"94 581 LINE",
"94 0 LINE",
"216 0 LINE",
"216 210 LINE",
"325 210 LINE",
"449 0 LINE"
);
},
{
closed = 1;
nodes = (
"294 479 LINE SMOOTH",
"396 479 OFFCURVE",
"411 450 OFFCURVE",
"411 403 CURVE SMOOTH",
"411 367 OFFCURVE",
"403 322 OFFCURVE",
"280 322 CURVE SMOOTH",
"216 322 LINE",
"216 479 LINE"
);
}
);
width = 610;
}
);
},
{
glyphname = S;
lastChange = "2016-08-23 09:36:32 +0000";
layers = (
{
layerId = UUID0;
paths = (
{
closed = 1;
nodes = (
"278 -14 LINE",
"520 -14 OFFCURVE",
"551 107 OFFCURVE",
"551 181 CURVE SMOOTH",
"551 333 OFFCURVE",
"416 370 OFFCURVE",
"293 408 CURVE SMOOTH",
"209 434 OFFCURVE",
"142 460 OFFCURVE",
"142 525 CURVE SMOOTH",
"142 598 OFFCURVE",
"227 628 OFFCURVE",
"299 628 CURVE SMOOTH",
"369 628 OFFCURVE",
"432 599 OFFCURVE",
"500 565 CURVE",
"510 666 LINE",
"470 688 OFFCURVE",
"381 714 OFFCURVE",
"290 714 CURVE SMOOTH",
"98 714 OFFCURVE",
"38 599 OFFCURVE",
"38 512 CURVE SMOOTH",
"38 392 OFFCURVE",
"150 358 OFFCURVE",
"266 321 CURVE SMOOTH",
"367 289 OFFCURVE",
"447 259 OFFCURVE",
"447 180 CURVE SMOOTH",
"447 101 OFFCURVE",
"366 72 OFFCURVE",
"280 72 CURVE SMOOTH",
"185 72 OFFCURVE",
"108 108 OFFCURVE",
"62 142 CURVE",
"49 31 LINE",
"92 8 OFFCURVE",
"175 -14 OFFCURVE",
"278 -14 CURVE SMOOTH"
);
}
);
width = 580;
},
{
layerId = "7C863538-AAB4-42AD-A9FE-7240E615272A";
paths = (
{
closed = 1;
nodes = (
"280 -14 LINE",
"516 -14 OFFCURVE",
"551 110 OFFCURVE",
"551 190 CURVE SMOOTH",
"551 344 OFFCURVE",
"418 384 OFFCURVE",
"309 417 CURVE SMOOTH",
"233 440 OFFCURVE",
"168 462 OFFCURVE",
"168 518 CURVE SMOOTH",
"168 578 OFFCURVE",
"242 592 OFFCURVE",
"296 592 CURVE SMOOTH",
"363 592 OFFCURVE",
"426 570 OFFCURVE",
"501 529 CURVE",
"514 660 LINE",
"478 684 OFFCURVE",
"387 714 OFFCURVE",
"291 714 CURVE SMOOTH",
"102 714 OFFCURVE",
"38 597 OFFCURVE",
"38 504 CURVE SMOOTH",
"38 379 OFFCURVE",
"146 344 OFFCURVE",
"245 310 CURVE SMOOTH",
"330 281 OFFCURVE",
"408 256 OFFCURVE",
"408 185 CURVE SMOOTH",
"408 128 OFFCURVE",
"358 109 OFFCURVE",
"283 109 CURVE SMOOTH",
"178 109 OFFCURVE",
"101 146 OFFCURVE",
"63 183 CURVE",
"48 37 LINE",
"88 11 OFFCURVE",
"174 -14 OFFCURVE",
"280 -14 CURVE SMOOTH"
);
}
);
width = 580;
}
);
leftKerningGroup = S;
rightKerningGroup = S;
unicode = 0053;
},
{
glyphname = S.sc;
lastChange = "2016-08-23 09:36:32 +0000";
layers = (
{
layerId = UUID0;
paths = (
{
closed = 1;
nodes = (
"267 -11 LINE",
"470 -11 OFFCURVE",
"498 87 OFFCURVE",
"498 149 CURVE SMOOTH",
"498 272 OFFCURVE",
"384 303 OFFCURVE",
"285 331 CURVE SMOOTH",
"217 350 OFFCURVE",
"160 369 OFFCURVE",
"160 416 CURVE SMOOTH",
"160 468 OFFCURVE",
"228 484 OFFCURVE",
"283 484 CURVE SMOOTH",
"341 484 OFFCURVE",
"395 464 OFFCURVE",
"455 434 CURVE",
"465 530 LINE",
"432 548 OFFCURVE",
"356 571 OFFCURVE",
"277 571 CURVE SMOOTH",
"115 571 OFFCURVE",
"62 478 OFFCURVE",
"62 406 CURVE SMOOTH",
"62 307 OFFCURVE",
"156 279 OFFCURVE",
"248 251 CURVE SMOOTH",
"328 227 OFFCURVE",
"395 206 OFFCURVE",
"395 147 CURVE SMOOTH",
"395 95 OFFCURVE",
"338 77 OFFCURVE",
"269 77 CURVE SMOOTH",
"184 77 OFFCURVE",
"119 106 OFFCURVE",
"83 135 CURVE",
"71 28 LINE",
"106 8 OFFCURVE",
"178 -11 OFFCURVE",
"267 -11 CURVE SMOOTH"
);
}
);
width = 553;
},
{
layerId = "7C863538-AAB4-42AD-A9FE-7240E615272A";
paths = (
{
closed = 1;
nodes = (
"277 -12 LINE",
"482 -12 OFFCURVE",
"514 93 OFFCURVE",
"514 162 CURVE SMOOTH",
"514 290 OFFCURVE",
"398 325 OFFCURVE",
"307 350 CURVE SMOOTH",
"243 368 OFFCURVE",
"186 384 OFFCURVE",
"186 427 CURVE SMOOTH",
"186 471 OFFCURVE",
"247 475 OFFCURVE",
"289 475 CURVE SMOOTH",
"347 475 OFFCURVE",
"403 460 OFFCURVE",
"471 423 CURVE",
"483 545 LINE",
"453 566 OFFCURVE",
"372 593 OFFCURVE",
"286 593 CURVE SMOOTH",
"121 593 OFFCURVE",
"63 495 OFFCURVE",
"63 415 CURVE SMOOTH",
"63 309 OFFCURVE",
"156 279 OFFCURVE",
"238 252 CURVE SMOOTH",
"308 229 OFFCURVE",
"376 211 OFFCURVE",
"376 156 CURVE SMOOTH",
"376 118 OFFCURVE",
"342 107 OFFCURVE",
"280 107 CURVE SMOOTH",
"184 107 OFFCURVE",
"116 138 OFFCURVE",
"85 170 CURVE",
"71 33 LINE",
"106 10 OFFCURVE",
"182 -12 OFFCURVE",
"277 -12 CURVE SMOOTH"
);
}
);
width = 570;
}
);
},
{
glyphname = T;
lastChange = "2016-08-23 09:36:32 +0000";
layers = (
{
layerId = UUID0;
paths = (
{
closed = 1;
nodes = (
"528 614 LINE",
"528 700 LINE",
"25 700 LINE",
"25 614 LINE",
"229 614 LINE",
"229 0 LINE",
"324 0 LINE",
"324 614 LINE"
);
}
);
width = 554;
},
{
layerId = "7C863538-AAB4-42AD-A9FE-7240E615272A";
paths = (
{
closed = 1;
nodes = (
"539 576 LINE",
"539 700 LINE",
"15 700 LINE",
"15 576 LINE",
"213 576 LINE",
"213 0 LINE",
"341 0 LINE",
"341 576 LINE"
);
}
);
width = 554;
}
);
unicode = 0054;
},
{
glyphname = T.sc;
lastChange = "2016-08-23 09:36:32 +0000";
layers = (
{
layerId = UUID0;
paths = (
{
closed = 1;
nodes = (
"483 472 LINE",
"483 560 LINE",
"47 560 LINE",
"47 472 LINE",
"218 472 LINE",
"218 0 LINE",
"312 0 LINE",
"312 472 LINE"
);
}
);
width = 531;
},
{
layerId = "7C863538-AAB4-42AD-A9FE-7240E615272A";
paths = (
{
closed = 1;
nodes = (
"508 461 LINE",
"508 581 LINE",
"40 581 LINE",
"40 461 LINE",
"212 461 LINE",
"212 0 LINE",
"336 0 LINE",
"336 461 LINE"
);
}
);
width = 548;
}
);
},
{
glyphname = Thorn;
lastChange = "2016-08-23 09:36:32 +0000";
layers = (
{
layerId = UUID0;
paths = (
{
closed = 1;
nodes = (
"245 206 LINE SMOOTH",
"460 206 OFFCURVE",
"547 254 OFFCURVE",
"547 392 CURVE SMOOTH",
"547 534 OFFCURVE",
"455 560 OFFCURVE",
"245 560 CURVE SMOOTH",
"177 560 LINE",
"177 700 LINE",
"77 700 LINE",
"77 0 LINE",
"177 0 LINE",
"177 206 LINE"
);
},
{
closed = 1;
nodes = (
"281 503 LINE SMOOTH",
"399 503 OFFCURVE",
"452 471 OFFCURVE",
"452 385 CURVE SMOOTH",
"452 304 OFFCURVE",
"400 261 OFFCURVE",
"281 261 CURVE SMOOTH",
"177 261 LINE",
"177 503 LINE"
);
}
);
width = 564;
},
{
layerId = "7C863538-AAB4-42AD-A9FE-7240E615272A";
paths = (
{
closed = 1;
nodes = (
"251 193 LINE SMOOTH",
"447 193 OFFCURVE",
"547 239 OFFCURVE",
"547 389 CURVE SMOOTH",
"547 545 OFFCURVE",
"439 569 OFFCURVE",
"251 569 CURVE SMOOTH",
"205 569 LINE",
"205 700 LINE",
"77 700 LINE",
"77 0 LINE",
"205 0 LINE",
"205 193 LINE"
);
},
{
closed = 1;
nodes = (
"284 471 LINE SMOOTH",
"387 471 OFFCURVE",
"417 445 OFFCURVE",
"417 383 CURVE SMOOTH",
"417 324 OFFCURVE",
"385 289 OFFCURVE",
"284 289 CURVE SMOOTH",
"205 289 LINE",
"205 471 LINE"
);
}
);
width = 564;
}
);
leftKerningGroup = I;
unicode = 00DE;
},
{
glyphname = U;
lastChange = "2016-08-23 09:36:32 +0000";
layers = (
{
layerId = UUID0;
paths = (
{
closed = 1;
nodes = (
"359 -14 LINE",
"556 -14 OFFCURVE",
"649 105 OFFCURVE",
"649 297 CURVE SMOOTH",
"649 700 LINE",
"554 700 LINE",
"554 343 LINE SMOOTH",
"554 206 OFFCURVE",
"525 72 OFFCURVE",
"359 72 CURVE SMOOTH",
"193 72 OFFCURVE",
"164 205 OFFCURVE",
"164 343 CURVE SMOOTH",
"164 700 LINE",
"69 700 LINE",
"69 297 LINE SMOOTH",
"69 105 OFFCURVE",
"162 -14 OFFCURVE",
"359 -14 CURVE SMOOTH"
);
}
);
width = 718;
},
{
layerId = "7C863538-AAB4-42AD-A9FE-7240E615272A";
paths = (
{
closed = 1;
nodes = (
"359 -14 LINE",
"556 -14 OFFCURVE",
"649 110 OFFCURVE",
"649 300 CURVE SMOOTH",
"649 700 LINE",
"521 700 LINE",
"521 343 LINE SMOOTH",
"521 213 OFFCURVE",
"494 109 OFFCURVE",
"359 109 CURVE SMOOTH",
"224 109 OFFCURVE",
"197 213 OFFCURVE",
"197 343 CURVE SMOOTH",
"197 700 LINE",
"69 700 LINE",
"69 300 LINE SMOOTH",
"69 110 OFFCURVE",
"162 -14 OFFCURVE",
"359 -14 CURVE SMOOTH"
);
}
);
width = 718;
}
);
leftKerningGroup = U;
rightKerningGroup = U;
unicode = 0055;
},
{
glyphname = U.sc;
lastChange = "2016-08-23 09:36:32 +0000";
layers = (
{
layerId = UUID0;
paths = (
{
closed = 1;
nodes = (
"336 -11 LINE",
"503 -11 OFFCURVE",
"582 87 OFFCURVE",
"582 239 CURVE SMOOTH",
"582 560 LINE",
"489 560 LINE",
"489 274 LINE SMOOTH",
"489 168 OFFCURVE",
"465 77 OFFCURVE",
"336 77 CURVE SMOOTH",
"206 77 OFFCURVE",
"182 168 OFFCURVE",
"182 274 CURVE SMOOTH",
"182 560 LINE",
"89 560 LINE",
"89 239 LINE SMOOTH",
"89 87 OFFCURVE",
"168 -11 OFFCURVE",
"336 -11 CURVE SMOOTH"
);
}
);
width = 671;
},
{
layerId = "7C863538-AAB4-42AD-A9FE-7240E615272A";
paths = (
{
closed = 1;
nodes = (
"346 -12 LINE",
"520 -12 OFFCURVE",
"601 94 OFFCURVE",
"601 250 CURVE SMOOTH",
"601 581 LINE",
"478 581 LINE",
"478 285 LINE SMOOTH",
"478 180 OFFCURVE",
"455 107 OFFCURVE",
"346 107 CURVE SMOOTH",
"237 107 OFFCURVE",
"214 180 OFFCURVE",
"214 285 CURVE SMOOTH",
"214 581 LINE",
"91 581 LINE",
"91 250 LINE SMOOTH",
"91 94 OFFCURVE",
"173 -12 OFFCURVE",
"346 -12 CURVE SMOOTH"
);
}
);
width = 692;
}
);
},
{
glyphname = V;
lastChange = "2016-08-23 09:36:32 +0000";
layers = (
{
layerId = UUID0;
paths = (
{
closed = 1;
nodes = (
"647 700 LINE",
"547 700 LINE",
"330 109 LINE",
"111 700 LINE",
"11 700 LINE",
"279 0 LINE",
"379 0 LINE"
);
}
);
width = 659;
},
{
layerId = "7C863538-AAB4-42AD-A9FE-7240E615272A";
paths = (
{
closed = 1;
nodes = (
"655 700 LINE",
"523 700 LINE",
"330 169 LINE",
"134 700 LINE",
"1 700 LINE",
"253 0 LINE",
"409 0 LINE"
);
}
);
width = 658;
}
);
unicode = 0056;
},
{
glyphname = V.sc;
lastChange = "2016-08-23 09:36:32 +0000";
layers = (
{
layerId = UUID0;
paths = (
{
closed = 1;
nodes = (
"583 560 LINE",
"485 560 LINE",
"310 118 LINE",
"133 560 LINE",
"35 560 LINE",
"257 0 LINE",
"363 0 LINE"
);
}
);
width = 620;
},
{
layerId = "7C863538-AAB4-42AD-A9FE-7240E615272A";
paths = (
{
closed = 1;
nodes = (
"609 581 LINE",
"483 581 LINE",
"321 167 LINE",
"156 581 LINE",
"28 581 LINE",
"245 0 LINE",
"400 0 LINE"
);
}
);
width = 639;
}
);
},
{
glyphname = W;
lastChange = "2016-08-23 09:36:32 +0000";
layers = (
{
layerId = UUID0;
paths = (
{
closed = 1;
nodes = (
"958 700 LINE",
"858 700 LINE",
"704 109 LINE",
"527 686 LINE",
"441 686 LINE",
"266 108 LINE",
"111 700 LINE",
"11 700 LINE",
"207 0 LINE",
"312 0 LINE",
"483 574 LINE",
"648 0 LINE",
"753 0 LINE"
);
}
);
width = 961;
},
{
layerId = "7C863538-AAB4-42AD-A9FE-7240E615272A";
paths = (
{
closed = 1;
nodes = (
"958 700 LINE",
"825 700 LINE",
"691 216 LINE",
"529 700 LINE",
"440 700 LINE",
"284 203 LINE",
"144 700 LINE",
"11 700 LINE",
"208 0 LINE",
"329 0 LINE",
"484 467 LINE",
"640 0 LINE",
"753 0 LINE"
);
}
);
width = 965;
}
);
unicode = 0057;
},
{
glyphname = W.sc;
lastChange = "2016-08-23 09:36:32 +0000";
layers = (
{
layerId = UUID0;
paths = (
{
closed = 1;
nodes = (
"844 560 LINE",
"746 560 LINE",
"623 142 LINE",
"478 556 LINE",
"404 556 LINE",
"263 135 LINE",
"137 560 LINE",
"39 560 LINE",
"206 0 LINE",
"301 0 LINE",
"441 404 LINE",
"577 0 LINE",
"670 0 LINE"
);
}
);
width = 878;
},
{
layerId = "7C863538-AAB4-42AD-A9FE-7240E615272A";
paths = (
{
closed = 1;
nodes = (
"873 581 LINE",
"746 581 LINE",
"634 227 LINE",
"496 587 LINE",
"417 587 LINE",
"286 211 LINE",
"168 581 LINE",
"40 581 LINE",
"214 0 LINE",
"325 0 LINE",
"457 340 LINE",
"591 0 LINE",
"693 0 LINE"
);
}
);
width = 910;
}
);
},
{
glyphname = X;
lastChange = "2016-08-23 09:36:32 +0000";
layers = (
{
layerId = UUID0;
paths = (
{
closed = 1;
nodes = (
"607 0 LINE",
"356 361 LINE",
"606 700 LINE",
"506 700 LINE",
"312 427 LINE",
"132 700 LINE",
"22 700 LINE",
"257 349 LINE",
"22 0 LINE",
"122 0 LINE",
"305 286 LINE",
"507 0 LINE"
);
}
);
width = 650;
},
{
layerId = "7C863538-AAB4-42AD-A9FE-7240E615272A";
paths = (
{
closed = 1;
nodes = (
"624 0 LINE",
"380 363 LINE",
"610 700 LINE",
"463 700 LINE",
"315 454 LINE",
"153 700 LINE",
"5 700 LINE",
"241 349 LINE",
"-6 0 LINE",
"141 0 LINE",
"306 257 LINE",
"476 0 LINE"
);
}
);
width = 617;
}
);
unicode = 0058;
},
{
glyphname = X.sc;
lastChange = "2016-08-23 09:36:32 +0000";
layers = (
{
layerId = UUID0;
paths = (
{
closed = 1;
nodes = (
"553 0 LINE",
"342 290 LINE",
"547 560 LINE",
"444 560 LINE",
"296 355 LINE",
"150 560 LINE",
"42 560 LINE",
"242 279 LINE",
"38 0 LINE",
"141 0 LINE",
"290 214 LINE",
"449 0 LINE"
);
}
);
width = 600;
},
{
layerId = "7C863538-AAB4-42AD-A9FE-7240E615272A";
paths = (
{
closed = 1;
nodes = (
"585 0 LINE",
"372 302 LINE",
"568 581 LINE",
"424 581 LINE",
"308 389 LINE",
"172 581 LINE",
"29 581 LINE",
"237 290 LINE",
"16 0 LINE",
"160 0 LINE",
"300 200 LINE",
"439 0 LINE"
);
}
);
width = 593;
}
);
},
{
glyphname = Y;
lastChange = "2016-08-23 09:36:32 +0000";
layers = (
{
layerId = UUID0;
paths = (
{
closed = 1;
nodes = (
"579 700 LINE",
"479 700 LINE",
"293 409 LINE",
"107 700 LINE",
"7 700 LINE",
"244 323 LINE",
"244 0 LINE",
"343 0 LINE",
"343 323 LINE"
);
}
);
width = 612;
},
{
layerId = "7C863538-AAB4-42AD-A9FE-7240E615272A";
paths = (
{
closed = 1;
nodes = (
"599 700 LINE",
"463 700 LINE",
"293 424 LINE",
"123 700 LINE",
"-13 700 LINE",
"229 310 LINE",
"229 0 LINE",
"357 0 LINE",
"357 310 LINE"
);
}
);
width = 586;
}
);
leftKerningGroup = Y;
rightKerningGroup = Y;
unicode = 0059;
},
{
glyphname = Y.sc;
lastChange = "2016-08-23 09:36:32 +0000";
layers = (
{
layerId = UUID0;
paths = (
{
closed = 1;
nodes = (
"530 560 LINE",
"431 560 LINE",
"279 335 LINE",
"127 560 LINE",
"28 560 LINE",
"231 252 LINE",
"231 0 LINE",
"327 0 LINE",
"327 252 LINE"
);
}
);
width = 570;
},
{
layerId = "7C863538-AAB4-42AD-A9FE-7240E615272A";
paths = (
{
closed = 1;
nodes = (
"563 581 LINE",
"432 581 LINE",
"288 359 LINE",
"143 581 LINE",
"12 581 LINE",
"227 251 LINE",
"227 0 LINE",
"348 0 LINE",
"348 251 LINE"
);
}
);
width = 567;
}
);
},
{
glyphname = Z;
lastChange = "2016-08-23 09:36:32 +0000";
layers = (
{
layerId = UUID0;
paths = (
{
closed = 1;
nodes = (
"541 700 LINE",
"53 700 LINE",
"53 614 LINE",
"384 614 LINE",
"8 0 LINE",
"496 0 LINE",
"496 86 LINE",
"164 86 LINE"
);
}
);
width = 566;
},
{
layerId = "7C863538-AAB4-42AD-A9FE-7240E615272A";
paths = (
{
closed = 1;
nodes = (
"541 700 LINE",
"53 700 LINE",
"53 576 LINE",
"330 576 LINE",
"8 0 LINE",
"496 0 LINE",
"496 124 LINE",
"219 124 LINE"
);
}
);
width = 547;
}
);
leftKerningGroup = Z;
rightKerningGroup = Z;
unicode = 005A;
},
{
glyphname = Z.sc;
lastChange = "2016-08-23 09:36:32 +0000";
layers = (
{
layerId = UUID0;
paths = (
{
closed = 1;
nodes = (
"490 560 LINE",
"75 560 LINE",
"75 472 LINE",
"336 472 LINE",
"37 0 LINE",
"452 0 LINE",
"452 88 LINE",
"191 88 LINE"
);
}
);
width = 534;
},
{
layerId = "7C863538-AAB4-42AD-A9FE-7240E615272A";
paths = (
{
closed = 1;
nodes = (
"506 581 LINE",
"77 581 LINE",
"77 461 LINE",
"303 461 LINE",
"37 0 LINE",
"466 0 LINE",
"466 120 LINE",
"240 120 LINE"
);
}
);
width = 535;
}
);
},
{
glyphname = a;
lastChange = "2016-08-23 09:36:32 +0000";
layers = (
{
layerId = UUID0;
paths = (
{
closed = 1;
nodes = (
"481 62 LINE",
"472 62 LINE SMOOTH",
"420 62 OFFCURVE",
"416 95 OFFCURVE",
"416 165 CURVE SMOOTH",
"416 265 LINE SMOOTH",
"416 442 OFFCURVE",
"367 500 OFFCURVE",
"243 500 CURVE SMOOTH",
"178 500 OFFCURVE",
"116 479 OFFCURVE",
"77 449 CURVE",
"90 376 LINE",
"142 412 OFFCURVE",
"182 420 OFFCURVE",
"219 420 CURVE SMOOTH",
"288 420 OFFCURVE",
"326 400 OFFCURVE",
"326 307 CURVE",
"201 305 OFFCURVE",
"33 270 OFFCURVE",
"33 132 CURVE SMOOTH",
"33 50 OFFCURVE",
"93 -10 OFFCURVE",
"184 -10 CURVE SMOOTH",
"247 -10 OFFCURVE",
"297 19 OFFCURVE",
"334 62 CURVE",
"354 16 OFFCURVE",
"373 -10 OFFCURVE",
"460 -10 CURVE SMOOTH",
"467 -10 LINE"
);
},
{
closed = 1;
nodes = (
"326 128 LINE",
"297 88 OFFCURVE",
"249 62 OFFCURVE",
"201 62 CURVE SMOOTH",
"156 62 OFFCURVE",
"125 84 OFFCURVE",
"125 137 CURVE SMOOTH",
"125 210 OFFCURVE",
"183 240 OFFCURVE",
"326 245 CURVE"
);
}
);
width = 509;
},
{
layerId = "7C863538-AAB4-42AD-A9FE-7240E615272A";
paths = (
{
closed = 1;
nodes = (
"486 92 LINE",
"470 92 LINE SMOOTH",
"434 92 OFFCURVE",
"426 97 OFFCURVE",
"426 172 CURVE SMOOTH",
"426 307 LINE SMOOTH",
"426 452 OFFCURVE",
"357 508 OFFCURVE",
"245 508 CURVE SMOOTH",
"183 508 OFFCURVE",
"123 493 OFFCURVE",
"63 464 CURVE",
"74 363 LINE",
"127 389 OFFCURVE",
"166 401 OFFCURVE",
"211 401 CURVE SMOOTH",
"275 401 OFFCURVE",
"298 376 OFFCURVE",
"301 319 CURVE",
"207 316 OFFCURVE",
"20 281 OFFCURVE",
"20 140 CURVE SMOOTH",
"20 45 OFFCURVE",
"85 -10 OFFCURVE",
"165 -10 CURVE SMOOTH",
"225 -10 OFFCURVE",
"285 11 OFFCURVE",
"318 48 CURVE",
"337 13 OFFCURVE",
"374 -10 OFFCURVE",
"430 -10 CURVE SMOOTH",
"475 -10 LINE"
);
},
{
closed = 1;
nodes = (
"302 121 LINE",
"276 96 OFFCURVE",
"239 85 OFFCURVE",
"217 85 CURVE SMOOTH",
"170 85 OFFCURVE",
"150 104 OFFCURVE",
"150 145 CURVE SMOOTH",
"150 204 OFFCURVE",
"232 232 OFFCURVE",
"302 235 CURVE"
);
}
);
width = 498;
}
);
leftKerningGroup = a;
rightKerningGroup = a;
unicode = 0061;
},
{
glyphname = acute;
lastChange = "2016-08-23 09:36:32 +0000";
layers = (
{
layerId = UUID0;
paths = (
{
closed = 1;
nodes = (
"245 660 LINE",
"245 732 LINE",
"58 637 LINE",
"58 596 LINE"
);
}
);
width = 303;
},
{
layerId = "7C863538-AAB4-42AD-A9FE-7240E615272A";
paths = (
{
closed = 1;
nodes = (
"245 646 LINE",
"245 750 LINE",
"58 659 LINE",
"58 585 LINE"
);
}
);
width = 303;
}
);
unicode = 00B4;
},
{
glyphname = ae;
lastChange = "2016-08-23 09:36:32 +0000";
layers = (
{
layerId = UUID0;
paths = (
{
closed = 1;
nodes = (
"762 245 LINE",
"764 261 OFFCURVE",
"766 279 OFFCURVE",
"766 300 CURVE SMOOTH",
"766 429 OFFCURVE",
"689 500 OFFCURVE",
"575 500 CURVE SMOOTH",
"499 500 OFFCURVE",
"417 469 OFFCURVE",
"388 380 CURVE",
"370 481 OFFCURVE",
"275 500 OFFCURVE",
"229 500 CURVE SMOOTH",
"183 500 OFFCURVE",
"129 487 OFFCURVE",
"73 461 CURVE",
"81 391 LINE",
"125 410 OFFCURVE",
"161 420 OFFCURVE",
"203 420 CURVE SMOOTH",
"278 420 OFFCURVE",
"309 387 OFFCURVE",
"321 307 CURVE",
"200 301 OFFCURVE",
"20 270 OFFCURVE",
"20 118 CURVE SMOOTH",
"20 38 OFFCURVE",
"69 -14 OFFCURVE",
"170 -14 CURVE SMOOTH",
"262 -14 OFFCURVE",
"343 25 OFFCURVE",
"378 103 CURVE",
"415 22 OFFCURVE",
"485 -10 OFFCURVE",
"579 -10 CURVE SMOOTH",
"645 -10 OFFCURVE",
"693 8 OFFCURVE",
"742 30 CURVE",
"725 99 LINE",
"671 76 OFFCURVE",
"639 62 OFFCURVE",
"591 62 CURVE SMOOTH",
"495 62 OFFCURVE",
"426 122 OFFCURVE",
"426 245 CURVE"
);
},
{
closed = 1;
nodes = (
"571 420 LINE SMOOTH",
"640 420 OFFCURVE",
"680 386 OFFCURVE",
"680 307 CURVE",
"434 307 LINE",
"455 387 OFFCURVE",
"503 420 OFFCURVE",
"571 420 CURVE SMOOTH"
);
},
{
closed = 1;
nodes = (
"329 245 LINE",
"331 227 OFFCURVE",
"331 211 OFFCURVE",
"331 198 CURVE SMOOTH",
"331 97 OFFCURVE",
"254 62 OFFCURVE",
"190 62 CURVE SMOOTH",
"146 62 OFFCURVE",
"112 79 OFFCURVE",
"112 126 CURVE SMOOTH",
"112 215 OFFCURVE",
"236 245 OFFCURVE",
"329 245 CURVE"
);
}
);
width = 794;
},
{
layerId = "7C863538-AAB4-42AD-A9FE-7240E615272A";
paths = (
{
closed = 1;
nodes = (
"758 223 LINE",
"763 247 OFFCURVE",
"766 268 OFFCURVE",
"766 293 CURVE SMOOTH",
"766 424 OFFCURVE",
"684 508 OFFCURVE",
"568 508 CURVE SMOOTH",
"482 508 OFFCURVE",
"411 462 OFFCURVE",
"395 419 CURVE",
"371 488 OFFCURVE",
"320 508 OFFCURVE",
"244 508 CURVE SMOOTH",
"184 508 OFFCURVE",
"123 493 OFFCURVE",
"63 464 CURVE",
"74 363 LINE",
"127 389 OFFCURVE",
"166 401 OFFCURVE",
"211 401 CURVE SMOOTH",
"277 401 OFFCURVE",
"299 375 OFFCURVE",
"302 314 CURVE",
"203 309 OFFCURVE",
"20 281 OFFCURVE",
"20 127 CURVE SMOOTH",
"20 40 OFFCURVE",
"79 -15 OFFCURVE",
"184 -15 CURVE SMOOTH",
"277 -15 OFFCURVE",
"334 28 OFFCURVE",
"378 84 CURVE",
"409 28 OFFCURVE",
"477 -10 OFFCURVE",
"578 -10 CURVE SMOOTH",
"648 -10 OFFCURVE",
"706 8 OFFCURVE",
"744 28 CURVE",
"738 133 LINE",
"697 111 OFFCURVE",
"631 92 OFFCURVE",
"584 92 CURVE SMOOTH",
"518 92 OFFCURVE",
"455 130 OFFCURVE",
"441 223 CURVE"
);
},
{
closed = 1;
nodes = (
"564 406 LINE SMOOTH",
"633 406 OFFCURVE",
"655 352 OFFCURVE",
"655 307 CURVE",
"444 307 LINE",
"456 365 OFFCURVE",
"503 406 OFFCURVE",
"564 406 CURVE SMOOTH"
);
},
{
closed = 1;
nodes = (
"310 230 LINE",
"311 219 OFFCURVE",
"311 213 OFFCURVE",
"311 202 CURVE SMOOTH",
"311 122 OFFCURVE",
"255 81 OFFCURVE",
"210 81 CURVE SMOOTH",
"177 81 OFFCURVE",
"150 103 OFFCURVE",
"150 138 CURVE SMOOTH",
"150 204 OFFCURVE",
"243 229 OFFCURVE",
"310 230 CURVE"
);
}
);
width = 794;
}
);
leftKerningGroup = a;
rightKerningGroup = e;
unicode = 00E6;
},
{
glyphname = ampersand;
lastChange = "2016-08-23 09:36:32 +0000";
layers = (
{
layerId = UUID0;
paths = (
{
closed = 1;
nodes = (
"589 0 LINE",
"502 100 LINE",
"555 184 OFFCURVE",
"565 292 OFFCURVE",
"567 351 CURVE",
"486 351 LINE",
"484 309 OFFCURVE",
"476 197 OFFCURVE",
"447 161 CURVE",
"257 356 LINE",
"337 406 OFFCURVE",
"421 480 OFFCURVE",
"421 577 CURVE SMOOTH",
"421 648 OFFCURVE",
"377 703 OFFCURVE",
"278 703 CURVE SMOOTH",
"172 703 OFFCURVE",
"83 641 OFFCURVE",
"83 536 CURVE SMOOTH",
"83 490 OFFCURVE",
"100 437 OFFCURVE",
"158 366 CURVE",
"69 303 OFFCURVE",
"32 239 OFFCURVE",
"32 162 CURVE SMOOTH",
"32 60 OFFCURVE",
"98 -23 OFFCURVE",
"265 -23 CURVE SMOOTH",
"341 -23 OFFCURVE",
"393 -6 OFFCURVE",
"453 46 CURVE",
"497 0 LINE"
);
},
{
closed = 1;
nodes = (
"266 634 LINE",
"314 634 OFFCURVE",
"345 607 OFFCURVE",
"345 559 CURVE SMOOTH",
"345 498 OFFCURVE",
"296 467 OFFCURVE",
"219 406 CURVE",
"174 461 OFFCURVE",
"164 504 OFFCURVE",
"164 534 CURVE SMOOTH",
"164 601 OFFCURVE",
"213 634 OFFCURVE",
"266 634 CURVE SMOOTH"
);
},
{
closed = 1;
nodes = (
"408 105 LINE",
"377 69 OFFCURVE",
"334 45 OFFCURVE",
"267 45 CURVE SMOOTH",
"164 45 OFFCURVE",
"119 101 OFFCURVE",
"119 169 CURVE SMOOTH",
"119 228 OFFCURVE",
"153 280 OFFCURVE",
"200 313 CURVE"
);
}
);
width = 627;
},
{
layerId = "7C863538-AAB4-42AD-A9FE-7240E615272A";
paths = (
{
closed = 1;
nodes = (
"624 0 LINE",
"519 120 LINE",
"561 200 OFFCURVE",
"568 295 OFFCURVE",
"568 352 CURVE",
"449 352 LINE",
"448 309 OFFCURVE",
"448 258 OFFCURVE",
"439 211 CURVE",
"299 371 LINE",
"370 422 OFFCURVE",
"441 472 OFFCURVE",
"441 560 CURVE SMOOTH",
"441 645 OFFCURVE",
"384 703 OFFCURVE",
"282 703 CURVE SMOOTH",
"177 703 OFFCURVE",
"79 642 OFFCURVE",
"79 538 CURVE SMOOTH",
"79 475 OFFCURVE",
"114 417 OFFCURVE",
"154 367 CURVE",
"89 319 OFFCURVE",
"32 260 OFFCURVE",
"32 168 CURVE SMOOTH",
"32 68 OFFCURVE",
"103 -24 OFFCURVE",
"265 -24 CURVE SMOOTH",
"346 -24 OFFCURVE",
"405 -1 OFFCURVE",
"449 34 CURVE",
"480 0 LINE"
);
},
{
closed = 1;
nodes = (
"276 604 LINE",
"310 604 OFFCURVE",
"332 589 OFFCURVE",
"332 546 CURVE SMOOTH",
"332 500 OFFCURVE",
"295 466 OFFCURVE",
"247 432 CURVE",
"216 471 OFFCURVE",
"201 500 OFFCURVE",
"201 533 CURVE SMOOTH",
"201 580 OFFCURVE",
"233 604 OFFCURVE",
"276 604 CURVE SMOOTH"
);
},
{
closed = 1;
nodes = (
"386 105 LINE",
"362 84 OFFCURVE",
"329 71 OFFCURVE",
"282 71 CURVE SMOOTH",
"185 71 OFFCURVE",
"161 127 OFFCURVE",
"161 179 CURVE SMOOTH",
"161 229 OFFCURVE",
"182 267 OFFCURVE",
"213 300 CURVE"
);
}
);
width = 627;
}
);
unicode = 0026;
},
{
glyphname = asciicircum;
lastChange = "2016-08-23 09:36:32 +0000";
layers = (
{
layerId = UUID0;
paths = (
{
closed = 1;
nodes = (
"461 437 LINE",
"461 543 LINE",
"255 759 LINE",
"49 543 LINE",
"49 437 LINE",
"255 653 LINE"
);
}
);
width = 511;
},
{
layerId = "7C863538-AAB4-42AD-A9FE-7240E615272A";
paths = (
{
closed = 1;
nodes = (
"461 400 LINE",
"461 547 LINE",
"255 759 LINE",
"49 547 LINE",
"49 400 LINE",
"255 612 LINE"
);
}
);
width = 511;
}
);
unicode = 005E;
},
{
glyphname = asciitilde;
lastChange = "2016-08-23 09:36:32 +0000";
layers = (
{
layerId = UUID0;
paths = (
{
closed = 1;
nodes = (
"331 179 LINE SMOOTH",
"381 179 OFFCURVE",
"423 215 OFFCURVE",
"438 273 CURVE",
"404 282 LINE",
"387 250 OFFCURVE",
"367 231 OFFCURVE",
"335 231 CURVE SMOOTH",
"300 231 OFFCURVE",
"236 280 OFFCURVE",
"195 280 CURVE SMOOTH",
"160 280 OFFCURVE",
"108 256 OFFCURVE",
"92 190 CURVE",
"128 181 LINE",
"139 211 OFFCURVE",
"161 230 OFFCURVE",
"199 230 CURVE SMOOTH",
"231 230 OFFCURVE",
"294 179 OFFCURVE",
"331 179 CURVE SMOOTH"
);
}
);
width = 461;
},
{
layerId = "7C863538-AAB4-42AD-A9FE-7240E615272A";
paths = (
{
closed = 1;
nodes = (
"334 176 LINE SMOOTH",
"402 176 OFFCURVE",
"444 228 OFFCURVE",
"452 278 CURVE",
"376 298 LINE",
"372 278 OFFCURVE",
"350 251 OFFCURVE",
"319 251 CURVE SMOOTH",
"281 251 OFFCURVE",
"261 293 OFFCURVE",
"201 293 CURVE SMOOTH",
"146 293 OFFCURVE",
"83 258 OFFCURVE",
"76 191 CURVE",
"159 171 LINE",
"163 191 OFFCURVE",
"177 218 OFFCURVE",
"207 218 CURVE SMOOTH",
"245 218 OFFCURVE",
"280 176 OFFCURVE",
"334 176 CURVE SMOOTH"
);
}
);
width = 461;
}
);
unicode = 007E;
},
{
glyphname = asterisk;
lastChange = "2016-08-23 09:36:32 +0000";
layers = (
{
layerId = UUID0;
paths = (
{
closed = 1;
nodes = (
"327 427 LINE",
"360 459 LINE",
"247 574 LINE",
"405 637 LINE",
"382 679 LINE",
"233 593 LINE",
"249 749 LINE",
"203 749 LINE",
"216 593 LINE",
"68 679 LINE",
"45 638 LINE",
"201 573 LINE",
"93 456 LINE",
"125 424 LINE",
"225 560 LINE"
);
}
);
width = 450;
},
{
layerId = "7C863538-AAB4-42AD-A9FE-7240E615272A";
paths = (
{
closed = 1;
nodes = (
"311 412 LINE",
"378 477 LINE",
"258 567 LINE",
"417 617 LINE",
"370 699 LINE",
"236 592 LINE",
"272 749 LINE",
"178 749 LINE",
"213 592 LINE",
"80 699 LINE",
"33 617 LINE",
"195 565 LINE",
"74 474 LINE",
"141 409 LINE",
"227 549 LINE"
);
}
);
width = 450;
}
);
unicode = 002A;
},
{
glyphname = at;
lastChange = "2016-08-23 09:36:32 +0000";
layers = (
{
layerId = UUID0;
paths = (
{
closed = 1;
nodes = (
"537 379 LINE",
"512 272 OFFCURVE",
"482 204 OFFCURVE",
"482 145 CURVE SMOOTH",
"482 100 OFFCURVE",
"500 94 OFFCURVE",
"525 94 CURVE SMOOTH",
"628 94 OFFCURVE",
"667 199 OFFCURVE",
"667 300 CURVE SMOOTH",
"667 454 OFFCURVE",
"575 553 OFFCURVE",
"418 553 CURVE SMOOTH",
"216 553 OFFCURVE",
"41 388 OFFCURVE",
"41 170 CURVE SMOOTH",
"41 8 OFFCURVE",
"137 -87 OFFCURVE",
"289 -87 CURVE SMOOTH",
"428 -87 OFFCURVE",
"554 -8 OFFCURVE",
"617 106 CURVE",
"585 73 OFFCURVE",
"523 42 OFFCURVE",
"487 42 CURVE SMOOTH",
"442 42 OFFCURVE",
"429 89 OFFCURVE",
"429 121 CURVE SMOOTH",
"429 136 OFFCURVE",
"432 149 OFFCURVE",
"432 156 CURVE",
"389 81 OFFCURVE",
"310 40 OFFCURVE",
"252 40 CURVE SMOOTH",
"185 40 OFFCURVE",
"161 95 OFFCURVE",
"161 153 CURVE SMOOTH",
"161 289 OFFCURVE",
"291 432 OFFCURVE",
"416 432 CURVE SMOOTH",
"471 432 OFFCURVE",
"512 405 OFFCURVE",
"537 379 CURVE"
);
},
{
closed = 1;
nodes = (
"425 371 LINE SMOOTH",
"351 371 OFFCURVE",
"241 282 OFFCURVE",
"241 173 CURVE SMOOTH",
"241 135 OFFCURVE",
"254 106 OFFCURVE",
"285 106 CURVE SMOOTH",
"352 106 OFFCURVE",
"451 242 OFFCURVE",
"470 349 CURVE",
"462 370 OFFCURVE",
"436 371 OFFCURVE",
"425 371 CURVE SMOOTH"
);
}
);
width = 707;
},
{
layerId = "7C863538-AAB4-42AD-A9FE-7240E615272A";
paths = (
{
closed = 1;
nodes = (
"537 379 LINE",
"512 272 OFFCURVE",
"482 204 OFFCURVE",
"482 145 CURVE SMOOTH",
"482 100 OFFCURVE",
"500 94 OFFCURVE",
"525 94 CURVE SMOOTH",
"628 94 OFFCURVE",
"667 199 OFFCURVE",
"667 300 CURVE SMOOTH",
"667 454 OFFCURVE",
"575 553 OFFCURVE",
"418 553 CURVE SMOOTH",
"216 553 OFFCURVE",
"41 388 OFFCURVE",
"41 170 CURVE SMOOTH",
"41 8 OFFCURVE",
"137 -87 OFFCURVE",
"289 -87 CURVE SMOOTH",
"428 -87 OFFCURVE",
"554 -8 OFFCURVE",
"617 106 CURVE",
"585 73 OFFCURVE",
"523 42 OFFCURVE",
"487 42 CURVE SMOOTH",
"442 42 OFFCURVE",
"429 89 OFFCURVE",
"429 121 CURVE SMOOTH",
"429 136 OFFCURVE",
"432 149 OFFCURVE",
"432 156 CURVE",
"389 81 OFFCURVE",
"310 40 OFFCURVE",
"252 40 CURVE SMOOTH",
"185 40 OFFCURVE",
"161 95 OFFCURVE",
"161 153 CURVE SMOOTH",
"161 289 OFFCURVE",
"291 432 OFFCURVE",
"416 432 CURVE SMOOTH",
"471 432 OFFCURVE",
"512 405 OFFCURVE",
"537 379 CURVE"
);
},
{
closed = 1;
nodes = (
"425 371 LINE SMOOTH",
"351 371 OFFCURVE",
"241 282 OFFCURVE",
"241 173 CURVE SMOOTH",
"241 135 OFFCURVE",
"254 106 OFFCURVE",
"285 106 CURVE SMOOTH",
"352 106 OFFCURVE",
"451 242 OFFCURVE",
"470 349 CURVE",
"462 370 OFFCURVE",
"436 371 OFFCURVE",
"425 371 CURVE SMOOTH"
);
}
);
width = 707;
}
);
unicode = 0040;
},
{
glyphname = b;
lastChange = "2016-08-23 09:36:32 +0000";
layers = (
{
layerId = UUID0;
paths = (
{
closed = 1;
nodes = (
"299 -10 LINE SMOOTH",
"424 -10 OFFCURVE",
"521 102 OFFCURVE",
"521 245 CURVE SMOOTH",
"521 379 OFFCURVE",
"437 500 OFFCURVE",
"300 500 CURVE SMOOTH",
"256 500 OFFCURVE",
"190 488 OFFCURVE",
"148 437 CURVE",
"148 750 LINE",
"58 750 LINE",
"58 0 LINE",
"138 0 LINE",
"148 62 LINE",
"185 14 OFFCURVE",
"255 -10 OFFCURVE",
"299 -10 CURVE SMOOTH"
);
},
{
closed = 1;
nodes = (
"289 420 LINE SMOOTH",
"375 420 OFFCURVE",
"429 345 OFFCURVE",
"429 245 CURVE SMOOTH",
"429 149 OFFCURVE",
"375 70 OFFCURVE",
"289 70 CURVE SMOOTH",
"217 70 OFFCURVE",
"143 122 OFFCURVE",
"143 245 CURVE SMOOTH",
"143 363 OFFCURVE",
"217 420 OFFCURVE",
"289 420 CURVE SMOOTH"
);
}
);
width = 572;
},
{
layerId = "7C863538-AAB4-42AD-A9FE-7240E615272A";
paths = (
{
closed = 1;
nodes = (
"299 -10 LINE SMOOTH",
"459 -10 OFFCURVE",
"544 109 OFFCURVE",
"544 249 CURVE SMOOTH",
"544 389 OFFCURVE",
"459 508 OFFCURVE",
"299 508 CURVE SMOOTH",
"247 508 OFFCURVE",
"214 496 OFFCURVE",
"182 475 CURVE",
"182 750 LINE",
"58 750 LINE",
"58 0 LINE",
"174 0 LINE",
"176 28 LINE",
"211 4 OFFCURVE",
"244 -10 OFFCURVE",
"299 -10 CURVE SMOOTH"
);
},
{
closed = 1;
nodes = (
"291 406 LINE SMOOTH",
"371 406 OFFCURVE",
"417 342 OFFCURVE",
"417 249 CURVE SMOOTH",
"417 156 OFFCURVE",
"371 92 OFFCURVE",
"291 92 CURVE SMOOTH",
"211 92 OFFCURVE",
"176 156 OFFCURVE",
"176 249 CURVE SMOOTH",
"176 342 OFFCURVE",
"211 406 OFFCURVE",
"291 406 CURVE SMOOTH"
);
}
);
width = 572;
}
);
leftKerningGroup = h;
rightKerningGroup = b;
unicode = 0062;
},
{
glyphname = backslash;
lastChange = "2016-08-23 09:36:32 +0000";
layers = (
{
layerId = UUID0;
paths = (
{
closed = 1;
nodes = (
"518 -85 LINE",
"140 700 LINE",
"47 700 LINE",
"425 -85 LINE"
);
}
);
width = 551;
},
{
layerId = "7C863538-AAB4-42AD-A9FE-7240E615272A";
paths = (
{
closed = 1;
nodes = (
"532 -85 LINE",
"167 700 LINE",
"33 700 LINE",
"398 -85 LINE"
);
}
);
width = 551;
}
);
unicode = 005C;
},
{
glyphname = bar;
lastChange = "2016-08-23 09:36:32 +0000";
layers = (
{
layerId = UUID0;
paths = (
{
closed = 1;
nodes = (
"155 -209 LINE",
"155 750 LINE",
"66 750 LINE",
"66 -209 LINE"
);
}
);
width = 222;
},
{
layerId = "7C863538-AAB4-42AD-A9FE-7240E615272A";
paths = (
{
closed = 1;
nodes = (
"161 -210 LINE",
"161 750 LINE",
"61 750 LINE",
"61 -210 LINE"
);
}
);
width = 222;
}
);
unicode = 007C;
},
{
glyphname = braceleft;
lastChange = "2016-08-23 09:36:32 +0000";
layers = (
{
layerId = UUID0;
paths = (
{
closed = 1;
nodes = (
"92 14 LINE",
"92 -79 OFFCURVE",
"148 -130 OFFCURVE",
"306 -135 CURVE",
"306 -66 LINE",
"171 -62 OFFCURVE",
"165 -24 OFFCURVE",
"165 105 CURVE SMOOTH",
"165 139 OFFCURVE",
"168 170 OFFCURVE",
"168 199 CURVE SMOOTH",
"168 239 OFFCURVE",
"160 266 OFFCURVE",
"85 307 CURVE",
"160 349 OFFCURVE",
"168 381 OFFCURVE",
"168 424 CURVE SMOOTH",
"168 452 OFFCURVE",
"165 483 OFFCURVE",
"165 510 CURVE SMOOTH",
"165 639 OFFCURVE",
"171 677 OFFCURVE",
"306 681 CURVE",
"306 750 LINE",
"143 745 OFFCURVE",
"92 690 OFFCURVE",
"92 600 CURVE SMOOTH",
"92 560 OFFCURVE",
"100 503 OFFCURVE",
"100 456 CURVE SMOOTH",
"100 383 OFFCURVE",
"79 341 OFFCURVE",
"28 307 CURVE",
"83 272 OFFCURVE",
"100 227 OFFCURVE",
"100 159 CURVE SMOOTH",
"100 111 OFFCURVE",
"92 54 OFFCURVE",
"92 14 CURVE SMOOTH"
);
}
);
width = 318;
},
{
layerId = "7C863538-AAB4-42AD-A9FE-7240E615272A";
paths = (
{
closed = 1;
nodes = (
"88 29 LINE",
"88 -82 OFFCURVE",
"147 -136 OFFCURVE",
"306 -136 CURVE",
"306 -27 LINE",
"187 -27 OFFCURVE",
"186 -10 OFFCURVE",
"186 115 CURVE SMOOTH",
"186 147 OFFCURVE",
"189 177 OFFCURVE",
"189 204 CURVE SMOOTH",
"189 246 OFFCURVE",
"181 281 OFFCURVE",
"138 307 CURVE",
"181 334 OFFCURVE",
"189 375 OFFCURVE",
"189 418 CURVE SMOOTH",
"189 445 OFFCURVE",
"186 474 OFFCURVE",
"186 500 CURVE SMOOTH",
"186 624 OFFCURVE",
"187 641 OFFCURVE",
"306 641 CURVE",
"306 750 LINE",
"141 750 OFFCURVE",
"88 691 OFFCURVE",
"88 585 CURVE SMOOTH",
"88 547 OFFCURVE",
"95 493 OFFCURVE",
"95 449 CURVE SMOOTH",
"95 372 OFFCURVE",
"73 339 OFFCURVE",
"13 307 CURVE",
"77 274 OFFCURVE",
"95 237 OFFCURVE",
"95 166 CURVE SMOOTH",
"95 121 OFFCURVE",
"88 67 OFFCURVE",
"88 29 CURVE SMOOTH"
);
}
);
width = 318;
}
);
unicode = 007B;
},
{
glyphname = braceright;
lastChange = "2016-08-23 09:36:32 +0000";
layers = (
{
layerId = UUID0;
paths = (
{
closed = 1;
nodes = (
"242 14 LINE",
"242 -79 OFFCURVE",
"186 -130 OFFCURVE",
"28 -135 CURVE",
"28 -66 LINE",
"163 -62 OFFCURVE",
"169 -24 OFFCURVE",
"169 105 CURVE SMOOTH",
"169 139 OFFCURVE",
"166 170 OFFCURVE",
"166 199 CURVE SMOOTH",
"166 239 OFFCURVE",
"174 266 OFFCURVE",
"249 307 CURVE",
"174 349 OFFCURVE",
"166 381 OFFCURVE",
"166 424 CURVE SMOOTH",
"166 452 OFFCURVE",
"169 483 OFFCURVE",
"169 510 CURVE SMOOTH",
"169 639 OFFCURVE",
"163 677 OFFCURVE",
"28 681 CURVE",
"28 750 LINE",
"191 745 OFFCURVE",
"242 690 OFFCURVE",
"242 600 CURVE SMOOTH",
"242 560 OFFCURVE",
"234 503 OFFCURVE",
"234 456 CURVE SMOOTH",
"234 383 OFFCURVE",
"255 341 OFFCURVE",
"306 307 CURVE",
"251 272 OFFCURVE",
"234 227 OFFCURVE",
"234 159 CURVE SMOOTH",
"234 111 OFFCURVE",
"242 54 OFFCURVE",
"242 14 CURVE SMOOTH"
);
}
);
width = 318;
},
{
layerId = "7C863538-AAB4-42AD-A9FE-7240E615272A";
paths = (
{
closed = 1;
nodes = (
"231 29 LINE",
"231 -82 OFFCURVE",
"172 -136 OFFCURVE",
"13 -136 CURVE",
"13 -27 LINE",
"132 -27 OFFCURVE",
"133 -10 OFFCURVE",
"133 115 CURVE SMOOTH",
"133 147 OFFCURVE",
"130 177 OFFCURVE",
"130 204 CURVE SMOOTH",
"130 246 OFFCURVE",
"138 281 OFFCURVE",
"181 307 CURVE",
"138 334 OFFCURVE",
"130 375 OFFCURVE",
"130 418 CURVE SMOOTH",
"130 445 OFFCURVE",
"133 474 OFFCURVE",
"133 500 CURVE SMOOTH",
"133 624 OFFCURVE",
"132 641 OFFCURVE",
"13 641 CURVE",
"13 750 LINE",
"178 750 OFFCURVE",
"231 691 OFFCURVE",
"231 585 CURVE SMOOTH",
"231 547 OFFCURVE",
"224 493 OFFCURVE",
"224 449 CURVE SMOOTH",
"224 372 OFFCURVE",
"246 339 OFFCURVE",
"306 307 CURVE",
"242 274 OFFCURVE",
"224 237 OFFCURVE",
"224 166 CURVE SMOOTH",
"224 121 OFFCURVE",
"231 67 OFFCURVE",
"231 29 CURVE SMOOTH"
);
}
);
width = 318;
}
);
unicode = 007D;
},
{
glyphname = bracketleft;
lastChange = "2016-08-23 09:36:32 +0000";
layers = (
{
layerId = UUID0;
paths = (
{
closed = 1;
nodes = (
"324 -135 LINE",
"324 -67 LINE",
"150 -67 LINE",
"150 682 LINE",
"324 682 LINE",
"324 750 LINE",
"67 750 LINE",
"67 -135 LINE"
);
}
);
width = 335;
},
{
layerId = "7C863538-AAB4-42AD-A9FE-7240E615272A";
paths = (
{
closed = 1;
nodes = (
"324 -136 LINE",
"324 -27 LINE",
"180 -27 LINE",
"180 641 LINE",
"324 641 LINE",
"324 750 LINE",
"67 750 LINE",
"67 -136 LINE"
);
}
);
width = 335;
}
);
unicode = 005B;
},
{
glyphname = bracketright;
lastChange = "2016-08-23 09:36:32 +0000";
layers = (
{
layerId = UUID0;
paths = (
{
closed = 1;
nodes = (
"273 -135 LINE",
"273 750 LINE",
"16 750 LINE",
"16 666 LINE",
"190 666 LINE",
"190 -51 LINE",
"16 -51 LINE",
"16 -135 LINE"
);
}
);
width = 340;
},
{
layerId = "7C863538-AAB4-42AD-A9FE-7240E615272A";
paths = (
{
closed = 1;
nodes = (
"273 -136 LINE",
"273 750 LINE",
"16 750 LINE",
"16 626 LINE",
"160 626 LINE",
"160 -12 LINE",
"16 -12 LINE",
"16 -136 LINE"
);
}
);
width = 340;
}
);
unicode = 005D;
},
{
glyphname = brokenbar;
lastChange = "2016-08-23 09:36:32 +0000";
layers = (
{
layerId = UUID0;
paths = (
{
closed = 1;
nodes = (
"156 308 LINE",
"156 750 LINE",
"68 750 LINE",
"68 308 LINE"
);
},
{
closed = 1;
nodes = (
"156 -210 LINE",
"156 163 LINE",
"68 163 LINE",
"68 -210 LINE"
);
}
);
width = 224;
},
{
layerId = "7C863538-AAB4-42AD-A9FE-7240E615272A";
paths = (
{
closed = 1;
nodes = (
"156 284 LINE",
"156 750 LINE",
"68 750 LINE",
"68 284 LINE"
);
},
{
closed = 1;
nodes = (
"156 -210 LINE",
"156 190 LINE",
"68 190 LINE",
"68 -210 LINE"
);
}
);
width = 224;
}
);
unicode = 00A6;
},
{
glyphname = bullet;
lastChange = "2016-08-23 09:36:32 +0000";
layers = (
{
layerId = UUID0;
paths = (
{
closed = 1;
nodes = (
"149 169 LINE",
"209 169 OFFCURVE",
"258 218 OFFCURVE",
"258 278 CURVE SMOOTH",
"258 338 OFFCURVE",
"209 387 OFFCURVE",
"149 387 CURVE SMOOTH",
"89 387 OFFCURVE",
"40 338 OFFCURVE",
"40 278 CURVE SMOOTH",
"40 218 OFFCURVE",
"89 169 OFFCURVE",
"149 169 CURVE SMOOTH"
);
}
);
width = 298;
},
{
layerId = "7C863538-AAB4-42AD-A9FE-7240E615272A";
paths = (
{
closed = 1;
nodes = (
"149 169 LINE",
"209 169 OFFCURVE",
"258 218 OFFCURVE",
"258 278 CURVE SMOOTH",
"258 338 OFFCURVE",
"209 387 OFFCURVE",
"149 387 CURVE SMOOTH",
"89 387 OFFCURVE",
"40 338 OFFCURVE",
"40 278 CURVE SMOOTH",
"40 218 OFFCURVE",
"89 169 OFFCURVE",
"149 169 CURVE SMOOTH"
);
}
);
width = 298;
}
);
unicode = 2022;
},
{
glyphname = c;
lastChange = "2016-08-23 09:36:32 +0000";
layers = (
{
layerId = UUID0;
paths = (
{
closed = 1;
nodes = (
"272 -10 LINE",
"351 -10 OFFCURVE",
"392 8 OFFCURVE",
"421 27 CURVE",
"409 99 LINE",
"370 80 OFFCURVE",
"327 69 OFFCURVE",
"281 69 CURVE SMOOTH",
"172 69 OFFCURVE",
"120 139 OFFCURVE",
"120 246 CURVE SMOOTH",
"120 355 OFFCURVE",
"172 420 OFFCURVE",
"281 420 CURVE SMOOTH",
"327 420 OFFCURVE",
"369 409 OFFCURVE",
"408 390 CURVE",
"422 471 LINE",
"393 487 OFFCURVE",
"345 500 OFFCURVE",
"271 500 CURVE SMOOTH",
"108 500 OFFCURVE",
"28 389 OFFCURVE",
"28 246 CURVE SMOOTH",
"28 109 OFFCURVE",
"109 -10 OFFCURVE",
"272 -10 CURVE SMOOTH"
);
}
);
width = 448;
},
{
layerId = "7C863538-AAB4-42AD-A9FE-7240E615272A";
paths = (
{
closed = 1;
nodes = (
"271 -10 LINE",
"351 -10 OFFCURVE",
"389 7 OFFCURVE",
"421 27 CURVE",
"410 133 LINE",
"369 106 OFFCURVE",
"329 92 OFFCURVE",
"281 92 CURVE SMOOTH",
"201 92 OFFCURVE",
"155 156 OFFCURVE",
"155 249 CURVE SMOOTH",
"155 342 OFFCURVE",
"201 406 OFFCURVE",
"281 406 CURVE SMOOTH",
"329 406 OFFCURVE",
"369 392 OFFCURVE",
"410 365 CURVE",
"421 471 LINE",
"389 491 OFFCURVE",
"351 508 OFFCURVE",
"271 508 CURVE SMOOTH",
"111 508 OFFCURVE",
"28 389 OFFCURVE",
"28 249 CURVE SMOOTH",
"28 109 OFFCURVE",
"111 -10 OFFCURVE",
"271 -10 CURVE SMOOTH"
);
}
);
width = 448;
}
);
leftKerningGroup = o;
rightKerningGroup = c;
unicode = 0063;
},
{
glyphname = caron;
lastChange = "2016-08-23 09:36:32 +0000";
layers = (
{
layerId = UUID0;
paths = (
{
closed = 1;
nodes = (
"370 699 LINE",
"370 740 LINE",
"223 664 LINE",
"76 740 LINE",
"76 699 LINE",
"223 600 LINE"
);
}
);
width = 446;
},
{
layerId = "7C863538-AAB4-42AD-A9FE-7240E615272A";
paths = (
{
closed = 1;
nodes = (
"370 676 LINE",
"370 750 LINE",
"223 679 LINE",
"76 750 LINE",
"76 676 LINE",
"223 585 LINE"
);
}
);
width = 446;
}
);
unicode = 02C7;
},
{
glyphname = cedilla;
lastChange = "2016-08-23 09:36:32 +0000";
layers = (
{
layerId = UUID0;
paths = (
{
closed = 1;
nodes = (
"278 -54 LINE",
"212 -60 LINE",
"144 -192 LINE",
"190 -187 LINE"
);
}
);
width = 303;
},
{
layerId = "7C863538-AAB4-42AD-A9FE-7240E615272A";
paths = (
{
closed = 1;
nodes = (
"303 -52 LINE",
"199 -61 LINE",
"129 -194 LINE",
"203 -185 LINE"
);
}
);
width = 303;
}
);
unicode = 00B8;
},
{
glyphname = cent;
lastChange = "2016-08-23 09:36:32 +0000";
layers = (
{
layerId = UUID0;
paths = (
{
closed = 1;
nodes = (
"292 87 LINE",
"365 91 OFFCURVE",
"399 104 OFFCURVE",
"426 119 CURVE",
"418 197 LINE",
"378 176 OFFCURVE",
"338 165 OFFCURVE",
"291 165 CURVE SMOOTH",
"193 165 OFFCURVE",
"140 247 OFFCURVE",
"140 347 CURVE SMOOTH",
"140 448 OFFCURVE",
"193 531 OFFCURVE",
"291 531 CURVE SMOOTH",
"338 531 OFFCURVE",
"378 519 OFFCURVE",
"418 498 CURVE",
"426 576 LINE",
"398 592 OFFCURVE",
"364 604 OFFCURVE",
"290 608 CURVE",
"308 748 LINE",
"240 748 LINE",
"259 608 LINE",
"107 589 OFFCURVE",
"34 476 OFFCURVE",
"34 347 CURVE SMOOTH",
"34 219 OFFCURVE",
"106 107 OFFCURVE",
"257 87 CURVE",
"240 -31 LINE",
"308 -31 LINE"
);
}
);
width = 474;
},
{
layerId = "7C863538-AAB4-42AD-A9FE-7240E615272A";
paths = (
{
closed = 1;
nodes = (
"304 89 LINE",
"366 93 OFFCURVE",
"399 108 OFFCURVE",
"427 126 CURVE",
"416 232 LINE",
"375 205 OFFCURVE",
"335 191 OFFCURVE",
"287 191 CURVE SMOOTH",
"207 191 OFFCURVE",
"161 255 OFFCURVE",
"161 348 CURVE SMOOTH",
"161 441 OFFCURVE",
"207 505 OFFCURVE",
"287 505 CURVE SMOOTH",
"335 505 OFFCURVE",
"375 491 OFFCURVE",
"416 464 CURVE",
"427 570 LINE",
"398 588 OFFCURVE",
"365 603 OFFCURVE",
"302 606 CURVE",
"319 748 LINE",
"223 748 LINE",
"241 605 LINE",
"105 588 OFFCURVE",
"34 477 OFFCURVE",
"34 348 CURVE SMOOTH",
"34 219 OFFCURVE",
"104 109 OFFCURVE",
"239 91 CURVE",
"223 -32 LINE",
"319 -32 LINE"
);
}
);
width = 474;
}
);
unicode = 00A2;
},
{
glyphname = circumflex;
lastChange = "2016-08-23 09:36:32 +0000";
layers = (
{
layerId = UUID0;
paths = (
{
closed = 1;
nodes = (
"370 603 LINE",
"370 639 LINE",
"223 745 LINE",
"76 639 LINE",
"76 603 LINE",
"223 685 LINE"
);
}
);
width = 446;
},
{
layerId = "7C863538-AAB4-42AD-A9FE-7240E615272A";
paths = (
{
closed = 1;
nodes = (
"370 585 LINE",
"370 659 LINE",
"223 750 LINE",
"76 659 LINE",
"76 585 LINE",
"223 656 LINE"
);
}
);
width = 446;
}
);
unicode = 02C6;
},
{
glyphname = colon;
lastChange = "2016-08-23 09:36:32 +0000";
layers = (
{
layerId = UUID0;
paths = (
{
closed = 1;
nodes = (
"176 354 LINE",
"176 440 LINE",
"86 440 LINE",
"86 354 LINE"
);
},
{
closed = 1;
nodes = (
"176 0 LINE",
"176 86 LINE",
"86 86 LINE",
"86 0 LINE"
);
}
);
width = 262;
},
{
layerId = "7C863538-AAB4-42AD-A9FE-7240E615272A";
paths = (
{
closed = 1;
nodes = (
"193 310 LINE",
"193 440 LINE",
"69 440 LINE",
"69 310 LINE"
);
},
{
closed = 1;
nodes = (
"193 0 LINE",
"193 130 LINE",
"69 130 LINE",
"69 0 LINE"
);
}
);
width = 262;
}
);
unicode = 003A;
},
{
glyphname = comma;
lastChange = "2016-08-23 09:36:32 +0000";
layers = (
{
layerId = UUID0;
paths = (
{
closed = 1;
nodes = (
"169 0 LINE",
"169 86 LINE",
"69 86 LINE",
"69 0 LINE",
"103 -9 LINE",
"68 -96 LINE",
"91 -109 LINE"
);
}
);
width = 236;
},
{
layerId = "7C863538-AAB4-42AD-A9FE-7240E615272A";
paths = (
{
closed = 1;
nodes = (
"180 0 LINE",
"180 130 LINE",
"56 130 LINE",
"56 0 LINE",
"89 -10 LINE",
"56 -96 LINE",
"82 -110 LINE"
);
}
);
width = 236;
}
);
unicode = 002C;
},
{
glyphname = copyright;
lastChange = "2016-08-23 09:36:32 +0000";
layers = (
{
layerId = UUID0;
paths = (
{
closed = 1;
nodes = (
"351 37 LINE",
"531 37 OFFCURVE",
"661 167 OFFCURVE",
"661 365 CURVE SMOOTH",
"661 564 OFFCURVE",
"531 693 OFFCURVE",
"351 693 CURVE SMOOTH",
"171 693 OFFCURVE",
"40 564 OFFCURVE",
"40 365 CURVE SMOOTH",
"40 167 OFFCURVE",
"171 37 OFFCURVE",
"351 37 CURVE SMOOTH"
);
},
{
closed = 1;
nodes = (
"351 648 LINE",
"524 648 OFFCURVE",
"609 525 OFFCURVE",
"609 365 CURVE SMOOTH",
"609 205 OFFCURVE",
"524 81 OFFCURVE",
"351 81 CURVE SMOOTH",
"177 81 OFFCURVE",
"92 205 OFFCURVE",
"92 365 CURVE SMOOTH",
"92 525 OFFCURVE",
"177 648 OFFCURVE",
"351 648 CURVE SMOOTH"
);
},
{
closed = 1;
nodes = (
"360 197 LINE",
"391 197 OFFCURVE",
"425 204 OFFCURVE",
"450 217 CURVE",
"443 276 LINE",
"416 264 OFFCURVE",
"389 256 OFFCURVE",
"360 256 CURVE SMOOTH",
"299 256 OFFCURVE",
"269 303 OFFCURVE",
"269 363 CURVE SMOOTH",
"269 425 OFFCURVE",
"299 470 OFFCURVE",
"360 470 CURVE SMOOTH",
"389 470 OFFCURVE",
"416 462 OFFCURVE",
"443 451 CURVE",
"450 511 LINE",
"425 522 OFFCURVE",
"391 530 OFFCURVE",
"360 530 CURVE SMOOTH",
"268 530 OFFCURVE",
"202 465 OFFCURVE",
"202 363 CURVE SMOOTH",
"202 262 OFFCURVE",
"268 197 OFFCURVE",
"360 197 CURVE SMOOTH"
);
}
);
width = 701;
},
{
layerId = "7C863538-AAB4-42AD-A9FE-7240E615272A";
paths = (
{
closed = 1;
nodes = (
"351 37 LINE",
"531 37 OFFCURVE",
"661 168 OFFCURVE",
"661 365 CURVE SMOOTH",
"661 563 OFFCURVE",
"531 693 OFFCURVE",
"351 693 CURVE SMOOTH",
"171 693 OFFCURVE",
"40 563 OFFCURVE",
"40 365 CURVE SMOOTH",
"40 168 OFFCURVE",
"171 37 OFFCURVE",
"351 37 CURVE SMOOTH"
);
},
{
closed = 1;
nodes = (
"351 623 LINE",
"507 623 OFFCURVE",
"584 513 OFFCURVE",
"584 365 CURVE SMOOTH",
"584 217 OFFCURVE",
"507 106 OFFCURVE",
"351 106 CURVE SMOOTH",
"194 106 OFFCURVE",
"117 217 OFFCURVE",
"117 365 CURVE SMOOTH",
"117 513 OFFCURVE",
"194 623 OFFCURVE",
"351 623 CURVE SMOOTH"
);
},
{
closed = 1;
nodes = (
"359 190 LINE",
"394 190 OFFCURVE",
"433 199 OFFCURVE",
"461 215 CURVE",
"451 299 LINE",
"420 284 OFFCURVE",
"392 274 OFFCURVE",
"359 274 CURVE SMOOTH",
"312 274 OFFCURVE",
"286 310 OFFCURVE",
"286 363 CURVE SMOOTH",
"286 418 OFFCURVE",
"312 452 OFFCURVE",
"359 452 CURVE SMOOTH",
"392 452 OFFCURVE",
"420 442 OFFCURVE",
"451 429 CURVE",
"461 514 LINE",
"433 527 OFFCURVE",
"395 537 OFFCURVE",
"359 537 CURVE SMOOTH",
"263 537 OFFCURVE",
"195 468 OFFCURVE",
"195 363 CURVE SMOOTH",
"195 259 OFFCURVE",
"264 190 OFFCURVE",
"359 190 CURVE SMOOTH"
);
}
);
width = 701;
}
);
unicode = 00A9;
},
{
glyphname = currency;
lastChange = "2016-08-23 09:36:32 +0000";
layers = (
{
layerId = UUID0;
paths = (
{
closed = 1;
nodes = (
"555 53 LINE",
"476 154 LINE",
"532 214 OFFCURVE",
"556 278 OFFCURVE",
"556 348 CURVE SMOOTH",
"556 417 OFFCURVE",
"533 481 OFFCURVE",
"477 540 CURVE",
"555 643 LINE",
"527 667 LINE",
"447 563 LINE",
"395 591 OFFCURVE",
"353 602 OFFCURVE",
"304 602 CURVE SMOOTH",
"255 602 OFFCURVE",
"213 591 OFFCURVE",
"160 564 CURVE",
"82 667 LINE",
"54 643 LINE",
"132 541 LINE",
"75 482 OFFCURVE",
"52 418 OFFCURVE",
"52 348 CURVE SMOOTH",
"52 278 OFFCURVE",
"75 214 OFFCURVE",
"131 155 CURVE",
"54 53 LINE",
"82 29 LINE",
"161 132 LINE",
"213 104 OFFCURVE",
"255 94 OFFCURVE",
"304 94 CURVE SMOOTH",
"353 94 OFFCURVE",
"395 104 OFFCURVE",
"447 132 CURVE",
"526 29 LINE"
);
},
{
closed = 1;
nodes = (
"304 540 LINE",
"410 540 OFFCURVE",
"466 455 OFFCURVE",
"466 348 CURVE SMOOTH",
"466 241 OFFCURVE",
"410 156 OFFCURVE",
"304 156 CURVE SMOOTH",
"198 156 OFFCURVE",
"142 241 OFFCURVE",
"142 348 CURVE SMOOTH",
"142 455 OFFCURVE",
"198 540 OFFCURVE",
"304 540 CURVE SMOOTH"
);
}
);
width = 609;
},
{
layerId = "7C863538-AAB4-42AD-A9FE-7240E615272A";
paths = (
{
closed = 1;
nodes = (
"564 69 LINE",
"490 166 LINE",
"533 213 OFFCURVE",
"557 278 OFFCURVE",
"557 348 CURVE SMOOTH",
"557 417 OFFCURVE",
"534 482 OFFCURVE",
"491 529 CURVE",
"564 627 LINE",
"504 677 LINE",
"429 577 LINE",
"394 596 OFFCURVE",
"352 607 OFFCURVE",
"304 607 CURVE SMOOTH",
"256 607 OFFCURVE",
"214 596 OFFCURVE",
"179 578 CURVE",
"105 677 LINE",
"45 627 LINE",
"118 530 LINE",
"74 483 OFFCURVE",
"51 418 OFFCURVE",
"51 348 CURVE SMOOTH",
"51 278 OFFCURVE",
"74 213 OFFCURVE",
"117 166 CURVE",
"45 69 LINE",
"105 19 LINE",
"179 118 LINE",
"214 99 OFFCURVE",
"256 89 OFFCURVE",
"304 89 CURVE SMOOTH",
"352 89 OFFCURVE",
"394 99 OFFCURVE",
"429 118 CURVE",
"504 19 LINE"
);
},
{
closed = 1;
nodes = (
"304 505 LINE",
"384 505 OFFCURVE",
"430 441 OFFCURVE",
"430 348 CURVE SMOOTH",
"430 255 OFFCURVE",
"384 191 OFFCURVE",
"304 191 CURVE SMOOTH",
"224 191 OFFCURVE",
"178 255 OFFCURVE",
"178 348 CURVE SMOOTH",
"178 441 OFFCURVE",
"224 505 OFFCURVE",
"304 505 CURVE SMOOTH"
);
}
);
width = 609;
}
);
unicode = 00A4;
},
{
glyphname = d;
lastChange = "2016-08-23 09:36:32 +0000";
layers = (
{
layerId = UUID0;
paths = (
{
closed = 1;
nodes = (
"504 0 LINE",
"504 750 LINE",
"414 750 LINE",
"414 438 LINE",
"372 489 OFFCURVE",
"308 500 OFFCURVE",
"264 500 CURVE SMOOTH",
"127 500 OFFCURVE",
"41 379 OFFCURVE",
"41 245 CURVE SMOOTH",
"41 102 OFFCURVE",
"139 -10 OFFCURVE",
"264 -10 CURVE SMOOTH",
"308 -10 OFFCURVE",
"377 14 OFFCURVE",
"414 62 CURVE",
"424 0 LINE"
);
},
{
closed = 1;
nodes = (
"271 420 LINE",
"343 420 OFFCURVE",
"424 360 OFFCURVE",
"424 242 CURVE SMOOTH",
"424 119 OFFCURVE",
"343 70 OFFCURVE",
"271 70 CURVE SMOOTH",
"185 70 OFFCURVE",
"133 149 OFFCURVE",
"133 245 CURVE SMOOTH",
"133 345 OFFCURVE",
"185 420 OFFCURVE",
"271 420 CURVE SMOOTH"
);
}
);
width = 572;
},
{
layerId = "7C863538-AAB4-42AD-A9FE-7240E615272A";
paths = (
{
closed = 1;
nodes = (
"514 0 LINE",
"514 750 LINE",
"390 750 LINE",
"390 475 LINE",
"358 496 OFFCURVE",
"324 508 OFFCURVE",
"273 508 CURVE SMOOTH",
"113 508 OFFCURVE",
"28 389 OFFCURVE",
"28 249 CURVE SMOOTH",
"28 109 OFFCURVE",
"113 -10 OFFCURVE",
"273 -10 CURVE SMOOTH",
"327 -10 OFFCURVE",
"360 4 OFFCURVE",
"395 28 CURVE",
"397 0 LINE"
);
},
{
closed = 1;
nodes = (
"281 406 LINE",
"361 406 OFFCURVE",
"396 342 OFFCURVE",
"396 249 CURVE SMOOTH",
"396 156 OFFCURVE",
"361 92 OFFCURVE",
"281 92 CURVE SMOOTH",
"201 92 OFFCURVE",
"155 156 OFFCURVE",
"155 249 CURVE SMOOTH",
"155 342 OFFCURVE",
"201 406 OFFCURVE",
"281 406 CURVE SMOOTH"
);
}
);
width = 572;
}
);
leftKerningGroup = o;
unicode = 0064;
},
{
glyphname = dagger;
lastChange = "2016-08-23 09:36:32 +0000";
layers = (
{
layerId = UUID0;
paths = (
{
closed = 1;
nodes = (
"390 373 LINE",
"390 458 LINE",
"234 427 LINE",
"268 607 LINE",
"158 607 LINE",
"192 427 LINE",
"36 458 LINE",
"36 373 LINE",
"194 403 LINE",
"153 252 LINE",
"184 0 LINE",
"242 0 LINE",
"273 252 LINE",
"232 403 LINE"
);
}
);
width = 426;
},
{
layerId = "7C863538-AAB4-42AD-A9FE-7240E615272A";
paths = (
{
closed = 1;
nodes = (
"390 349 LINE",
"390 481 LINE",
"259 454 LINE",
"288 607 LINE",
"138 607 LINE",
"167 454 LINE",
"36 481 LINE",
"36 349 LINE",
"167 375 LINE",
"138 257 LINE",
"168 0 LINE",
"258 0 LINE",
"288 257 LINE",
"259 375 LINE"
);
}
);
width = 426;
}
);
unicode = 2020;
},
{
glyphname = daggerdbl;
lastChange = "2016-08-23 09:36:32 +0000";
layers = (
{
layerId = UUID0;
paths = (
{
closed = 1;
nodes = (
"402 88 LINE",
"402 172 LINE",
"242 142 LINE",
"285 274 LINE",
"242 407 LINE",
"402 377 LINE",
"402 461 LINE",
"246 431 LINE",
"280 607 LINE",
"170 607 LINE",
"204 431 LINE",
"48 461 LINE",
"48 377 LINE",
"208 407 LINE",
"165 274 LINE",
"208 142 LINE",
"48 172 LINE",
"48 88 LINE",
"204 118 LINE",
"170 -59 LINE",
"280 -59 LINE",
"246 118 LINE"
);
}
);
width = 450;
},
{
layerId = "7C863538-AAB4-42AD-A9FE-7240E615272A";
paths = (
{
closed = 1;
nodes = (
"402 67 LINE",
"402 199 LINE",
"271 173 LINE",
"300 274 LINE",
"271 375 LINE",
"402 349 LINE",
"402 481 LINE",
"271 454 LINE",
"300 607 LINE",
"150 607 LINE",
"179 454 LINE",
"48 481 LINE",
"48 349 LINE",
"179 375 LINE",
"150 274 LINE",
"179 173 LINE",
"48 199 LINE",
"48 67 LINE",
"179 94 LINE",
"150 -59 LINE",
"300 -59 LINE",
"271 94 LINE"
);
}
);
width = 450;
}
);
unicode = 2021;
},
{
glyphname = degree;
lastChange = "2016-08-23 09:36:32 +0000";
layers = (
{
layerId = UUID0;
paths = (
{
closed = 1;
nodes = (
"162 482 LINE",
"246 482 OFFCURVE",
"295 542 OFFCURVE",
"295 618 CURVE SMOOTH",
"295 694 OFFCURVE",
"246 755 OFFCURVE",
"162 755 CURVE SMOOTH",
"79 755 OFFCURVE",
"30 694 OFFCURVE",
"30 618 CURVE SMOOTH",
"30 542 OFFCURVE",
"79 482 OFFCURVE",
"162 482 CURVE SMOOTH"
);
},
{
closed = 1;
nodes = (
"162 729 LINE",
"222 729 OFFCURVE",
"250 672 OFFCURVE",
"250 618 CURVE SMOOTH",
"250 563 OFFCURVE",
"222 508 OFFCURVE",
"162 508 CURVE SMOOTH",
"105 508 OFFCURVE",
"74 562 OFFCURVE",
"74 618 CURVE SMOOTH",
"74 673 OFFCURVE",
"104 729 OFFCURVE",
"162 729 CURVE SMOOTH"
);
}
);
width = 325;
},
{
layerId = "7C863538-AAB4-42AD-A9FE-7240E615272A";
paths = (
{
closed = 1;
nodes = (
"162 482 LINE",
"246 482 OFFCURVE",
"295 544 OFFCURVE",
"295 618 CURVE SMOOTH",
"295 692 OFFCURVE",
"246 755 OFFCURVE",
"162 755 CURVE SMOOTH",
"79 755 OFFCURVE",
"30 692 OFFCURVE",
"30 618 CURVE SMOOTH",
"30 544 OFFCURVE",
"79 482 OFFCURVE",
"162 482 CURVE SMOOTH"
);
},
{
closed = 1;
nodes = (
"162 704 LINE",
"204 704 OFFCURVE",
"226 669 OFFCURVE",
"226 618 CURVE SMOOTH",
"226 567 OFFCURVE",
"204 533 OFFCURVE",
"162 533 CURVE SMOOTH",
"122 533 OFFCURVE",
"98 567 OFFCURVE",
"98 618 CURVE SMOOTH",
"98 669 OFFCURVE",
"122 704 OFFCURVE",
"162 704 CURVE SMOOTH"
);
}
);
width = 325;
}
);
unicode = 00B0;
},
{
glyphname = dieresis;
lastChange = "2016-08-23 09:36:32 +0000";
layers = (
{
layerId = UUID0;
paths = (
{
closed = 1;
nodes = (
"335 600 LINE",
"335 700 LINE",
"265 700 LINE",
"265 600 LINE"
);
},
{
closed = 1;
nodes = (
"157 600 LINE",
"157 700 LINE",
"87 700 LINE",
"87 600 LINE"
);
}
);
width = 422;
},
{
layerId = "7C863538-AAB4-42AD-A9FE-7240E615272A";
paths = (
{
closed = 1;
nodes = (
"335 594 LINE",
"335 700 LINE",
"238 700 LINE",
"238 594 LINE"
);
},
{
closed = 1;
nodes = (
"184 594 LINE",
"184 700 LINE",
"87 700 LINE",
"87 594 LINE"
);
}
);
width = 422;
}
);
unicode = 00A8;
},
{
glyphname = divide;
lastChange = "2016-08-23 09:36:32 +0000";
layers = (
{
layerId = UUID0;
paths = (
{
closed = 1;
nodes = (
"314 440 LINE",
"314 534 LINE",
"225 534 LINE",
"225 440 LINE"
);
},
{
closed = 1;
nodes = (
"504 245 LINE",
"504 319 LINE",
"44 319 LINE",
"44 245 LINE"
);
},
{
closed = 1;
nodes = (
"314 20 LINE",
"314 114 LINE",
"225 114 LINE",
"225 20 LINE"
);
}
);
width = 548;
},
{
layerId = "7C863538-AAB4-42AD-A9FE-7240E615272A";
paths = (
{
closed = 1;
nodes = (
"332 404 LINE",
"332 534 LINE",
"208 534 LINE",
"208 404 LINE"
);
},
{
closed = 1;
nodes = (
"504 230 LINE",
"504 324 LINE",
"44 324 LINE",
"44 230 LINE"
);
},
{
closed = 1;
nodes = (
"332 20 LINE",
"332 150 LINE",
"208 150 LINE",
"208 20 LINE"
);
}
);
width = 548;
}
);
unicode = 00F7;
},
{
glyphname = dollar;
lastChange = "2016-08-23 09:36:32 +0000";
layers = (
{
layerId = UUID0;
paths = (
{
closed = 1;
nodes = (
"280 82 LINE",
"447 96 OFFCURVE",
"473 180 OFFCURVE",
"473 234 CURVE SMOOTH",
"473 432 OFFCURVE",
"144 379 OFFCURVE",
"144 488 CURVE SMOOTH",
"144 533 OFFCURVE",
"206 546 OFFCURVE",
"265 546 CURVE SMOOTH",
"314 546 OFFCURVE",
"377 524 OFFCURVE",
"432 498 CURVE",
"441 594 LINE",
"413 610 OFFCURVE",
"350 627 OFFCURVE",
"280 631 CURVE",
"296 748 LINE",
"206 748 LINE",
"223 631 LINE",
"80 618 OFFCURVE",
"37 540 OFFCURVE",
"37 476 CURVE SMOOTH",
"37 309 OFFCURVE",
"355 351 OFFCURVE",
"355 233 CURVE SMOOTH",
"355 184 OFFCURVE",
"309 170 OFFCURVE",
"245 170 CURVE SMOOTH",
"161 170 OFFCURVE",
"97 197 OFFCURVE",
"59 228 CURVE",
"47 119 LINE",
"78 102 OFFCURVE",
"141 85 OFFCURVE",
"223 81 CURVE",
"206 -32 LINE",
"295 -32 LINE"
);
}
);
width = 511;
},
{
layerId = "7C863538-AAB4-42AD-A9FE-7240E615272A";
paths = (
{
closed = 1;
nodes = (
"295 80 LINE",
"457 94 OFFCURVE",
"486 180 OFFCURVE",
"486 237 CURVE SMOOTH",
"486 438 OFFCURVE",
"159 388 OFFCURVE",
"159 485 CURVE SMOOTH",
"159 526 OFFCURVE",
"219 533 OFFCURVE",
"271 533 CURVE SMOOTH",
"320 533 OFFCURVE",
"387 510 OFFCURVE",
"443 481 CURVE",
"454 594 LINE",
"426 610 OFFCURVE",
"361 629 OFFCURVE",
"295 633 CURVE",
"311 748 LINE",
"204 748 LINE",
"220 633 LINE",
"82 620 OFFCURVE",
"37 540 OFFCURVE",
"37 473 CURVE SMOOTH",
"37 304 OFFCURVE",
"352 340 OFFCURVE",
"352 236 CURVE SMOOTH",
"352 197 OFFCURVE",
"315 183 OFFCURVE",
"250 183 CURVE SMOOTH",
"162 183 OFFCURVE",
"96 214 OFFCURVE",
"62 246 CURVE",
"45 119 LINE",
"77 100 OFFCURVE",
"142 83 OFFCURVE",
"220 79 CURVE",
"204 -32 LINE",
"311 -32 LINE"
);
}
);
width = 524;
}
);
unicode = 0024;
},
{
glyphname = dotlessi;
lastChange = "2016-08-23 09:36:32 +0000";
layers = (
{
layerId = UUID0;
paths = (
{
closed = 1;
nodes = (
"165 0 LINE",
"165 490 LINE",
"75 490 LINE",
"75 0 LINE"
);
}
);
width = 240;
},
{
layerId = "7C863538-AAB4-42AD-A9FE-7240E615272A";
paths = (
{
closed = 1;
nodes = (
"182 0 LINE",
"182 500 LINE",
"58 500 LINE",
"58 0 LINE"
);
}
);
width = 240;
}
);
leftKerningGroup = i;
rightKerningGroup = i;
unicode = 0131;
},
{
glyphname = dotlessj;
lastChange = "2016-08-23 09:36:32 +0000";
layers = (
{
layerId = UUID0;
paths = (
{
closed = 1;
nodes = (
"42 -237 LINE SMOOTH",
"93 -229 OFFCURVE",
"165 -201 OFFCURVE",
"165 -107 CURVE SMOOTH",
"165 490 LINE",
"75 490 LINE",
"75 -73 LINE SMOOTH",
"75 -152 OFFCURVE",
"61 -167 OFFCURVE",
"2 -173 CURVE",
"12 -242 LINE"
);
}
);
width = 240;
},
{
layerId = "7C863538-AAB4-42AD-A9FE-7240E615272A";
paths = (
{
closed = 1;
nodes = (
"54 -242 LINE SMOOTH",
"143 -242 OFFCURVE",
"182 -183 OFFCURVE",
"182 -111 CURVE SMOOTH",
"182 500 LINE",
"58 500 LINE",
"58 -60 LINE SMOOTH",
"58 -139 OFFCURVE",
"51 -140 OFFCURVE",
"-2 -140 CURVE",
"9 -242 LINE"
);
}
);
width = 240;
}
);
unicode = 0237;
},
{
glyphname = e;
lastChange = "2016-08-23 09:36:32 +0000";
layers = (
{
layerId = UUID0;
paths = (
{
closed = 1;
nodes = (
"480 245 LINE",
"483 262 OFFCURVE",
"484 279 OFFCURVE",
"484 293 CURVE SMOOTH",
"484 425 OFFCURVE",
"395 500 OFFCURVE",
"273 500 CURVE SMOOTH",
"121 500 OFFCURVE",
"33 386 OFFCURVE",
"33 249 CURVE SMOOTH",
"33 108 OFFCURVE",
"125 -10 OFFCURVE",
"298 -10 CURVE SMOOTH",
"369 -10 OFFCURVE",
"424 11 OFFCURVE",
"462 28 CURVE",
"450 99 LINE",
"406 79 OFFCURVE",
"354 70 OFFCURVE",
"309 70 CURVE SMOOTH",
"216 70 OFFCURVE",
"138 109 OFFCURVE",
"125 245 CURVE"
);
},
{
closed = 1;
nodes = (
"271 420 LINE SMOOTH",
"353 420 OFFCURVE",
"391 376 OFFCURVE",
"391 307 CURVE",
"133 307 LINE",
"151 378 OFFCURVE",
"191 420 OFFCURVE",
"271 420 CURVE SMOOTH"
);
}
);
width = 506;
},
{
layerId = "7C863538-AAB4-42AD-A9FE-7240E615272A";
paths = (
{
closed = 1;
nodes = (
"480 223 LINE",
"485 247 OFFCURVE",
"488 269 OFFCURVE",
"488 291 CURVE SMOOTH",
"488 423 OFFCURVE",
"394 508 OFFCURVE",
"268 508 CURVE SMOOTH",
"114 508 OFFCURVE",
"28 388 OFFCURVE",
"28 249 CURVE SMOOTH",
"28 109 OFFCURVE",
"118 -10 OFFCURVE",
"299 -10 CURVE SMOOTH",
"370 -10 OFFCURVE",
"428 8 OFFCURVE",
"466 28 CURVE",
"460 133 LINE",
"419 111 OFFCURVE",
"353 92 OFFCURVE",
"306 92 CURVE SMOOTH",
"240 92 OFFCURVE",
"171 130 OFFCURVE",
"157 223 CURVE"
);
},
{
closed = 1;
nodes = (
"272 406 LINE SMOOTH",
"339 406 OFFCURVE",
"362 352 OFFCURVE",
"362 307 CURVE",
"160 307 LINE",
"172 364 OFFCURVE",
"208 406 OFFCURVE",
"272 406 CURVE SMOOTH"
);
}
);
width = 515;
}
);
leftKerningGroup = o;
rightKerningGroup = e;
unicode = 0065;
},
{
glyphname = eight;
lastChange = "2016-08-23 09:36:32 +0000";
layers = (
{
layerId = UUID0;
paths = (
{
closed = 1;
nodes = (
"290 -14 LINE",
"467 -14 OFFCURVE",
"543 103 OFFCURVE",
"543 198 CURVE SMOOTH",
"543 293 OFFCURVE",
"494 350 OFFCURVE",
"387 387 CURVE",
"473 447 OFFCURVE",
"504 481 OFFCURVE",
"504 555 CURVE SMOOTH",
"504 631 OFFCURVE",
"456 713 OFFCURVE",
"302 713 CURVE SMOOTH",
"141 713 OFFCURVE",
"94 624 OFFCURVE",
"94 540 CURVE SMOOTH",
"94 484 OFFCURVE",
"115 432 OFFCURVE",
"187 376 CURVE",
"78 318 OFFCURVE",
"53 248 OFFCURVE",
"53 189 CURVE SMOOTH",
"53 93 OFFCURVE",
"120 -14 OFFCURVE",
"290 -14 CURVE SMOOTH"
);
},
{
closed = 1;
nodes = (
"297 628 LINE",
"369 628 OFFCURVE",
"409 597 OFFCURVE",
"409 545 CURVE SMOOTH",
"409 495 OFFCURVE",
"373 445 OFFCURVE",
"292 421 CURVE",
"226 446 OFFCURVE",
"181 488 OFFCURVE",
"181 534 CURVE SMOOTH",
"181 593 OFFCURVE",
"225 628 OFFCURVE",
"297 628 CURVE SMOOTH"
);
},
{
closed = 1;
nodes = (
"300 338 LINE",
"377 319 OFFCURVE",
"442 271 OFFCURVE",
"442 199 CURVE SMOOTH",
"442 124 OFFCURVE",
"377 72 OFFCURVE",
"294 72 CURVE SMOOTH",
"208 72 OFFCURVE",
"157 110 OFFCURVE",
"157 189 CURVE SMOOTH",
"157 275 OFFCURVE",
"217 322 OFFCURVE",
"300 338 CURVE"
);
}
);
width = 596;
},
{
layerId = "7C863538-AAB4-42AD-A9FE-7240E615272A";
paths = (
{
closed = 1;
nodes = (
"288 -14 LINE",
"467 -14 OFFCURVE",
"543 104 OFFCURVE",
"543 204 CURVE SMOOTH",
"543 287 OFFCURVE",
"491 353 OFFCURVE",
"419 386 CURVE",
"473 431 OFFCURVE",
"505 484 OFFCURVE",
"505 552 CURVE SMOOTH",
"505 637 OFFCURVE",
"454 714 OFFCURVE",
"302 714 CURVE SMOOTH",
"142 714 OFFCURVE",
"92 628 OFFCURVE",
"92 537 CURVE SMOOTH",
"92 481 OFFCURVE",
"111 417 OFFCURVE",
"161 377 CURVE",
"80 318 OFFCURVE",
"53 248 OFFCURVE",
"53 185 CURVE SMOOTH",
"53 83 OFFCURVE",
"125 -14 OFFCURVE",
"288 -14 CURVE SMOOTH"
);
},
{
closed = 1;
nodes = (
"297 614 LINE",
"365 614 OFFCURVE",
"387 574 OFFCURVE",
"387 530 CURVE SMOOTH",
"387 486 OFFCURVE",
"365 445 OFFCURVE",
"292 425 CURVE",
"220 445 OFFCURVE",
"204 486 OFFCURVE",
"204 525 CURVE SMOOTH",
"204 573 OFFCURVE",
"228 614 OFFCURVE",
"297 614 CURVE SMOOTH"
);
},
{
closed = 1;
nodes = (
"301 332 LINE",
"362 318 OFFCURVE",
"417 275 OFFCURVE",
"417 200 CURVE SMOOTH",
"417 133 OFFCURVE",
"372 88 OFFCURVE",
"293 88 CURVE SMOOTH",
"220 88 OFFCURVE",
"175 127 OFFCURVE",
"175 195 CURVE SMOOTH",
"175 276 OFFCURVE",
"239 322 OFFCURVE",
"301 332 CURVE"
);
}
);
width = 596;
}
);
unicode = 0038;
},
{
glyphname = eightinferior;
lastChange = "2016-08-23 09:36:32 +0000";
layers = (
{
layerId = UUID0;
paths = (
{
closed = 1;
nodes = (
"197 -8 LINE",
"301 -8 OFFCURVE",
"345 56 OFFCURVE",
"345 111 CURVE SMOOTH",
"345 154 OFFCURVE",
"315 191 OFFCURVE",
"273 208 CURVE",
"305 231 OFFCURVE",
"323 262 OFFCURVE",
"323 298 CURVE SMOOTH",
"323 345 OFFCURVE",
"294 386 OFFCURVE",
"205 386 CURVE SMOOTH",
"113 386 OFFCURVE",
"84 339 OFFCURVE",
"84 290 CURVE SMOOTH",
"84 259 OFFCURVE",
"95 224 OFFCURVE",
"124 204 CURVE",
"77 172 OFFCURVE",
"61 134 OFFCURVE",
"61 100 CURVE SMOOTH",
"61 44 OFFCURVE",
"103 -8 OFFCURVE",
"197 -8 CURVE SMOOTH"
);
},
{
closed = 1;
nodes = (
"203 330 LINE",
"242 330 OFFCURVE",
"255 308 OFFCURVE",
"255 285 CURVE SMOOTH",
"255 262 OFFCURVE",
"242 240 OFFCURVE",
"200 230 CURVE",
"158 240 OFFCURVE",
"149 262 OFFCURVE",
"149 283 CURVE SMOOTH",
"149 308 OFFCURVE",
"163 330 OFFCURVE",
"203 330 CURVE SMOOTH"
);
},
{
closed = 1;
nodes = (
"205 179 LINE",
"240 172 OFFCURVE",
"272 149 OFFCURVE",
"272 108 CURVE SMOOTH",
"272 73 OFFCURVE",
"246 49 OFFCURVE",
"200 49 CURVE SMOOTH",
"158 49 OFFCURVE",
"132 70 OFFCURVE",
"132 106 CURVE SMOOTH",
"132 149 OFFCURVE",
"169 174 OFFCURVE",
"205 179 CURVE"
);
}
);
width = 406;
},
{
layerId = "7C863538-AAB4-42AD-A9FE-7240E615272A";
paths = (
{
closed = 1;
nodes = (
"196 -8 LINE",
"301 -8 OFFCURVE",
"345 57 OFFCURVE",
"345 115 CURVE SMOOTH",
"345 150 OFFCURVE",
"313 193 OFFCURVE",
"298 208 CURVE",
"305 219 OFFCURVE",
"324 264 OFFCURVE",
"324 296 CURVE SMOOTH",
"324 349 OFFCURVE",
"292 386 OFFCURVE",
"205 386 CURVE SMOOTH",
"113 386 OFFCURVE",
"82 342 OFFCURVE",
"82 287 CURVE SMOOTH",
"82 257 OFFCURVE",
"91 213 OFFCURVE",
"103 204 CURVE",
"78 172 OFFCURVE",
"61 134 OFFCURVE",
"61 97 CURVE SMOOTH",
"61 36 OFFCURVE",
"107 -8 OFFCURVE",
"196 -8 CURVE SMOOTH"
);
},
{
closed = 1;
nodes = (
"203 320 LINE",
"239 320 OFFCURVE",
"237 291 OFFCURVE",
"237 274 CURVE SMOOTH",
"237 255 OFFCURVE",
"236 240 OFFCURVE",
"200 233 CURVE",
"153 239 OFFCURVE",
"167 261 OFFCURVE",
"167 276 CURVE SMOOTH",
"167 293 OFFCURVE",
"165 320 OFFCURVE",
"203 320 CURVE SMOOTH"
);
},
{
closed = 1;
nodes = (
"206 174 LINE",
"228 171 OFFCURVE",
"252 152 OFFCURVE",
"252 109 CURVE SMOOTH",
"252 79 OFFCURVE",
"242 61 OFFCURVE",
"199 61 CURVE SMOOTH",
"167 61 OFFCURVE",
"146 83 OFFCURVE",
"146 110 CURVE SMOOTH",
"146 150 OFFCURVE",
"186 174 OFFCURVE",
"206 174 CURVE"
);
}
);
width = 406;
}
);
unicode = 2088;
},
{
glyphname = eightsuperior;
lastChange = "2016-08-23 09:36:32 +0000";
layers = (
{
layerId = UUID0;
paths = (
{
closed = 1;
nodes = (
"197 312 LINE",
"301 312 OFFCURVE",
"345 376 OFFCURVE",
"345 431 CURVE SMOOTH",
"345 474 OFFCURVE",
"315 511 OFFCURVE",
"273 528 CURVE",
"305 551 OFFCURVE",
"323 582 OFFCURVE",
"323 618 CURVE SMOOTH",
"323 665 OFFCURVE",
"294 706 OFFCURVE",
"205 706 CURVE SMOOTH",
"113 706 OFFCURVE",
"84 659 OFFCURVE",
"84 610 CURVE SMOOTH",
"84 579 OFFCURVE",
"95 544 OFFCURVE",
"124 524 CURVE",
"77 492 OFFCURVE",
"61 454 OFFCURVE",
"61 420 CURVE SMOOTH",
"61 364 OFFCURVE",
"103 312 OFFCURVE",
"197 312 CURVE SMOOTH"
);
},
{
closed = 1;
nodes = (
"203 650 LINE",
"242 650 OFFCURVE",
"255 628 OFFCURVE",
"255 605 CURVE SMOOTH",
"255 582 OFFCURVE",
"242 560 OFFCURVE",
"200 550 CURVE",
"158 560 OFFCURVE",
"149 582 OFFCURVE",
"149 603 CURVE SMOOTH",
"149 628 OFFCURVE",
"163 650 OFFCURVE",
"203 650 CURVE SMOOTH"
);
},
{
closed = 1;
nodes = (
"205 499 LINE",
"240 492 OFFCURVE",
"272 469 OFFCURVE",
"272 428 CURVE SMOOTH",
"272 393 OFFCURVE",
"246 369 OFFCURVE",
"200 369 CURVE SMOOTH",
"158 369 OFFCURVE",
"132 390 OFFCURVE",
"132 426 CURVE SMOOTH",
"132 469 OFFCURVE",
"169 494 OFFCURVE",
"205 499 CURVE"
);
}
);
width = 406;
},
{
layerId = "7C863538-AAB4-42AD-A9FE-7240E615272A";
paths = (
{
closed = 1;
nodes = (
"196 312 LINE",
"301 312 OFFCURVE",
"345 377 OFFCURVE",
"345 435 CURVE SMOOTH",
"345 470 OFFCURVE",
"313 513 OFFCURVE",
"298 528 CURVE",
"305 539 OFFCURVE",
"324 584 OFFCURVE",
"324 616 CURVE SMOOTH",
"324 669 OFFCURVE",
"292 706 OFFCURVE",
"205 706 CURVE SMOOTH",
"113 706 OFFCURVE",
"82 662 OFFCURVE",
"82 607 CURVE SMOOTH",
"82 577 OFFCURVE",
"91 533 OFFCURVE",
"103 524 CURVE",
"78 492 OFFCURVE",
"61 454 OFFCURVE",
"61 417 CURVE SMOOTH",
"61 356 OFFCURVE",
"107 312 OFFCURVE",
"196 312 CURVE SMOOTH"
);
},
{
closed = 1;
nodes = (
"203 640 LINE",
"239 640 OFFCURVE",
"237 611 OFFCURVE",
"237 594 CURVE SMOOTH",
"237 575 OFFCURVE",
"236 560 OFFCURVE",
"200 553 CURVE",
"153 559 OFFCURVE",
"167 581 OFFCURVE",
"167 596 CURVE SMOOTH",
"167 613 OFFCURVE",
"165 640 OFFCURVE",
"203 640 CURVE SMOOTH"
);
},
{
closed = 1;
nodes = (
"206 494 LINE",
"228 491 OFFCURVE",
"252 472 OFFCURVE",
"252 429 CURVE SMOOTH",
"252 399 OFFCURVE",
"242 381 OFFCURVE",
"199 381 CURVE SMOOTH",
"167 381 OFFCURVE",
"146 403 OFFCURVE",
"146 430 CURVE SMOOTH",
"146 470 OFFCURVE",
"186 494 OFFCURVE",
"206 494 CURVE"
);
}
);
width = 406;
}
);
unicode = 2078;
},
{
glyphname = ellipsis;
lastChange = "2016-08-23 09:36:32 +0000";
layers = (
{
layerId = UUID0;
paths = (
{
closed = 1;
nodes = (
"166 0 LINE",
"166 86 LINE",
"76 86 LINE",
"76 0 LINE"
);
},
{
closed = 1;
nodes = (
"402 0 LINE",
"402 86 LINE",
"312 86 LINE",
"312 0 LINE"
);
},
{
closed = 1;
nodes = (
"638 0 LINE",
"638 86 LINE",
"548 86 LINE",
"548 0 LINE"
);
}
);
width = 708;
},
{
layerId = "7C863538-AAB4-42AD-A9FE-7240E615272A";
paths = (
{
closed = 1;
nodes = (
"180 0 LINE",
"180 130 LINE",
"56 130 LINE",
"56 0 LINE"
);
},
{
closed = 1;
nodes = (
"416 0 LINE",
"416 130 LINE",
"292 130 LINE",
"292 0 LINE"
);
},
{
closed = 1;
nodes = (
"652 0 LINE",
"652 130 LINE",
"528 130 LINE",
"528 0 LINE"
);
}
);
width = 708;
}
);
leftKerningGroup = period;
unicode = 2026;
},
{
glyphname = emdash;
lastChange = "2016-08-23 09:36:32 +0000";
layers = (
{
layerId = UUID0;
paths = (
{
closed = 1;
nodes = (
"529 238 LINE",
"529 324 LINE",
"49 324 LINE",
"49 238 LINE"
);
}
);
width = 578;
},
{
layerId = "7C863538-AAB4-42AD-A9FE-7240E615272A";
paths = (
{
closed = 1;
nodes = (
"529 230 LINE",
"529 324 LINE",
"49 324 LINE",
"49 230 LINE"
);
}
);
width = 578;
}
);
leftKerningGroup = hyphen;
rightKerningGroup = hyphen;
unicode = 2014;
},
{
glyphname = endash;
lastChange = "2016-08-23 09:36:32 +0000";
layers = (
{
layerId = UUID0;
paths = (
{
closed = 1;
nodes = (
"437 238 LINE",
"437 324 LINE",
"49 324 LINE",
"49 238 LINE"
);
}
);
width = 486;
},
{
layerId = "7C863538-AAB4-42AD-A9FE-7240E615272A";
paths = (
{
closed = 1;
nodes = (
"437 230 LINE",
"437 324 LINE",
"49 324 LINE",
"49 230 LINE"
);
}
);
width = 486;
}
);
leftKerningGroup = hyphen;
rightKerningGroup = hyphen;
unicode = 2013;
},
{
glyphname = equal;
lastChange = "2016-08-23 09:36:32 +0000";
layers = (
{
layerId = UUID0;
paths = (
{
closed = 1;
nodes = (
"431 318 LINE",
"431 394 LINE",
"61 394 LINE",
"61 318 LINE"
);
},
{
closed = 1;
nodes = (
"431 160 LINE",
"431 236 LINE",
"61 236 LINE",
"61 160 LINE"
);
}
);
width = 492;
},
{
layerId = "7C863538-AAB4-42AD-A9FE-7240E615272A";
paths = (
{
closed = 1;
nodes = (
"431 310 LINE",
"431 404 LINE",
"61 404 LINE",
"61 310 LINE"
);
},
{
closed = 1;
nodes = (
"431 150 LINE",
"431 244 LINE",
"61 244 LINE",
"61 150 LINE"
);
}
);
width = 492;
}
);
unicode = 003D;
},
{
glyphname = eth;
lastChange = "2016-08-23 09:36:32 +0000";
layers = (
{
layerId = UUID0;
paths = (
{
closed = 1;
nodes = (
"240 -12 LINE",
"338 -12 OFFCURVE",
"475 42 OFFCURVE",
"475 257 CURVE SMOOTH",
"475 394 OFFCURVE",
"418 535 OFFCURVE",
"332 614 CURVE",
"363 648 OFFCURVE",
"382 670 OFFCURVE",
"401 698 CURVE",
"355 710 LINE",
"339 689 OFFCURVE",
"325 672 OFFCURVE",
"296 646 CURVE",
"241 685 OFFCURVE",
"186 701 OFFCURVE",
"147 701 CURVE",
"115 659 LINE",
"155 659 OFFCURVE",
"197 640 OFFCURVE",
"236 605 CURVE",
"183 570 OFFCURVE",
"143 558 OFFCURVE",
"108 553 CURVE",
"138 498 LINE",
"184 504 OFFCURVE",
"228 524 OFFCURVE",
"279 560 CURVE",
"323 524 OFFCURVE",
"357 429 OFFCURVE",
"365 371 CURVE",
"343 395 OFFCURVE",
"298 426 OFFCURVE",
"230 426 CURVE SMOOTH",
"83 426 OFFCURVE",
"19 302 OFFCURVE",
"19 201 CURVE SMOOTH",
"19 78 OFFCURVE",
"114 -12 OFFCURVE",
"240 -12 CURVE SMOOTH"
);
},
{
closed = 1;
nodes = (
"245 343 LINE SMOOTH",
"318 343 OFFCURVE",
"364 287 OFFCURVE",
"364 208 CURVE SMOOTH",
"364 129 OFFCURVE",
"316 71 OFFCURVE",
"244 71 CURVE SMOOTH",
"167 71 OFFCURVE",
"119 134 OFFCURVE",
"119 210 CURVE SMOOTH",
"119 279 OFFCURVE",
"166 343 OFFCURVE",
"245 343 CURVE SMOOTH"
);
}
);
width = 512;
},
{
layerId = "7C863538-AAB4-42AD-A9FE-7240E615272A";
paths = (
{
closed = 1;
nodes = (
"246 -13 LINE",
"349 -13 OFFCURVE",
"476 45 OFFCURVE",
"476 258 CURVE SMOOTH",
"476 397 OFFCURVE",
"422 520 OFFCURVE",
"347 601 CURVE",
"372 629 OFFCURVE",
"394 661 OFFCURVE",
"416 695 CURVE",
"349 711 LINE",
"335 690 OFFCURVE",
"315 669 OFFCURVE",
"293 649 CURVE",
"247 682 OFFCURVE",
"197 700 OFFCURVE",
"148 701 CURVE",
"107 648 LINE",
"148 647 OFFCURVE",
"189 628 OFFCURVE",
"225 598 CURVE",
"183 571 OFFCURVE",
"139 554 OFFCURVE",
"105 554 CURVE",
"144 481 LINE",
"194 486 OFFCURVE",
"240 507 OFFCURVE",
"281 538 CURVE",
"315 516 OFFCURVE",
"345 424 OFFCURVE",
"349 387 CURVE",
"322 408 OFFCURVE",
"288 426 OFFCURVE",
"232 426 CURVE SMOOTH",
"91 426 OFFCURVE",
"20 313 OFFCURVE",
"20 205 CURVE SMOOTH",
"20 78 OFFCURVE",
"118 -13 OFFCURVE",
"246 -13 CURVE SMOOTH"
);
},
{
closed = 1;
nodes = (
"245 329 LINE SMOOTH",
"318 329 OFFCURVE",
"356 283 OFFCURVE",
"356 207 CURVE SMOOTH",
"356 122 OFFCURVE",
"302 88 OFFCURVE",
"248 88 CURVE SMOOTH",
"173 88 OFFCURVE",
"138 152 OFFCURVE",
"138 220 CURVE SMOOTH",
"138 270 OFFCURVE",
"172 329 OFFCURVE",
"245 329 CURVE SMOOTH"
);
}
);
width = 512;
}
);
unicode = 00F0;
},
{
glyphname = exclam;
lastChange = "2016-08-23 09:36:32 +0000";
layers = (
{
layerId = UUID0;
paths = (
{
closed = 1;
nodes = (
"188 750 LINE",
"64 750 LINE",
"94 200 LINE",
"158 200 LINE"
);
},
{
closed = 1;
nodes = (
"168 0 LINE",
"168 86 LINE",
"84 86 LINE",
"84 0 LINE"
);
}
);
width = 252;
},
{
layerId = "7C863538-AAB4-42AD-A9FE-7240E615272A";
paths = (
{
closed = 1;
nodes = (
"188 750 LINE",
"64 750 LINE",
"84 200 LINE",
"168 200 LINE"
);
},
{
closed = 1;
nodes = (
"188 0 LINE",
"188 124 LINE",
"64 124 LINE",
"64 0 LINE"
);
}
);
width = 252;
}
);
unicode = 0021;
},
{
glyphname = exclamdown;
lastChange = "2016-08-23 09:36:32 +0000";
layers = (
{
layerId = UUID0;
paths = (
{
closed = 1;
nodes = (
"64 -250 LINE",
"188 -250 LINE",
"158 300 LINE",
"94 300 LINE"
);
},
{
closed = 1;
nodes = (
"84 500 LINE",
"84 414 LINE",
"168 414 LINE",
"168 500 LINE"
);
}
);
width = 252;
},
{
layerId = "7C863538-AAB4-42AD-A9FE-7240E615272A";
paths = (
{
closed = 1;
nodes = (
"64 -250 LINE",
"188 -250 LINE",
"168 300 LINE",
"84 300 LINE"
);
},
{
closed = 1;
nodes = (
"64 500 LINE",
"64 376 LINE",
"188 376 LINE",
"188 500 LINE"
);
}
);
width = 252;
}
);
unicode = 00A1;
},
{
glyphname = f;
lastChange = "2016-08-23 09:36:32 +0000";
layers = (
{
layerId = UUID0;
paths = (
{
closed = 1;
nodes = (
"323 420 LINE",
"323 490 LINE",
"191 490 LINE",
"191 550 LINE SMOOTH",
"191 650 OFFCURVE",
"196 670 OFFCURVE",
"243 670 CURVE SMOOTH",
"262 670 OFFCURVE",
"281 668 OFFCURVE",
"303 661 CURVE",
"317 737 LINE",
"293 745 OFFCURVE",
"272 750 OFFCURVE",
"215 750 CURVE SMOOTH",
"140 750 OFFCURVE",
"101 693 OFFCURVE",
"101 614 CURVE SMOOTH",
"101 490 LINE",
"28 490 LINE",
"16 420 LINE",
"101 420 LINE",
"101 0 LINE",
"191 0 LINE",
"191 420 LINE"
);
}
);
width = 341;
},
{
layerId = "7C863538-AAB4-42AD-A9FE-7240E615272A";
paths = (
{
closed = 1;
nodes = (
"323 398 LINE",
"323 500 LINE",
"213 500 LINE",
"213 568 LINE SMOOTH",
"213 629 OFFCURVE",
"221 646 OFFCURVE",
"258 646 CURVE SMOOTH",
"266 646 OFFCURVE",
"289 646 OFFCURVE",
"311 641 CURVE",
"322 744 LINE",
"289 747 OFFCURVE",
"275 750 OFFCURVE",
"209 750 CURVE SMOOTH",
"128 750 OFFCURVE",
"89 684 OFFCURVE",
"89 619 CURVE SMOOTH",
"89 500 LINE",
"29 500 LINE",
"18 398 LINE",
"89 398 LINE",
"89 0 LINE",
"213 0 LINE",
"213 398 LINE"
);
}
);
width = 341;
}
);
leftKerningGroup = f;
unicode = 0066;
},
{
glyphname = five;
lastChange = "2016-08-23 09:36:32 +0000";
layers = (
{
layerId = UUID0;
paths = (
{
closed = 1;
nodes = (
"219 -14 LINE",
"358 -14 OFFCURVE",
"488 83 OFFCURVE",
"488 236 CURVE SMOOTH",
"488 374 OFFCURVE",
"405 438 OFFCURVE",
"186 440 CURVE",
"206 614 LINE",
"439 614 LINE",
"448 700 LINE",
"130 700 LINE",
"88 355 LINE",
"173 355 LINE SMOOTH",
"325 355 OFFCURVE",
"384 315 OFFCURVE",
"384 232 CURVE SMOOTH",
"384 138 OFFCURVE",
"308 72 OFFCURVE",
"218 72 CURVE SMOOTH",
"173 72 OFFCURVE",
"116 89 OFFCURVE",
"73 114 CURVE",
"50 25 LINE",
"65 9 OFFCURVE",
"152 -14 OFFCURVE",
"219 -14 CURVE SMOOTH"
);
}
);
width = 536;
},
{
layerId = "7C863538-AAB4-42AD-A9FE-7240E615272A";
paths = (
{
closed = 1;
nodes = (
"232 -13 LINE",
"361 -13 OFFCURVE",
"487 68 OFFCURVE",
"487 231 CURVE SMOOTH",
"487 374 OFFCURVE",
"402 437 OFFCURVE",
"208 439 CURVE",
"225 576 LINE",
"437 576 LINE",
"450 700 LINE",
"129 700 LINE",
"85 332 LINE",
"192 332 LINE SMOOTH",
"336 332 OFFCURVE",
"363 283 OFFCURVE",
"363 226 CURVE SMOOTH",
"363 137 OFFCURVE",
"297 107 OFFCURVE",
"228 107 CURVE SMOOTH",
"167 107 OFFCURVE",
"111 131 OFFCURVE",
"79 159 CURVE",
"49 43 LINE",
"53 26 OFFCURVE",
"143 -13 OFFCURVE",
"232 -13 CURVE SMOOTH"
);
}
);
width = 536;
}
);
unicode = 0035;
},
{
glyphname = fiveinferior;
lastChange = "2016-08-23 09:36:32 +0000";
layers = (
{
layerId = UUID0;
paths = (
{
closed = 1;
nodes = (
"164 -7 LINE",
"239 -7 OFFCURVE",
"312 35 OFFCURVE",
"312 124 CURVE SMOOTH",
"312 202 OFFCURVE",
"263 236 OFFCURVE",
"150 237 CURVE",
"160 308 LINE",
"283 308 LINE",
"291 378 LINE",
"104 378 LINE",
"79 177 LINE",
"141 177 LINE SMOOTH",
"224 177 OFFCURVE",
"240 150 OFFCURVE",
"240 122 CURVE SMOOTH",
"240 74 OFFCURVE",
"202 61 OFFCURVE",
"162 61 CURVE SMOOTH",
"126 61 OFFCURVE",
"94 74 OFFCURVE",
"75 90 CURVE",
"58 25 LINE",
"60 16 OFFCURVE",
"112 -7 OFFCURVE",
"164 -7 CURVE SMOOTH"
);
}
);
width = 370;
},
{
layerId = "7C863538-AAB4-42AD-A9FE-7240E615272A";
paths = (
{
closed = 1;
nodes = (
"174 -6 LINE",
"241 -6 OFFCURVE",
"311 24 OFFCURVE",
"311 121 CURVE SMOOTH",
"311 202 OFFCURVE",
"260 235 OFFCURVE",
"168 236 CURVE",
"175 279 LINE",
"282 279 LINE",
"292 378 LINE",
"104 378 LINE",
"77 160 LINE",
"156 160 LINE SMOOTH",
"233 160 OFFCURVE",
"224 126 OFFCURVE",
"224 117 CURVE SMOOTH",
"224 73 OFFCURVE",
"193 87 OFFCURVE",
"170 87 CURVE SMOOTH",
"122 87 OFFCURVE",
"90 106 OFFCURVE",
"80 124 CURVE",
"57 38 LINE",
"51 28 OFFCURVE",
"106 -6 OFFCURVE",
"174 -6 CURVE SMOOTH"
);
}
);
width = 370;
}
);
unicode = 2085;
},
{
glyphname = fivesuperior;
lastChange = "2016-08-23 09:36:32 +0000";
layers = (
{
layerId = UUID0;
paths = (
{
closed = 1;
nodes = (
"164 313 LINE",
"239 313 OFFCURVE",
"312 355 OFFCURVE",
"312 444 CURVE SMOOTH",
"312 522 OFFCURVE",
"263 556 OFFCURVE",
"150 557 CURVE",
"160 628 LINE",
"283 628 LINE",
"291 698 LINE",
"104 698 LINE",
"79 497 LINE",
"141 497 LINE SMOOTH",
"224 497 OFFCURVE",
"240 470 OFFCURVE",
"240 442 CURVE SMOOTH",
"240 394 OFFCURVE",
"202 381 OFFCURVE",
"162 381 CURVE SMOOTH",
"126 381 OFFCURVE",
"94 394 OFFCURVE",
"75 410 CURVE",
"58 345 LINE",
"60 336 OFFCURVE",
"112 313 OFFCURVE",
"164 313 CURVE SMOOTH"
);
}
);
width = 370;
},
{
layerId = "7C863538-AAB4-42AD-A9FE-7240E615272A";
paths = (
{
closed = 1;
nodes = (
"174 314 LINE",
"241 314 OFFCURVE",
"311 344 OFFCURVE",
"311 441 CURVE SMOOTH",
"311 522 OFFCURVE",
"260 555 OFFCURVE",
"168 556 CURVE",
"175 599 LINE",
"282 599 LINE",
"292 698 LINE",
"104 698 LINE",
"77 480 LINE",
"156 480 LINE SMOOTH",
"233 480 OFFCURVE",
"224 446 OFFCURVE",
"224 437 CURVE SMOOTH",
"224 393 OFFCURVE",
"193 407 OFFCURVE",
"170 407 CURVE SMOOTH",
"122 407 OFFCURVE",
"90 426 OFFCURVE",
"80 444 CURVE",
"57 358 LINE",
"51 348 OFFCURVE",
"106 314 OFFCURVE",
"174 314 CURVE SMOOTH"
);
}
);
width = 370;
}
);
unicode = 2075;
},
{
glyphname = florin;
lastChange = "2016-08-23 09:36:32 +0000";
layers = (
{
layerId = UUID0;
paths = (
{
closed = 1;
nodes = (
"382 703 LINE",
"364 709 OFFCURVE",
"347 714 OFFCURVE",
"330 714 CURVE SMOOTH",
"239 714 OFFCURVE",
"162 656 OFFCURVE",
"146 551 CURVE SMOOTH",
"137 490 LINE",
"41 490 LINE",
"34 434 LINE",
"128 434 LINE",
"48 -77 LINE SMOOTH",
"38 -142 OFFCURVE",
"15 -170 OFFCURVE",
"-23 -178 CURVE",
"-10 -241 LINE",
"3 -241 LINE SMOOTH",
"28 -241 OFFCURVE",
"95 -213 OFFCURVE",
"115 -92 CURVE SMOOTH",
"201 434 LINE",
"354 434 LINE",
"360 490 LINE",
"212 490 LINE",
"232 608 OFFCURVE",
"258 656 OFFCURVE",
"343 656 CURVE SMOOTH",
"353 656 OFFCURVE",
"366 654 OFFCURVE",
"375 648 CURVE"
);
}
);
width = 361;
},
{
layerId = "7C863538-AAB4-42AD-A9FE-7240E615272A";
paths = (
{
closed = 1;
nodes = (
"384 702 LINE",
"360 710 OFFCURVE",
"337 714 OFFCURVE",
"314 714 CURVE SMOOTH",
"220 714 OFFCURVE",
"145 648 OFFCURVE",
"128 539 CURVE SMOOTH",
"122 500 LINE",
"41 500 LINE",
"32 418 LINE",
"110 418 LINE",
"40 -60 LINE SMOOTH",
"30 -129 OFFCURVE",
"9 -140 OFFCURVE",
"-29 -140 CURVE",
"-9 -242 LINE",
"22 -242 LINE SMOOTH",
"59 -242 OFFCURVE",
"124 -202 OFFCURVE",
"143 -81 CURVE SMOOTH",
"221 418 LINE",
"353 418 LINE",
"361 500 LINE",
"234 500 LINE",
"248 586 OFFCURVE",
"267 615 OFFCURVE",
"325 615 CURVE SMOOTH",
"339 615 OFFCURVE",
"355 612 OFFCURVE",
"373 608 CURVE"
);
}
);
width = 361;
}
);
unicode = 0192;
},
{
glyphname = four;
lastChange = "2016-08-23 09:36:32 +0000";
layers = (
{
layerId = UUID0;
paths = (
{
closed = 1;
nodes = (
"510 190 LINE",
"510 276 LINE",
"425 276 LINE",
"425 700 LINE",
"346 700 LINE",
"24 190 LINE",
"325 190 LINE",
"325 0 LINE",
"425 0 LINE",
"425 190 LINE"
);
},
{
closed = 1;
nodes = (
"325 276 LINE",
"172 276 LINE",
"325 530 LINE"
);
}
);
width = 581;
},
{
layerId = "7C863538-AAB4-42AD-A9FE-7240E615272A";
paths = (
{
closed = 1;
nodes = (
"524 190 LINE",
"524 294 LINE",
"439 294 LINE",
"439 700 LINE",
"332 700 LINE",
"10 190 LINE",
"311 190 LINE",
"311 0 LINE",
"439 0 LINE",
"439 190 LINE"
);
},
{
closed = 1;
nodes = (
"311 294 LINE",
"184 294 LINE",
"311 504 LINE"
);
}
);
width = 581;
}
);
unicode = 0034;
},
{
glyphname = fourinferior;
lastChange = "2016-08-23 09:36:32 +0000";
layers = (
{
layerId = UUID0;
paths = (
{
closed = 1;
nodes = (
"334 103 LINE",
"334 160 LINE",
"285 160 LINE",
"285 378 LINE",
"223 378 LINE",
"36 103 LINE",
"211 103 LINE",
"211 0 LINE",
"285 0 LINE",
"285 103 LINE"
);
},
{
closed = 1;
nodes = (
"211 160 LINE",
"137 160 LINE",
"211 270 LINE"
);
}
);
width = 397;
},
{
layerId = "7C863538-AAB4-42AD-A9FE-7240E615272A";
paths = (
{
closed = 1;
nodes = (
"345 103 LINE",
"345 174 LINE",
"296 174 LINE",
"296 378 LINE",
"212 378 LINE",
"25 103 LINE",
"200 103 LINE",
"200 0 LINE",
"296 0 LINE",
"296 103 LINE"
);
},
{
closed = 1;
nodes = (
"200 174 LINE",
"146 174 LINE",
"200 250 LINE"
);
}
);
width = 397;
}
);
unicode = 2084;
},
{
glyphname = foursuperior;
lastChange = "2016-08-23 09:36:32 +0000";
layers = (
{
layerId = UUID0;
paths = (
{
closed = 1;
nodes = (
"334 423 LINE",
"334 480 LINE",
"285 480 LINE",
"285 698 LINE",
"223 698 LINE",
"36 423 LINE",
"211 423 LINE",
"211 320 LINE",
"285 320 LINE",
"285 423 LINE"
);
},
{
closed = 1;
nodes = (
"211 480 LINE",
"137 480 LINE",
"211 590 LINE"
);
}
);
width = 397;
},
{
layerId = "7C863538-AAB4-42AD-A9FE-7240E615272A";
paths = (
{
closed = 1;
nodes = (
"345 423 LINE",
"345 494 LINE",
"296 494 LINE",
"296 698 LINE",
"212 698 LINE",
"25 423 LINE",
"200 423 LINE",
"200 320 LINE",
"296 320 LINE",
"296 423 LINE"
);
},
{
closed = 1;
nodes = (
"200 494 LINE",
"146 494 LINE",
"200 570 LINE"
);
}
);
width = 397;
}
);
unicode = 2074;
},
{
glyphname = g;
lastChange = "2016-08-23 09:36:32 +0000";
layers = (
{
layerId = UUID0;
paths = (
{
closed = 1;
nodes = (
"253 -250 LINE",
"415 -250 OFFCURVE",
"499 -175 OFFCURVE",
"499 -96 CURVE SMOOTH",
"499 0 OFFCURVE",
"376 27 OFFCURVE",
"299 40 CURVE SMOOTH",
"183 60 OFFCURVE",
"147 67 OFFCURVE",
"147 92 CURVE SMOOTH",
"147 104 OFFCURVE",
"157 114 OFFCURVE",
"171 122 CURVE",
"192 116 OFFCURVE",
"218 113 OFFCURVE",
"241 113 CURVE SMOOTH",
"369 113 OFFCURVE",
"439 209 OFFCURVE",
"439 308 CURVE SMOOTH",
"439 344 OFFCURVE",
"430 382 OFFCURVE",
"394 425 CURVE",
"415 430 OFFCURVE",
"445 432 OFFCURVE",
"452 432 CURVE SMOOTH",
"475 432 LINE",
"486 492 LINE",
"478 492 LINE SMOOTH",
"429 492 OFFCURVE",
"389 480 OFFCURVE",
"359 464 CURVE",
"319 489 OFFCURVE",
"280 500 OFFCURVE",
"234 500 CURVE SMOOTH",
"104 500 OFFCURVE",
"34 411 OFFCURVE",
"34 303 CURVE SMOOTH",
"34 253 OFFCURVE",
"49 194 OFFCURVE",
"119 143 CURVE",
"72 121 OFFCURVE",
"61 87 OFFCURVE",
"61 70 CURVE SMOOTH",
"61 55 OFFCURVE",
"69 28 OFFCURVE",
"111 8 CURVE",
"34 -19 OFFCURVE",
"24 -75 OFFCURVE",
"24 -102 CURVE SMOOTH",
"24 -167 OFFCURVE",
"83 -250 OFFCURVE",
"253 -250 CURVE SMOOTH"
);
},
{
closed = 1;
nodes = (
"235 428 LINE",
"304 428 OFFCURVE",
"353 386 OFFCURVE",
"353 309 CURVE SMOOTH",
"353 238 OFFCURVE",
"312 182 OFFCURVE",
"237 182 CURVE SMOOTH",
"168 182 OFFCURVE",
"120 229 OFFCURVE",
"120 306 CURVE SMOOTH",
"120 377 OFFCURVE",
"160 428 OFFCURVE",
"235 428 CURVE SMOOTH"
);
},
{
closed = 1;
nodes = (
"277 -26 LINE SMOOTH",
"366 -42 OFFCURVE",
"408 -67 OFFCURVE",
"408 -102 CURVE SMOOTH",
"408 -140 OFFCURVE",
"357 -180 OFFCURVE",
"257 -180 CURVE SMOOTH",
"163 -180 OFFCURVE",
"110 -145 OFFCURVE",
"110 -100 CURVE SMOOTH",
"110 -65 OFFCURVE",
"143 -28 OFFCURVE",
"188 -14 CURVE",
"200 -16 OFFCURVE",
"275 -26 OFFCURVE",
"277 -26 CURVE SMOOTH"
);
}
);
width = 501;
},
{
layerId = "7C863538-AAB4-42AD-A9FE-7240E615272A";
paths = (
{
closed = 1;
nodes = (
"260 -250 LINE",
"414 -250 OFFCURVE",
"499 -186 OFFCURVE",
"499 -89 CURVE SMOOTH",
"499 32 OFFCURVE",
"369 53 OFFCURVE",
"298 62 CURVE SMOOTH",
"216 72 OFFCURVE",
"173 79 OFFCURVE",
"173 103 CURVE SMOOTH",
"173 110 OFFCURVE",
"177 116 OFFCURVE",
"184 119 CURVE",
"201 116 OFFCURVE",
"218 114 OFFCURVE",
"237 114 CURVE SMOOTH",
"368 114 OFFCURVE",
"439 204 OFFCURVE",
"439 311 CURVE SMOOTH",
"439 351 OFFCURVE",
"429 390 OFFCURVE",
"409 421 CURVE",
"420 422 OFFCURVE",
"431 422 OFFCURVE",
"437 422 CURVE SMOOTH",
"482 422 LINE",
"490 500 LINE",
"458 500 LINE SMOOTH",
"411 500 OFFCURVE",
"371 489 OFFCURVE",
"351 478 CURVE",
"321 497 OFFCURVE",
"282 508 OFFCURVE",
"237 508 CURVE SMOOTH",
"106 508 OFFCURVE",
"34 418 OFFCURVE",
"34 311 CURVE SMOOTH",
"34 245 OFFCURVE",
"61 186 OFFCURVE",
"111 150 CURVE",
"78 134 OFFCURVE",
"61 113 OFFCURVE",
"61 82 CURVE SMOOTH",
"61 49 OFFCURVE",
"79 27 OFFCURVE",
"106 10 CURVE",
"53 -18 OFFCURVE",
"24 -54 OFFCURVE",
"24 -102 CURVE SMOOTH",
"24 -176 OFFCURVE",
"94 -250 OFFCURVE",
"260 -250 CURVE SMOOTH"
);
},
{
closed = 1;
nodes = (
"237 417 LINE",
"297 417 OFFCURVE",
"328 375 OFFCURVE",
"328 311 CURVE SMOOTH",
"328 247 OFFCURVE",
"297 205 OFFCURVE",
"237 205 CURVE SMOOTH",
"176 205 OFFCURVE",
"145 247 OFFCURVE",
"145 311 CURVE SMOOTH",
"145 375 OFFCURVE",
"176 417 OFFCURVE",
"237 417 CURVE SMOOTH"
);
},
{
closed = 1;
nodes = (
"256 -30 LINE SMOOTH",
"319 -37 OFFCURVE",
"389 -46 OFFCURVE",
"389 -94 CURVE SMOOTH",
"389 -137 OFFCURVE",
"331 -162 OFFCURVE",
"254 -162 CURVE SMOOTH",
"173 -162 OFFCURVE",
"127 -134 OFFCURVE",
"127 -90 CURVE SMOOTH",
"127 -52 OFFCURVE",
"160 -33 OFFCURVE",
"196 -21 CURVE",
"218 -25 OFFCURVE",
"238 -28 OFFCURVE",
"256 -30 CURVE SMOOTH"
);
}
);
width = 501;
}
);
unicode = 0067;
},
{
glyphname = germandbls;
lastChange = "2016-08-23 09:36:32 +0000";
layers = (
{
layerId = UUID0;
paths = (
{
closed = 1;
nodes = (
"322 -15 LINE",
"437 -15 OFFCURVE",
"545 34 OFFCURVE",
"545 140 CURVE SMOOTH",
"545 275 OFFCURVE",
"367 338 OFFCURVE",
"367 371 CURVE SMOOTH",
"367 398 OFFCURVE",
"481 457 OFFCURVE",
"481 578 CURVE SMOOTH",
"481 697 OFFCURVE",
"370 750 OFFCURVE",
"290 750 CURVE SMOOTH",
"197 750 OFFCURVE",
"95 679 OFFCURVE",
"95 568 CURVE SMOOTH",
"95 500 LINE",
"28 500 LINE",
"21 439 LINE",
"95 439 LINE",
"95 -136 LINE",
"181 -136 LINE",
"181 573 LINE SMOOTH",
"181 635 OFFCURVE",
"219 685 OFFCURVE",
"290 685 CURVE SMOOTH",
"343 685 OFFCURVE",
"410 657 OFFCURVE",
"410 570 CURVE SMOOTH",
"410 455 OFFCURVE",
"292 407 OFFCURVE",
"292 364 CURVE SMOOTH",
"292 312 OFFCURVE",
"463 259 OFFCURVE",
"463 144 CURVE SMOOTH",
"463 67 OFFCURVE",
"387 50 OFFCURVE",
"272 48 CURVE",
"272 -12 LINE",
"289 -13 OFFCURVE",
"297 -15 OFFCURVE",
"322 -15 CURVE SMOOTH"
);
}
);
width = 568;
},
{
layerId = "7C863538-AAB4-42AD-A9FE-7240E615272A";
paths = (
{
closed = 1;
nodes = (
"324 -15 LINE",
"442 -15 OFFCURVE",
"545 27 OFFCURVE",
"545 149 CURVE SMOOTH",
"545 288 OFFCURVE",
"410 327 OFFCURVE",
"410 367 CURVE SMOOTH",
"410 397 OFFCURVE",
"486 453 OFFCURVE",
"486 562 CURVE SMOOTH",
"486 697 OFFCURVE",
"368 750 OFFCURVE",
"289 750 CURVE SMOOTH",
"195 750 OFFCURVE",
"89 675 OFFCURVE",
"89 555 CURVE SMOOTH",
"89 500 LINE",
"29 500 LINE",
"18 398 LINE",
"89 398 LINE",
"89 -136 LINE",
"211 -136 LINE",
"211 560 LINE SMOOTH",
"211 609 OFFCURVE",
"239 644 OFFCURVE",
"288 644 CURVE SMOOTH",
"327 644 OFFCURVE",
"367 622 OFFCURVE",
"367 556 CURVE SMOOTH",
"367 457 OFFCURVE",
"279 415 OFFCURVE",
"279 360 CURVE SMOOTH",
"279 291 OFFCURVE",
"416 256 OFFCURVE",
"416 150 CURVE SMOOTH",
"416 86 OFFCURVE",
"366 83 OFFCURVE",
"264 83 CURVE",
"264 -10 LINE",
"286 -14 OFFCURVE",
"306 -15 OFFCURVE",
"324 -15 CURVE SMOOTH"
);
}
);
width = 568;
}
);
leftKerningGroup = f;
unicode = 00DF;
},
{
glyphname = grave;
lastChange = "2016-08-23 09:36:32 +0000";
layers = (
{
layerId = UUID0;
paths = (
{
closed = 1;
nodes = (
"245 596 LINE",
"245 637 LINE",
"58 732 LINE",
"58 660 LINE"
);
}
);
width = 303;
},
{
layerId = "7C863538-AAB4-42AD-A9FE-7240E615272A";
paths = (
{
closed = 1;
nodes = (
"245 585 LINE",
"245 659 LINE",
"58 750 LINE",
"58 646 LINE"
);
}
);
width = 303;
}
);
unicode = 0060;
},
{
glyphname = greater;
lastChange = "2016-08-23 09:36:32 +0000";
layers = (
{
layerId = UUID0;
paths = (
{
closed = 1;
nodes = (
"414 284 LINE",
"198 490 LINE",
"103 490 LINE",
"319 284 LINE",
"103 78 LINE",
"198 78 LINE"
);
}
);
width = 446;
},
{
layerId = "7C863538-AAB4-42AD-A9FE-7240E615272A";
paths = (
{
closed = 1;
nodes = (
"414 284 LINE",
"202 490 LINE",
"55 490 LINE",
"267 284 LINE",
"55 78 LINE",
"202 78 LINE"
);
}
);
width = 446;
}
);
unicode = 003E;
},
{
glyphname = guillemotleft;
lastChange = "2016-08-23 09:36:32 +0000";
layers = (
{
layerId = UUID0;
paths = (
{
closed = 1;
nodes = (
"518 78 LINE",
"370 284 LINE",
"518 490 LINE",
"417 490 LINE",
"270 284 LINE",
"417 78 LINE"
);
},
{
closed = 1;
nodes = (
"257 78 LINE",
"110 284 LINE",
"257 490 LINE",
"157 490 LINE",
"10 284 LINE",
"157 78 LINE"
);
}
);
width = 607;
},
{
layerId = "7C863538-AAB4-42AD-A9FE-7240E615272A";
paths = (
{
closed = 1;
nodes = (
"570 78 LINE",
"418 284 LINE",
"570 490 LINE",
"423 490 LINE",
"271 284 LINE",
"423 78 LINE"
);
},
{
closed = 1;
nodes = (
"310 78 LINE",
"158 284 LINE",
"310 490 LINE",
"163 490 LINE",
"11 284 LINE",
"163 78 LINE"
);
}
);
width = 607;
}
);
leftKerningGroup = guilsinglleft;
rightKerningGroup = guilsinglleft;
unicode = 00AB;
},
{
glyphname = guillemotright;
lastChange = "2016-08-23 09:36:32 +0000";
layers = (
{
layerId = UUID0;
paths = (
{
closed = 1;
nodes = (
"595 284 LINE",
"448 490 LINE",
"348 490 LINE",
"495 284 LINE",
"348 78 LINE",
"448 78 LINE"
);
},
{
closed = 1;
nodes = (
"336 284 LINE",
"189 490 LINE",
"88 490 LINE",
"236 284 LINE",
"88 78 LINE",
"189 78 LINE"
);
}
);
width = 607;
},
{
layerId = "7C863538-AAB4-42AD-A9FE-7240E615272A";
paths = (
{
closed = 1;
nodes = (
"596 284 LINE",
"444 490 LINE",
"297 490 LINE",
"449 284 LINE",
"297 78 LINE",
"444 78 LINE"
);
},
{
closed = 1;
nodes = (
"336 284 LINE",
"184 490 LINE",
"37 490 LINE",
"189 284 LINE",
"37 78 LINE",
"184 78 LINE"
);
}
);
width = 607;
}
);
leftKerningGroup = guilsinglright;
rightKerningGroup = guilsinglright;
unicode = 00BB;
},
{
glyphname = guilsinglleft;
lastChange = "2016-08-23 09:36:32 +0000";
layers = (
{
layerId = UUID0;
paths = (
{
closed = 1;
nodes = (
"278 78 LINE",
"119 284 LINE",
"278 490 LINE",
"169 490 LINE",
"10 284 LINE",
"169 78 LINE"
);
}
);
width = 347;
},
{
layerId = "7C863538-AAB4-42AD-A9FE-7240E615272A";
paths = (
{
closed = 1;
nodes = (
"310 78 LINE",
"158 284 LINE",
"310 490 LINE",
"163 490 LINE",
"11 284 LINE",
"163 78 LINE"
);
}
);
width = 347;
}
);
leftKerningGroup = guilsinglleft;
rightKerningGroup = guilsinglleft;
unicode = 2039;
},
{
glyphname = guilsinglright;
lastChange = "2016-08-23 09:36:32 +0000";
layers = (
{
layerId = UUID0;
paths = (
{
closed = 1;
nodes = (
"337 284 LINE",
"178 490 LINE",
"69 490 LINE",
"228 284 LINE",
"69 78 LINE",
"178 78 LINE"
);
}
);
width = 347;
},
{
layerId = "7C863538-AAB4-42AD-A9FE-7240E615272A";
paths = (
{
closed = 1;
nodes = (
"336 284 LINE",
"184 490 LINE",
"37 490 LINE",
"189 284 LINE",
"37 78 LINE",
"184 78 LINE"
);
}
);
width = 347;
}
);
leftKerningGroup = guilsinglright;
rightKerningGroup = guilsinglright;
unicode = 203A;
},
{
glyphname = h;
lastChange = "2016-08-23 09:36:32 +0000";
layers = (
{
layerId = UUID0;
paths = (
{
closed = 1;
nodes = (
"499 0 LINE",
"499 262 LINE SMOOTH",
"499 403 OFFCURVE",
"447 500 OFFCURVE",
"306 500 CURVE SMOOTH",
"242 500 OFFCURVE",
"198 480 OFFCURVE",
"164 437 CURVE",
"164 750 LINE",
"73 750 LINE",
"73 0 LINE",
"164 0 LINE",
"164 356 LINE",
"192 400 OFFCURVE",
"232 420 OFFCURVE",
"292 420 CURVE SMOOTH",
"379 420 OFFCURVE",
"409 378 OFFCURVE",
"409 262 CURVE SMOOTH",
"409 0 LINE"
);
}
);
width = 552;
},
{
layerId = "7C863538-AAB4-42AD-A9FE-7240E615272A";
paths = (
{
closed = 1;
nodes = (
"499 0 LINE",
"499 269 LINE SMOOTH",
"499 410 OFFCURVE",
"442 508 OFFCURVE",
"286 508 CURVE SMOOTH",
"249 508 OFFCURVE",
"211 493 OFFCURVE",
"182 474 CURVE",
"182 750 LINE",
"58 750 LINE",
"58 0 LINE",
"182 0 LINE",
"182 363 LINE",
"205 390 OFFCURVE",
"234 406 OFFCURVE",
"276 406 CURVE SMOOTH",
"346 406 OFFCURVE",
"375 362 OFFCURVE",
"375 269 CURVE SMOOTH",
"375 0 LINE"
);
}
);
width = 552;
}
);
leftKerningGroup = h;
rightKerningGroup = n;
unicode = 0068;
},
{
glyphname = hyphen;
lastChange = "2016-08-23 09:36:32 +0000";
layers = (
{
layerId = UUID0;
paths = (
{
closed = 1;
nodes = (
"359 238 LINE",
"359 324 LINE",
"49 324 LINE",
"49 238 LINE"
);
}
);
width = 408;
},
{
layerId = "7C863538-AAB4-42AD-A9FE-7240E615272A";
paths = (
{
closed = 1;
nodes = (
"359 230 LINE",
"359 324 LINE",
"49 324 LINE",
"49 230 LINE"
);
}
);
width = 408;
}
);
leftKerningGroup = hyphen;
rightKerningGroup = hyphen;
unicode = 002D;
},
{
glyphname = i;
lastChange = "2016-08-23 09:36:32 +0000";
layers = (
{
layerId = UUID0;
paths = (
{
closed = 1;
nodes = (
"165 600 LINE",
"165 700 LINE",
"75 700 LINE",
"75 600 LINE"
);
},
{
closed = 1;
nodes = (
"165 0 LINE",
"165 490 LINE",
"75 490 LINE",
"75 0 LINE"
);
}
);
width = 240;
},
{
layerId = "7C863538-AAB4-42AD-A9FE-7240E615272A";
paths = (
{
closed = 1;
nodes = (
"182 576 LINE",
"182 700 LINE",
"58 700 LINE",
"58 576 LINE"
);
},
{
closed = 1;
nodes = (
"182 0 LINE",
"182 500 LINE",
"58 500 LINE",
"58 0 LINE"
);
}
);
width = 240;
}
);
leftKerningGroup = i;
rightKerningGroup = i;
unicode = 0069;
},
{
glyphname = j;
lastChange = "2016-08-23 09:36:32 +0000";
layers = (
{
layerId = UUID0;
paths = (
{
closed = 1;
nodes = (
"42 -237 LINE SMOOTH",
"93 -229 OFFCURVE",
"165 -201 OFFCURVE",
"165 -107 CURVE SMOOTH",
"165 490 LINE",
"75 490 LINE",
"75 -73 LINE SMOOTH",
"75 -152 OFFCURVE",
"61 -167 OFFCURVE",
"2 -173 CURVE",
"12 -242 LINE"
);
},
{
closed = 1;
nodes = (
"165 600 LINE",
"165 700 LINE",
"75 700 LINE",
"75 600 LINE"
);
}
);
width = 240;
},
{
layerId = "7C863538-AAB4-42AD-A9FE-7240E615272A";
paths = (
{
closed = 1;
nodes = (
"54 -242 LINE SMOOTH",
"143 -242 OFFCURVE",
"182 -183 OFFCURVE",
"182 -111 CURVE SMOOTH",
"182 500 LINE",
"58 500 LINE",
"58 -60 LINE SMOOTH",
"58 -139 OFFCURVE",
"51 -140 OFFCURVE",
"-2 -140 CURVE",
"9 -242 LINE"
);
},
{
closed = 1;
nodes = (
"182 576 LINE",
"182 700 LINE",
"58 700 LINE",
"58 576 LINE"
);
}
);
width = 240;
}
);
leftKerningGroup = i;
rightKerningGroup = i;
unicode = 006A;
},
{
glyphname = k;
lastChange = "2016-08-23 09:36:32 +0000";
layers = (
{
layerId = UUID0;
paths = (
{
closed = 1;
nodes = (
"168 0 LINE",
"168 249 LINE",
"353 0 LINE",
"463 0 LINE",
"256 264 LINE",
"458 490 LINE",
"348 490 LINE",
"168 269 LINE",
"168 750 LINE",
"78 750 LINE",
"78 0 LINE"
);
}
);
width = 486;
},
{
layerId = "7C863538-AAB4-42AD-A9FE-7240E615272A";
paths = (
{
closed = 1;
nodes = (
"182 0 LINE",
"182 222 LINE",
"341 0 LINE",
"481 0 LINE",
"298 260 LINE",
"481 500 LINE",
"341 500 LINE",
"182 295 LINE",
"182 750 LINE",
"58 750 LINE",
"58 0 LINE"
);
}
);
width = 486;
}
);
leftKerningGroup = h;
unicode = 006B;
},
{
glyphname = l;
lastChange = "2016-08-23 09:36:32 +0000";
layers = (
{
layerId = UUID0;
paths = (
{
closed = 1;
nodes = (
"237 62 LINE",
"168 62 OFFCURVE",
"158 76 OFFCURVE",
"158 160 CURVE SMOOTH",
"158 750 LINE",
"68 750 LINE",
"68 108 LINE SMOOTH",
"68 49 OFFCURVE",
"100 -10 OFFCURVE",
"195 -10 CURVE SMOOTH",
"224 -10 LINE"
);
}
);
width = 265;
},
{
layerId = "7C863538-AAB4-42AD-A9FE-7240E615272A";
paths = (
{
closed = 1;
nodes = (
"242 92 LINE",
"193 92 OFFCURVE",
"182 92 OFFCURVE",
"182 172 CURVE SMOOTH",
"182 750 LINE",
"58 750 LINE",
"58 121 LINE SMOOTH",
"58 49 OFFCURVE",
"97 -10 OFFCURVE",
"186 -10 CURVE SMOOTH",
"231 -10 LINE"
);
}
);
width = 265;
}
);
unicode = 006C;
},
{
glyphname = less;
lastChange = "2016-08-23 09:36:32 +0000";
layers = (
{
layerId = UUID0;
paths = (
{
closed = 1;
nodes = (
"343 78 LINE",
"127 284 LINE",
"343 490 LINE",
"248 490 LINE",
"32 284 LINE",
"248 78 LINE"
);
}
);
width = 446;
},
{
layerId = "7C863538-AAB4-42AD-A9FE-7240E615272A";
paths = (
{
closed = 1;
nodes = (
"391 78 LINE",
"179 284 LINE",
"391 490 LINE",
"244 490 LINE",
"32 284 LINE",
"244 78 LINE"
);
}
);
width = 446;
}
);
unicode = 003C;
},
{
glyphname = logicalnot;
lastChange = "2016-08-23 09:36:32 +0000";
layers = (
{
layerId = UUID0;
paths = (
{
closed = 1;
nodes = (
"509 151 LINE",
"509 406 LINE",
"49 406 LINE",
"49 346 LINE",
"454 346 LINE",
"454 151 LINE"
);
}
);
width = 568;
},
{
layerId = "7C863538-AAB4-42AD-A9FE-7240E615272A";
paths = (
{
closed = 1;
nodes = (
"509 151 LINE",
"509 406 LINE",
"49 406 LINE",
"49 312 LINE",
"415 312 LINE",
"415 151 LINE"
);
}
);
width = 568;
}
);
unicode = 00AC;
},
{
glyphname = m;
lastChange = "2016-08-23 09:36:32 +0000";
layers = (
{
layerId = UUID0;
paths = (
{
closed = 1;
nodes = (
"818 0 LINE",
"818 289 LINE SMOOTH",
"818 433 OFFCURVE",
"753 500 OFFCURVE",
"630 500 CURVE SMOOTH",
"539 500 OFFCURVE",
"483 463 OFFCURVE",
"451 402 CURVE",
"406 484 OFFCURVE",
"342 500 OFFCURVE",
"285 500 CURVE SMOOTH",
"233 500 OFFCURVE",
"194 488 OFFCURVE",
"138 438 CURVE",
"128 490 LINE",
"58 490 LINE",
"58 0 LINE",
"148 0 LINE",
"148 356 LINE",
"173 400 OFFCURVE",
"222 420 OFFCURVE",
"278 420 CURVE SMOOTH",
"346 420 OFFCURVE",
"393 390 OFFCURVE",
"393 270 CURVE SMOOTH",
"393 0 LINE",
"483 0 LINE",
"483 284 LINE SMOOTH",
"483 339 OFFCURVE",
"498 420 OFFCURVE",
"613 420 CURVE SMOOTH",
"694 420 OFFCURVE",
"728 380 OFFCURVE",
"728 288 CURVE SMOOTH",
"728 0 LINE"
);
}
);
width = 866;
},
{
layerId = "7C863538-AAB4-42AD-A9FE-7240E615272A";
paths = (
{
closed = 1;
nodes = (
"813 0 LINE",
"813 269 LINE SMOOTH",
"813 409 OFFCURVE",
"749 508 OFFCURVE",
"614 508 CURVE SMOOTH",
"524 508 OFFCURVE",
"465 464 OFFCURVE",
"448 432 CURVE",
"413 484 OFFCURVE",
"353 508 OFFCURVE",
"295 508 CURVE SMOOTH",
"242 508 OFFCURVE",
"196 485 OFFCURVE",
"167 461 CURVE",
"160 500 LINE",
"58 500 LINE",
"58 0 LINE",
"182 0 LINE",
"182 365 LINE",
"204 391 OFFCURVE",
"234 406 OFFCURVE",
"274 406 CURVE SMOOTH",
"344 406 OFFCURVE",
"374 377 OFFCURVE",
"374 269 CURVE SMOOTH",
"374 0 LINE",
"497 0 LINE",
"497 309 LINE SMOOTH",
"497 360 OFFCURVE",
"514 406 OFFCURVE",
"596 406 CURVE SMOOTH",
"665 406 OFFCURVE",
"689 361 OFFCURVE",
"689 269 CURVE SMOOTH",
"689 0 LINE"
);
}
);
width = 866;
}
);
leftKerningGroup = n;
rightKerningGroup = n;
unicode = 006D;
},
{
glyphname = mu;
lastChange = "2016-08-23 09:36:32 +0000";
layers = (
{
layerId = UUID0;
paths = (
{
closed = 1;
nodes = (
"563 62 LINE",
"541 62 LINE SMOOTH",
"502 62 OFFCURVE",
"494 102 OFFCURVE",
"494 170 CURVE SMOOTH",
"494 490 LINE",
"407 490 LINE",
"407 127 LINE",
"371 86 OFFCURVE",
"343 69 OFFCURVE",
"291 69 CURVE SMOOTH",
"194 69 OFFCURVE",
"169 129 OFFCURVE",
"169 232 CURVE SMOOTH",
"169 490 LINE",
"80 490 LINE",
"80 -242 LINE",
"168 -242 LINE",
"168 27 LINE",
"215 -6 OFFCURVE",
"241 -11 OFFCURVE",
"280 -11 CURVE SMOOTH",
"344 -11 OFFCURVE",
"376 19 OFFCURVE",
"414 63 CURVE",
"433 13 OFFCURVE",
"469 -10 OFFCURVE",
"521 -10 CURVE SMOOTH",
"547 -10 LINE"
);
}
);
width = 608;
},
{
layerId = "7C863538-AAB4-42AD-A9FE-7240E615272A";
paths = (
{
closed = 1;
nodes = (
"568 92 LINE",
"552 92 LINE SMOOTH",
"516 92 OFFCURVE",
"508 97 OFFCURVE",
"508 172 CURVE SMOOTH",
"508 500 LINE",
"384 500 LINE",
"384 136 LINE",
"361 109 OFFCURVE",
"331 94 OFFCURVE",
"290 94 CURVE SMOOTH",
"220 94 OFFCURVE",
"191 138 OFFCURVE",
"191 231 CURVE SMOOTH",
"191 500 LINE",
"67 500 LINE",
"67 -242 LINE",
"191 -242 LINE",
"191 6 LINE",
"216 -3 OFFCURVE",
"245 -8 OFFCURVE",
"280 -8 CURVE SMOOTH",
"326 -8 OFFCURVE",
"376 15 OFFCURVE",
"404 42 CURVE",
"424 10 OFFCURVE",
"459 -10 OFFCURVE",
"512 -10 CURVE SMOOTH",
"557 -10 LINE"
);
}
);
width = 608;
}
);
unicode = 00B5;
},
{
glyphname = multiply;
lastChange = "2016-08-23 09:36:32 +0000";
layers = (
{
layerId = UUID0;
paths = (
{
closed = 1;
nodes = (
"374 155 LINE",
"250 277 LINE",
"374 399 LINE",
"338 435 LINE",
"215 312 LINE",
"93 435 LINE",
"57 399 LINE",
"180 277 LINE",
"57 155 LINE",
"93 119 LINE",
"215 242 LINE",
"338 119 LINE"
);
}
);
width = 431;
},
{
layerId = "7C863538-AAB4-42AD-A9FE-7240E615272A";
paths = (
{
closed = 1;
nodes = (
"383 170 LINE",
"276 277 LINE",
"383 384 LINE",
"322 445 LINE",
"215 338 LINE",
"108 445 LINE",
"47 384 LINE",
"154 277 LINE",
"47 170 LINE",
"108 109 LINE",
"215 216 LINE",
"322 109 LINE"
);
}
);
width = 430;
}
);
unicode = 00D7;
},
{
glyphname = n;
lastChange = "2016-08-23 09:36:32 +0000";
layers = (
{
layerId = UUID0;
paths = (
{
closed = 1;
nodes = (
"500 0 LINE",
"500 270 LINE SMOOTH",
"500 411 OFFCURVE",
"443 500 OFFCURVE",
"300 500 CURVE SMOOTH",
"248 500 OFFCURVE",
"194 488 OFFCURVE",
"138 438 CURVE",
"128 490 LINE",
"58 490 LINE",
"58 0 LINE",
"148 0 LINE",
"148 356 LINE",
"173 400 OFFCURVE",
"226 420 OFFCURVE",
"282 420 CURVE SMOOTH",
"375 420 OFFCURVE",
"410 374 OFFCURVE",
"410 270 CURVE SMOOTH",
"410 0 LINE"
);
}
);
width = 552;
},
{
layerId = "7C863538-AAB4-42AD-A9FE-7240E615272A";
paths = (
{
closed = 1;
nodes = (
"499 0 LINE",
"499 269 LINE SMOOTH",
"499 410 OFFCURVE",
"442 508 OFFCURVE",
"286 508 CURVE SMOOTH",
"247 508 OFFCURVE",
"205 491 OFFCURVE",
"176 470 CURVE",
"174 500 LINE",
"58 500 LINE",
"58 0 LINE",
"182 0 LINE",
"182 363 LINE",
"205 390 OFFCURVE",
"234 406 OFFCURVE",
"276 406 CURVE SMOOTH",
"346 406 OFFCURVE",
"375 362 OFFCURVE",
"375 269 CURVE SMOOTH",
"375 0 LINE"
);
}
);
width = 552;
}
);
leftKerningGroup = n;
rightKerningGroup = n;
unicode = 006E;
},
{
glyphname = nine;
lastChange = "2016-08-23 09:36:32 +0000";
layers = (
{
layerId = UUID0;
paths = (
{
closed = 1;
nodes = (
"301 714 LINE SMOOTH",
"152 714 OFFCURVE",
"58 612 OFFCURVE",
"58 481 CURVE SMOOTH",
"58 344 OFFCURVE",
"141 279 OFFCURVE",
"270 279 CURVE SMOOTH",
"326 279 OFFCURVE",
"382 299 OFFCURVE",
"409 336 CURVE",
"384 158 OFFCURVE",
"252 82 OFFCURVE",
"156 38 CURVE",
"229 0 LINE",
"330 0 OFFCURVE",
"520 163 OFFCURVE",
"520 462 CURVE SMOOTH",
"520 656 OFFCURVE",
"414 714 OFFCURVE",
"301 714 CURVE SMOOTH"
);
},
{
closed = 1;
nodes = (
"279 361 LINE SMOOTH",
"179 361 OFFCURVE",
"155 433 OFFCURVE",
"155 486 CURVE SMOOTH",
"155 558 OFFCURVE",
"199 631 OFFCURVE",
"289 631 CURVE SMOOTH",
"356 631 OFFCURVE",
"420 589 OFFCURVE",
"420 501 CURVE SMOOTH",
"420 415 OFFCURVE",
"355 361 OFFCURVE",
"279 361 CURVE SMOOTH"
);
}
);
width = 562;
},
{
layerId = "7C863538-AAB4-42AD-A9FE-7240E615272A";
paths = (
{
closed = 1;
nodes = (
"302 714 LINE SMOOTH",
"152 714 OFFCURVE",
"58 606 OFFCURVE",
"58 478 CURVE SMOOTH",
"58 346 OFFCURVE",
"146 279 OFFCURVE",
"269 279 CURVE SMOOTH",
"284 279 OFFCURVE",
"364 287 OFFCURVE",
"391 317 CURVE",
"383 172 OFFCURVE",
"202 50 OFFCURVE",
"139 50 CURVE",
"220 0 LINE",
"346 0 OFFCURVE",
"521 190 OFFCURVE",
"521 448 CURVE SMOOTH",
"521 640 OFFCURVE",
"424 714 OFFCURVE",
"302 714 CURVE SMOOTH"
);
},
{
closed = 1;
nodes = (
"281 383 LINE SMOOTH",
"210 383 OFFCURVE",
"183 434 OFFCURVE",
"183 483 CURVE SMOOTH",
"183 540 OFFCURVE",
"222 600 OFFCURVE",
"295 600 CURVE SMOOTH",
"341 600 OFFCURVE",
"400 577 OFFCURVE",
"400 496 CURVE SMOOTH",
"400 420 OFFCURVE",
"347 383 OFFCURVE",
"281 383 CURVE SMOOTH"
);
}
);
width = 562;
}
);
unicode = 0039;
},
{
glyphname = nineinferior;
lastChange = "2016-08-23 09:36:32 +0000";
layers = (
{
layerId = UUID0;
paths = (
{
closed = 1;
nodes = (
"206 386 LINE SMOOTH",
"119 386 OFFCURVE",
"64 327 OFFCURVE",
"64 258 CURVE SMOOTH",
"64 187 OFFCURVE",
"115 151 OFFCURVE",
"186 151 CURVE SMOOTH",
"195 151 OFFCURVE",
"241 154 OFFCURVE",
"257 170 CURVE",
"252 94 OFFCURVE",
"147 28 OFFCURVE",
"111 28 CURVE",
"158 0 LINE",
"231 0 OFFCURVE",
"333 105 OFFCURVE",
"333 241 CURVE SMOOTH",
"333 344 OFFCURVE",
"276 386 OFFCURVE",
"206 386 CURVE SMOOTH"
);
},
{
closed = 1;
nodes = (
"193 209 LINE SMOOTH",
"152 209 OFFCURVE",
"137 234 OFFCURVE",
"137 261 CURVE SMOOTH",
"137 290 OFFCURVE",
"159 321 OFFCURVE",
"201 321 CURVE SMOOTH",
"228 321 OFFCURVE",
"262 311 OFFCURVE",
"262 267 CURVE SMOOTH",
"262 227 OFFCURVE",
"232 209 OFFCURVE",
"193 209 CURVE SMOOTH"
);
}
);
width = 387;
},
{
layerId = "7C863538-AAB4-42AD-A9FE-7240E615272A";
paths = (
{
closed = 1;
nodes = (
"206 386 LINE SMOOTH",
"119 386 OFFCURVE",
"64 322 OFFCURVE",
"64 256 CURVE SMOOTH",
"64 189 OFFCURVE",
"122 151 OFFCURVE",
"186 151 CURVE SMOOTH",
"209 151 OFFCURVE",
"231 154 OFFCURVE",
"247 164 CURVE",
"244 112 OFFCURVE",
"138 37 OFFCURVE",
"98 37 CURVE",
"151 0 LINE",
"244 0 OFFCURVE",
"333 125 OFFCURVE",
"333 230 CURVE SMOOTH",
"333 332 OFFCURVE",
"284 386 OFFCURVE",
"206 386 CURVE SMOOTH"
);
},
{
closed = 1;
nodes = (
"195 225 LINE SMOOTH",
"177 225 OFFCURVE",
"159 235 OFFCURVE",
"159 258 CURVE SMOOTH",
"159 276 OFFCURVE",
"177 301 OFFCURVE",
"206 301 CURVE SMOOTH",
"216 301 OFFCURVE",
"247 301 OFFCURVE",
"247 264 CURVE SMOOTH",
"247 231 OFFCURVE",
"225 225 OFFCURVE",
"195 225 CURVE SMOOTH"
);
}
);
width = 386;
}
);
unicode = 2089;
},
{
glyphname = ninesuperior;
lastChange = "2016-08-23 09:36:32 +0000";
layers = (
{
layerId = UUID0;
paths = (
{
closed = 1;
nodes = (
"206 706 LINE SMOOTH",
"119 706 OFFCURVE",
"64 647 OFFCURVE",
"64 578 CURVE SMOOTH",
"64 507 OFFCURVE",
"115 471 OFFCURVE",
"186 471 CURVE SMOOTH",
"195 471 OFFCURVE",
"241 474 OFFCURVE",
"257 490 CURVE",
"252 414 OFFCURVE",
"149 348 OFFCURVE",
"111 348 CURVE",
"158 320 LINE",
"231 320 OFFCURVE",
"333 425 OFFCURVE",
"333 561 CURVE SMOOTH",
"333 664 OFFCURVE",
"276 706 OFFCURVE",
"206 706 CURVE SMOOTH"
);
},
{
closed = 1;
nodes = (
"193 529 LINE SMOOTH",
"152 529 OFFCURVE",
"137 554 OFFCURVE",
"137 581 CURVE SMOOTH",
"137 610 OFFCURVE",
"159 641 OFFCURVE",
"201 641 CURVE SMOOTH",
"228 641 OFFCURVE",
"262 631 OFFCURVE",
"262 587 CURVE SMOOTH",
"262 547 OFFCURVE",
"232 529 OFFCURVE",
"193 529 CURVE SMOOTH"
);
}
);
width = 387;
},
{
layerId = "7C863538-AAB4-42AD-A9FE-7240E615272A";
paths = (
{
closed = 1;
nodes = (
"206 706 LINE SMOOTH",
"119 706 OFFCURVE",
"64 642 OFFCURVE",
"64 576 CURVE SMOOTH",
"64 509 OFFCURVE",
"139 471 OFFCURVE",
"187 471 CURVE SMOOTH",
"211 471 OFFCURVE",
"230 473 OFFCURVE",
"246 483 CURVE",
"246 433 OFFCURVE",
"137 357 OFFCURVE",
"98 357 CURVE",
"151 320 LINE",
"244 320 OFFCURVE",
"333 445 OFFCURVE",
"333 550 CURVE SMOOTH",
"333 652 OFFCURVE",
"284 706 OFFCURVE",
"206 706 CURVE SMOOTH"
);
},
{
closed = 1;
nodes = (
"195 545 LINE SMOOTH",
"177 545 OFFCURVE",
"159 555 OFFCURVE",
"159 578 CURVE SMOOTH",
"159 596 OFFCURVE",
"176 622 OFFCURVE",
"205 622 CURVE SMOOTH",
"215 622 OFFCURVE",
"247 621 OFFCURVE",
"247 584 CURVE SMOOTH",
"247 551 OFFCURVE",
"225 545 OFFCURVE",
"195 545 CURVE SMOOTH"
);
}
);
width = 386;
}
);
unicode = 2079;
},
{
glyphname = numbersign;
lastChange = "2016-08-23 09:36:32 +0000";
layers = (
{
layerId = UUID0;
paths = (
{
closed = 1;
nodes = (
"674 507 LINE",
"561 507 LINE",
"635 700 LINE",
"555 700 LINE",
"480 507 LINE",
"347 507 LINE",
"422 700 LINE",
"341 700 LINE",
"267 507 LINE",
"138 507 LINE",
"109 422 LINE",
"235 422 LINE",
"190 307 LINE",
"75 307 LINE",
"35 216 LINE",
"155 216 LINE",
"69 -11 LINE",
"149 -11 LINE",
"236 216 LINE",
"369 216 LINE",
"282 -11 LINE",
"363 -11 LINE",
"449 216 LINE",
"571 216 LINE",
"612 307 LINE",
"484 307 LINE",
"529 422 LINE",
"645 422 LINE"
);
},
{
closed = 1;
nodes = (
"448 422 LINE",
"403 307 LINE",
"271 307 LINE",
"316 422 LINE"
);
}
);
width = 724;
},
{
layerId = "7C863538-AAB4-42AD-A9FE-7240E615272A";
paths = (
{
closed = 1;
nodes = (
"679 512 LINE",
"568 512 LINE",
"640 700 LINE",
"546 700 LINE",
"474 512 LINE",
"360 512 LINE",
"432 700 LINE",
"338 700 LINE",
"264 512 LINE",
"138 512 LINE",
"106 414 LINE",
"227 414 LINE",
"190 315 LINE",
"78 315 LINE",
"32 211 LINE",
"150 211 LINE",
"66 -11 LINE",
"160 -11 LINE",
"246 211 LINE",
"358 211 LINE",
"274 -11 LINE",
"370 -11 LINE",
"454 211 LINE",
"571 211 LINE",
"619 315 LINE",
"494 315 LINE",
"531 414 LINE",
"645 414 LINE"
);
},
{
closed = 1;
nodes = (
"437 414 LINE",
"398 315 LINE",
"284 315 LINE",
"323 414 LINE"
);
}
);
width = 710;
}
);
unicode = 0023;
},
{
glyphname = o;
lastChange = "2016-08-23 09:36:32 +0000";
layers = (
{
layerId = UUID0;
paths = (
{
closed = 1;
nodes = (
"271 -10 LINE",
"424 -10 OFFCURVE",
"514 103 OFFCURVE",
"514 245 CURVE SMOOTH",
"514 387 OFFCURVE",
"424 500 OFFCURVE",
"271 500 CURVE SMOOTH",
"117 500 OFFCURVE",
"28 387 OFFCURVE",
"28 245 CURVE SMOOTH",
"28 103 OFFCURVE",
"117 -10 OFFCURVE",
"271 -10 CURVE SMOOTH"
);
},
{
closed = 1;
nodes = (
"271 420 LINE",
"368 420 OFFCURVE",
"422 355 OFFCURVE",
"422 245 CURVE SMOOTH",
"422 135 OFFCURVE",
"368 70 OFFCURVE",
"271 70 CURVE SMOOTH",
"174 70 OFFCURVE",
"120 135 OFFCURVE",
"120 245 CURVE SMOOTH",
"120 355 OFFCURVE",
"174 420 OFFCURVE",
"271 420 CURVE SMOOTH"
);
}
);
width = 542;
},
{
layerId = "7C863538-AAB4-42AD-A9FE-7240E615272A";
paths = (
{
closed = 1;
nodes = (
"281 -10 LINE",
"441 -10 OFFCURVE",
"534 109 OFFCURVE",
"534 249 CURVE SMOOTH",
"534 389 OFFCURVE",
"441 508 OFFCURVE",
"281 508 CURVE SMOOTH",
"121 508 OFFCURVE",
"28 389 OFFCURVE",
"28 249 CURVE SMOOTH",
"28 109 OFFCURVE",
"121 -10 OFFCURVE",
"281 -10 CURVE SMOOTH"
);
},
{
closed = 1;
nodes = (
"281 406 LINE",
"361 406 OFFCURVE",
"407 342 OFFCURVE",
"407 249 CURVE SMOOTH",
"407 156 OFFCURVE",
"361 92 OFFCURVE",
"281 92 CURVE SMOOTH",
"201 92 OFFCURVE",
"155 156 OFFCURVE",
"155 249 CURVE SMOOTH",
"155 342 OFFCURVE",
"201 406 OFFCURVE",
"281 406 CURVE SMOOTH"
);
}
);
width = 562;
}
);
leftKerningGroup = o;
rightKerningGroup = o;
unicode = 006F;
},
{
glyphname = oe;
lastChange = "2016-08-23 09:36:32 +0000";
layers = (
{
layerId = UUID0;
paths = (
{
closed = 1;
nodes = (
"864 245 LINE",
"867 262 OFFCURVE",
"868 277 OFFCURVE",
"868 296 CURVE SMOOTH",
"868 425 OFFCURVE",
"781 500 OFFCURVE",
"655 500 CURVE SMOOTH",
"589 500 OFFCURVE",
"507 468 OFFCURVE",
"469 398 CURVE",
"439 468 OFFCURVE",
"351 500 OFFCURVE",
"278 500 CURVE SMOOTH",
"119 500 OFFCURVE",
"28 391 OFFCURVE",
"28 250 CURVE SMOOTH",
"28 106 OFFCURVE",
"120 -10 OFFCURVE",
"274 -10 CURVE SMOOTH",
"359 -10 OFFCURVE",
"443 27 OFFCURVE",
"473 97 CURVE",
"503 27 OFFCURVE",
"564 -10 OFFCURVE",
"691 -10 CURVE SMOOTH",
"755 -10 OFFCURVE",
"807 5 OFFCURVE",
"844 22 CURVE",
"834 99 LINE",
"793 78 OFFCURVE",
"735 62 OFFCURVE",
"679 62 CURVE SMOOTH",
"622 62 OFFCURVE",
"521 88 OFFCURVE",
"521 245 CURVE"
);
},
{
closed = 1;
nodes = (
"654 420 LINE SMOOTH",
"724 420 OFFCURVE",
"770 379 OFFCURVE",
"776 307 CURVE",
"523 307 LINE",
"540 388 OFFCURVE",
"584 420 OFFCURVE",
"654 420 CURVE SMOOTH"
);
},
{
closed = 1;
nodes = (
"278 420 LINE SMOOTH",
"375 420 OFFCURVE",
"429 348 OFFCURVE",
"429 248 CURVE SMOOTH",
"429 148 OFFCURVE",
"381 70 OFFCURVE",
"277 70 CURVE SMOOTH",
"173 70 OFFCURVE",
"120 135 OFFCURVE",
"120 245 CURVE SMOOTH",
"120 355 OFFCURVE",
"174 420 OFFCURVE",
"278 420 CURVE SMOOTH"
);
}
);
width = 895;
},
{
layerId = "7C863538-AAB4-42AD-A9FE-7240E615272A";
paths = (
{
closed = 1;
nodes = (
"860 223 LINE",
"865 247 OFFCURVE",
"868 269 OFFCURVE",
"868 291 CURVE SMOOTH",
"868 423 OFFCURVE",
"774 508 OFFCURVE",
"648 508 CURVE SMOOTH",
"570 508 OFFCURVE",
"510 477 OFFCURVE",
"469 429 CURVE",
"426 477 OFFCURVE",
"362 508 OFFCURVE",
"281 508 CURVE SMOOTH",
"121 508 OFFCURVE",
"28 389 OFFCURVE",
"28 249 CURVE SMOOTH",
"28 109 OFFCURVE",
"121 -10 OFFCURVE",
"281 -10 CURVE SMOOTH",
"363 -10 OFFCURVE",
"428 21 OFFCURVE",
"471 71 CURVE",
"516 21 OFFCURVE",
"585 -10 OFFCURVE",
"679 -10 CURVE SMOOTH",
"750 -10 OFFCURVE",
"808 8 OFFCURVE",
"846 28 CURVE",
"840 133 LINE",
"799 111 OFFCURVE",
"733 92 OFFCURVE",
"686 92 CURVE SMOOTH",
"620 92 OFFCURVE",
"551 130 OFFCURVE",
"537 223 CURVE"
);
},
{
closed = 1;
nodes = (
"652 406 LINE SMOOTH",
"719 406 OFFCURVE",
"742 352 OFFCURVE",
"742 307 CURVE",
"540 307 LINE",
"552 364 OFFCURVE",
"588 406 OFFCURVE",
"652 406 CURVE SMOOTH"
);
},
{
closed = 1;
nodes = (
"281 406 LINE SMOOTH",
"361 406 OFFCURVE",
"407 342 OFFCURVE",
"407 249 CURVE SMOOTH",
"407 156 OFFCURVE",
"361 92 OFFCURVE",
"281 92 CURVE SMOOTH",
"201 92 OFFCURVE",
"155 156 OFFCURVE",
"155 249 CURVE SMOOTH",
"155 342 OFFCURVE",
"201 406 OFFCURVE",
"281 406 CURVE SMOOTH"
);
}
);
width = 895;
}
);
leftKerningGroup = o;
rightKerningGroup = e;
unicode = 0153;
},
{
glyphname = one;
lastChange = "2016-08-23 09:36:32 +0000";
layers = (
{
layerId = UUID0;
paths = (
{
closed = 1;
nodes = (
"266 0 LINE",
"266 700 LINE",
"193 700 LINE",
"163 653 OFFCURVE",
"100 609 OFFCURVE",
"46 591 CURVE",
"62 502 LINE",
"90 511 OFFCURVE",
"118 524 OFFCURVE",
"166 563 CURVE",
"166 0 LINE"
);
}
);
width = 367;
},
{
layerId = "7C863538-AAB4-42AD-A9FE-7240E615272A";
paths = (
{
closed = 1;
nodes = (
"270 0 LINE",
"270 700 LINE",
"172 700 LINE",
"153 652 OFFCURVE",
"86 600 OFFCURVE",
"43 591 CURVE",
"54 483 LINE",
"87 489 OFFCURVE",
"116 502 OFFCURVE",
"142 519 CURVE",
"142 0 LINE"
);
}
);
width = 367;
}
);
unicode = 0031;
},
{
glyphname = oneinferior;
lastChange = "2016-08-23 09:36:32 +0000";
layers = (
{
layerId = UUID0;
paths = (
{
closed = 1;
nodes = (
"187 0 LINE",
"187 378 LINE",
"130 378 LINE",
"119 352 OFFCURVE",
"80 323 OFFCURVE",
"55 319 CURVE",
"61 259 LINE",
"81 262 OFFCURVE",
"97 269 OFFCURVE",
"112 276 CURVE",
"112 0 LINE"
);
}
);
width = 273;
},
{
layerId = "7C863538-AAB4-42AD-A9FE-7240E615272A";
paths = (
{
closed = 1;
nodes = (
"190 0 LINE",
"190 378 LINE",
"114 378 LINE",
"111 351 OFFCURVE",
"69 316 OFFCURVE",
"53 319 CURVE",
"55 245 LINE",
"79 245 OFFCURVE",
"96 252 OFFCURVE",
"94 243 CURVE",
"94 0 LINE"
);
}
);
width = 273;
}
);
unicode = 2081;
},
{
glyphname = onesuperior;
lastChange = "2016-08-23 09:36:32 +0000";
layers = (
{
layerId = UUID0;
paths = (
{
closed = 1;
nodes = (
"187 320 LINE",
"187 698 LINE",
"130 698 LINE",
"119 672 OFFCURVE",
"80 643 OFFCURVE",
"55 639 CURVE",
"61 579 LINE",
"81 582 OFFCURVE",
"97 589 OFFCURVE",
"112 596 CURVE",
"112 320 LINE"
);
}
);
width = 273;
},
{
layerId = "7C863538-AAB4-42AD-A9FE-7240E615272A";
paths = (
{
closed = 1;
nodes = (
"190 320 LINE",
"190 698 LINE",
"114 698 LINE",
"111 671 OFFCURVE",
"69 636 OFFCURVE",
"53 639 CURVE",
"55 565 LINE",
"79 565 OFFCURVE",
"96 572 OFFCURVE",
"94 563 CURVE",
"94 320 LINE"
);
}
);
width = 273;
}
);
unicode = 00B9;
},
{
glyphname = ordfeminine;
lastChange = "2016-08-23 09:36:32 +0000";
layers = (
{
layerId = UUID0;
paths = (
{
closed = 1;
nodes = (
"310 495 LINE",
"300 495 LINE SMOOTH",
"279 495 OFFCURVE",
"274 495 OFFCURVE",
"274 537 CURVE SMOOTH",
"274 617 LINE SMOOTH",
"274 694 OFFCURVE",
"232 725 OFFCURVE",
"165 725 CURVE SMOOTH",
"128 725 OFFCURVE",
"92 718 OFFCURVE",
"56 702 CURVE",
"62 642 LINE",
"94 655 OFFCURVE",
"118 662 OFFCURVE",
"145 662 CURVE SMOOTH",
"183 662 OFFCURVE",
"197 648 OFFCURVE",
"198 620 CURVE",
"143 618 OFFCURVE",
"30 599 OFFCURVE",
"30 519 CURVE SMOOTH",
"30 465 OFFCURVE",
"69 434 OFFCURVE",
"117 434 CURVE SMOOTH",
"153 434 OFFCURVE",
"189 445 OFFCURVE",
"209 465 CURVE",
"220 447 OFFCURVE",
"243 434 OFFCURVE",
"276 434 CURVE SMOOTH",
"303 434 LINE"
);
},
{
closed = 1;
nodes = (
"199 507 LINE",
"183 495 OFFCURVE",
"161 490 OFFCURVE",
"149 490 CURVE SMOOTH",
"121 490 OFFCURVE",
"109 500 OFFCURVE",
"109 522 CURVE SMOOTH",
"109 554 OFFCURVE",
"158 569 OFFCURVE",
"199 570 CURVE"
);
}
);
width = 340;
},
{
layerId = "7C863538-AAB4-42AD-A9FE-7240E615272A";
paths = (
{
closed = 1;
nodes = (
"325 519 LINE",
"309 519 LINE SMOOTH",
"301 519 OFFCURVE",
"293 496 OFFCURVE",
"293 543 CURVE SMOOTH",
"293 650 LINE SMOOTH",
"293 702 OFFCURVE",
"235 732 OFFCURVE",
"178 732 CURVE SMOOTH",
"143 732 OFFCURVE",
"108 729 OFFCURVE",
"55 713 CURVE",
"60 632 LINE",
"93 637 OFFCURVE",
"115 647 OFFCURVE",
"149 647 CURVE SMOOTH",
"183 647 OFFCURVE",
"184 629 OFFCURVE",
"189 629 CURVE",
"158 627 OFFCURVE",
"30 607 OFFCURVE",
"30 526 CURVE SMOOTH",
"30 461 OFFCURVE",
"73 434 OFFCURVE",
"112 434 CURVE SMOOTH",
"145 434 OFFCURVE",
"190 439 OFFCURVE",
"206 454 CURVE",
"217 445 OFFCURVE",
"254 434 OFFCURVE",
"262 434 CURVE SMOOTH",
"321 434 LINE"
);
},
{
closed = 1;
nodes = (
"190 501 LINE",
"177 501 OFFCURVE",
"164 508 OFFCURVE",
"172 508 CURVE SMOOTH",
"143 508 OFFCURVE",
"140 516 OFFCURVE",
"140 528 CURVE SMOOTH",
"140 549 OFFCURVE",
"209 563 OFFCURVE",
"190 563 CURVE"
);
}
);
width = 355;
}
);
unicode = 00AA;
},
{
glyphname = ordmasculine;
lastChange = "2016-08-23 09:36:32 +0000";
layers = (
{
layerId = UUID0;
paths = (
{
closed = 1;
nodes = (
"182 434 LINE",
"278 434 OFFCURVE",
"334 502 OFFCURVE",
"334 580 CURVE SMOOTH",
"334 658 OFFCURVE",
"278 725 OFFCURVE",
"182 725 CURVE SMOOTH",
"86 725 OFFCURVE",
"30 658 OFFCURVE",
"30 580 CURVE SMOOTH",
"30 502 OFFCURVE",
"86 434 OFFCURVE",
"182 434 CURVE SMOOTH"
);
},
{
closed = 1;
nodes = (
"182 666 LINE",
"230 666 OFFCURVE",
"257 630 OFFCURVE",
"257 580 CURVE SMOOTH",
"257 530 OFFCURVE",
"230 494 OFFCURVE",
"182 494 CURVE SMOOTH",
"134 494 OFFCURVE",
"107 530 OFFCURVE",
"107 580 CURVE SMOOTH",
"107 630 OFFCURVE",
"134 666 OFFCURVE",
"182 666 CURVE SMOOTH"
);
}
);
width = 364;
},
{
layerId = "7C863538-AAB4-42AD-A9FE-7240E615272A";
paths = (
{
closed = 1;
nodes = (
"190 434 LINE",
"292 434 OFFCURVE",
"350 506 OFFCURVE",
"350 583 CURVE SMOOTH",
"350 660 OFFCURVE",
"292 732 OFFCURVE",
"190 732 CURVE SMOOTH",
"89 732 OFFCURVE",
"30 660 OFFCURVE",
"30 583 CURVE SMOOTH",
"30 506 OFFCURVE",
"89 434 OFFCURVE",
"190 434 CURVE SMOOTH"
);
},
{
closed = 1;
nodes = (
"190 655 LINE",
"224 655 OFFCURVE",
"245 620 OFFCURVE",
"245 583 CURVE SMOOTH",
"245 546 OFFCURVE",
"224 511 OFFCURVE",
"190 511 CURVE SMOOTH",
"156 511 OFFCURVE",
"135 546 OFFCURVE",
"135 583 CURVE SMOOTH",
"135 620 OFFCURVE",
"156 655 OFFCURVE",
"190 655 CURVE SMOOTH"
);
}
);
width = 380;
}
);
unicode = 00BA;
},
{
glyphname = oslash;
lastChange = "2016-08-23 09:36:32 +0000";
layers = (
{
layerId = UUID0;
paths = (
{
closed = 1;
nodes = (
"281 -8 LINE",
"441 -8 OFFCURVE",
"534 108 OFFCURVE",
"534 248 CURVE SMOOTH",
"534 335 OFFCURVE",
"498 411 OFFCURVE",
"423 468 CURVE",
"457 534 LINE",
"383 534 LINE",
"364 494 LINE",
"328 503 OFFCURVE",
"305 506 OFFCURVE",
"280 506 CURVE SMOOTH",
"121 506 OFFCURVE",
"28 389 OFFCURVE",
"28 249 CURVE SMOOTH",
"28 163 OFFCURVE",
"63 86 OFFCURVE",
"137 31 CURVE",
"105 -35 LINE",
"176 -35 LINE",
"195 3 LINE",
"232 -5 OFFCURVE",
"256 -8 OFFCURVE",
"281 -8 CURVE SMOOTH"
);
},
{
closed = 1;
nodes = (
"390 398 LINE",
"426 372 OFFCURVE",
"437 294 OFFCURVE",
"437 248 CURVE SMOOTH",
"437 145 OFFCURVE",
"382 62 OFFCURVE",
"282 62 CURVE SMOOTH",
"271 62 OFFCURVE",
"262 63 OFFCURVE",
"227 68 CURVE"
);
},
{
closed = 1;
nodes = (
"279 436 LINE",
"290 436 OFFCURVE",
"298 435 OFFCURVE",
"332 429 CURVE",
"171 100 LINE",
"134 165 OFFCURVE",
"125 205 OFFCURVE",
"125 248 CURVE SMOOTH",
"125 354 OFFCURVE",
"180 436 OFFCURVE",
"279 436 CURVE SMOOTH"
);
}
);
width = 562;
},
{
layerId = "7C863538-AAB4-42AD-A9FE-7240E615272A";
paths = (
{
closed = 1;
nodes = (
"281 -10 LINE",
"441 -10 OFFCURVE",
"534 109 OFFCURVE",
"534 249 CURVE SMOOTH",
"534 334 OFFCURVE",
"499 411 OFFCURVE",
"436 459 CURVE",
"473 534 LINE",
"364 534 LINE",
"348 500 LINE",
"327 505 OFFCURVE",
"305 508 OFFCURVE",
"281 508 CURVE SMOOTH",
"121 508 OFFCURVE",
"28 389 OFFCURVE",
"28 249 CURVE SMOOTH",
"28 164 OFFCURVE",
"62 86 OFFCURVE",
"125 39 CURVE",
"89 -36 LINE",
"195 -36 LINE",
"211 -2 LINE",
"233 -7 OFFCURVE",
"256 -10 OFFCURVE",
"281 -10 CURVE SMOOTH"
);
},
{
closed = 1;
nodes = (
"383 349 LINE",
"398 322 OFFCURVE",
"407 288 OFFCURVE",
"407 249 CURVE SMOOTH",
"407 156 OFFCURVE",
"361 92 OFFCURVE",
"281 92 CURVE SMOOTH",
"273 92 OFFCURVE",
"265 93 OFFCURVE",
"258 94 CURVE"
);
},
{
closed = 1;
nodes = (
"281 406 LINE",
"288 406 OFFCURVE",
"295 405 OFFCURVE",
"301 404 CURVE",
"178 149 LINE",
"163 176 OFFCURVE",
"155 210 OFFCURVE",
"155 249 CURVE SMOOTH",
"155 342 OFFCURVE",
"201 406 OFFCURVE",
"281 406 CURVE SMOOTH"
);
}
);
width = 562;
}
);
leftKerningGroup = o;
rightKerningGroup = o;
unicode = 00F8;
},
{
glyphname = p;
lastChange = "2016-08-23 09:36:32 +0000";
layers = (
{
layerId = UUID0;
paths = (
{
closed = 1;
nodes = (
"315 -10 LINE SMOOTH",
"460 -10 OFFCURVE",
"534 102 OFFCURVE",
"534 245 CURVE SMOOTH",
"534 379 OFFCURVE",
"453 500 OFFCURVE",
"316 500 CURVE SMOOTH",
"236 500 OFFCURVE",
"193 471 OFFCURVE",
"151 420 CURVE",
"141 490 LINE",
"71 490 LINE",
"71 -242 LINE",
"161 -242 LINE",
"161 62 LINE",
"198 14 OFFCURVE",
"271 -10 OFFCURVE",
"315 -10 CURVE SMOOTH"
);
},
{
closed = 1;
nodes = (
"305 420 LINE",
"391 420 OFFCURVE",
"442 345 OFFCURVE",
"442 245 CURVE SMOOTH",
"442 149 OFFCURVE",
"391 70 OFFCURVE",
"305 70 CURVE SMOOTH",
"233 70 OFFCURVE",
"156 122 OFFCURVE",
"156 245 CURVE SMOOTH",
"156 363 OFFCURVE",
"233 420 OFFCURVE",
"305 420 CURVE SMOOTH"
);
}
);
width = 572;
},
{
layerId = "7C863538-AAB4-42AD-A9FE-7240E615272A";
paths = (
{
closed = 1;
nodes = (
"299 -10 LINE SMOOTH",
"459 -10 OFFCURVE",
"544 109 OFFCURVE",
"544 249 CURVE SMOOTH",
"544 389 OFFCURVE",
"459 508 OFFCURVE",
"299 508 CURVE SMOOTH",
"244 508 OFFCURVE",
"210 494 OFFCURVE",
"176 471 CURVE",
"166 500 LINE",
"58 500 LINE",
"58 -242 LINE",
"182 -242 LINE",
"182 24 LINE",
"215 2 OFFCURVE",
"247 -10 OFFCURVE",
"299 -10 CURVE SMOOTH"
);
},
{
closed = 1;
nodes = (
"291 406 LINE",
"371 406 OFFCURVE",
"417 342 OFFCURVE",
"417 249 CURVE SMOOTH",
"417 156 OFFCURVE",
"371 92 OFFCURVE",
"291 92 CURVE SMOOTH",
"211 92 OFFCURVE",
"176 156 OFFCURVE",
"176 249 CURVE SMOOTH",
"176 342 OFFCURVE",
"211 406 OFFCURVE",
"291 406 CURVE SMOOTH"
);
}
);
width = 572;
}
);
leftKerningGroup = n;
rightKerningGroup = o;
unicode = 0070;
},
{
glyphname = paragraph;
lastChange = "2016-08-23 09:36:32 +0000";
layers = (
{
layerId = UUID0;
paths = (
{
closed = 1;
nodes = (
"580 633 LINE",
"580 700 LINE",
"321 700 LINE SMOOTH",
"123 700 OFFCURVE",
"33 584 OFFCURVE",
"33 474 CURVE SMOOTH",
"33 367 OFFCURVE",
"117 254 OFFCURVE",
"315 243 CURVE",
"315 0 LINE",
"356 0 LINE",
"356 633 LINE",
"457 633 LINE",
"457 0 LINE",
"505 0 LINE",
"505 633 LINE"
);
}
);
width = 627;
},
{
layerId = "7C863538-AAB4-42AD-A9FE-7240E615272A";
paths = (
{
closed = 1;
nodes = (
"580 593 LINE",
"580 700 LINE",
"320 700 LINE SMOOTH",
"127 700 OFFCURVE",
"33 583 OFFCURVE",
"33 466 CURVE SMOOTH",
"33 353 OFFCURVE",
"120 239 OFFCURVE",
"292 229 CURVE",
"292 0 LINE",
"361 0 LINE",
"361 593 LINE",
"423 593 LINE",
"423 0 LINE",
"511 0 LINE",
"511 593 LINE"
);
}
);
width = 627;
}
);
unicode = 00B6;
},
{
glyphname = parenleft;
lastChange = "2016-08-23 09:36:32 +0000";
layers = (
{
layerId = UUID0;
paths = (
{
closed = 1;
nodes = (
"240 -136 LINE",
"171 -24 OFFCURVE",
"117 116 OFFCURVE",
"117 307 CURVE SMOOTH",
"117 498 OFFCURVE",
"171 638 OFFCURVE",
"240 750 CURVE",
"161 750 LINE",
"90 642 OFFCURVE",
"45 518 OFFCURVE",
"45 307 CURVE SMOOTH",
"45 96 OFFCURVE",
"90 -28 OFFCURVE",
"161 -136 CURVE"
);
}
);
width = 284;
},
{
layerId = "7C863538-AAB4-42AD-A9FE-7240E615272A";
paths = (
{
closed = 1;
nodes = (
"259 -136 LINE",
"197 -27 OFFCURVE",
"146 111 OFFCURVE",
"146 307 CURVE SMOOTH",
"146 503 OFFCURVE",
"197 641 OFFCURVE",
"259 750 CURVE",
"146 750 LINE",
"84 641 OFFCURVE",
"45 518 OFFCURVE",
"45 307 CURVE SMOOTH",
"45 96 OFFCURVE",
"84 -27 OFFCURVE",
"146 -136 CURVE"
);
}
);
width = 284;
}
);
unicode = 0028;
},
{
glyphname = parenright;
lastChange = "2016-08-23 09:36:32 +0000";
layers = (
{
layerId = UUID0;
paths = (
{
closed = 1;
nodes = (
"123 -136 LINE",
"194 -28 OFFCURVE",
"239 96 OFFCURVE",
"239 307 CURVE SMOOTH",
"239 518 OFFCURVE",
"194 642 OFFCURVE",
"123 750 CURVE",
"44 750 LINE",
"113 638 OFFCURVE",
"167 498 OFFCURVE",
"167 307 CURVE SMOOTH",
"167 116 OFFCURVE",
"113 -24 OFFCURVE",
"44 -136 CURVE"
);
}
);
width = 284;
},
{
layerId = "7C863538-AAB4-42AD-A9FE-7240E615272A";
paths = (
{
closed = 1;
nodes = (
"138 -136 LINE",
"200 -27 OFFCURVE",
"239 96 OFFCURVE",
"239 307 CURVE SMOOTH",
"239 518 OFFCURVE",
"200 641 OFFCURVE",
"138 750 CURVE",
"25 750 LINE",
"87 641 OFFCURVE",
"138 503 OFFCURVE",
"138 307 CURVE SMOOTH",
"138 111 OFFCURVE",
"87 -27 OFFCURVE",
"25 -136 CURVE"
);
}
);
width = 284;
}
);
unicode = 0029;
},
{
glyphname = percent;
lastChange = "2016-08-23 09:36:32 +0000";
layers = (
{
layerId = UUID0;
paths = (
{
closed = 1;
nodes = (
"656 -13 LINE",
"746 -13 OFFCURVE",
"809 57 OFFCURVE",
"809 179 CURVE SMOOTH",
"809 295 OFFCURVE",
"745 362 OFFCURVE",
"661 362 CURVE SMOOTH",
"579 362 OFFCURVE",
"508 292 OFFCURVE",
"508 171 CURVE SMOOTH",
"508 54 OFFCURVE",
"569 -13 OFFCURVE",
"656 -13 CURVE SMOOTH"
);
},
{
closed = 1;
nodes = (
"660 700 LINE",
"586 700 LINE",
"165 -12 LINE",
"240 -12 LINE"
);
},
{
closed = 1;
nodes = (
"184 333 LINE",
"271 333 OFFCURVE",
"335 401 OFFCURVE",
"335 524 CURVE SMOOTH",
"335 641 OFFCURVE",
"271 705 OFFCURVE",
"189 705 CURVE SMOOTH",
"108 705 OFFCURVE",
"38 637 OFFCURVE",
"38 515 CURVE SMOOTH",
"38 398 OFFCURVE",
"99 333 OFFCURVE",
"184 333 CURVE SMOOTH"
);
},
{
closed = 1;
nodes = (
"657 315 LINE",
"712 315 OFFCURVE",
"754 264 OFFCURVE",
"754 179 CURVE SMOOTH",
"754 88 OFFCURVE",
"716 36 OFFCURVE",
"654 36 CURVE SMOOTH",
"596 36 OFFCURVE",
"558 85 OFFCURVE",
"558 171 CURVE SMOOTH",
"558 261 OFFCURVE",
"602 315 OFFCURVE",
"657 315 CURVE SMOOTH"
);
},
{
closed = 1;
nodes = (
"188 654 LINE",
"236 654 OFFCURVE",
"280 602 OFFCURVE",
"280 524 CURVE SMOOTH",
"280 439 OFFCURVE",
"238 385 OFFCURVE",
"185 385 CURVE SMOOTH",
"136 385 OFFCURVE",
"94 436 OFFCURVE",
"94 515 CURVE SMOOTH",
"94 599 OFFCURVE",
"137 654 OFFCURVE",
"188 654 CURVE SMOOTH"
);
}
);
width = 842;
},
{
layerId = "7C863538-AAB4-42AD-A9FE-7240E615272A";
paths = (
{
closed = 1;
nodes = (
"654 -9 LINE",
"747 -9 OFFCURVE",
"809 65 OFFCURVE",
"809 180 CURVE SMOOTH",
"809 290 OFFCURVE",
"746 360 OFFCURVE",
"659 360 CURVE SMOOTH",
"572 360 OFFCURVE",
"504 287 OFFCURVE",
"504 172 CURVE SMOOTH",
"504 62 OFFCURVE",
"564 -9 OFFCURVE",
"654 -9 CURVE SMOOTH"
);
},
{
closed = 1;
nodes = (
"673 700 LINE",
"569 700 LINE",
"147 -12 LINE",
"251 -12 LINE"
);
},
{
closed = 1;
nodes = (
"184 335 LINE",
"277 335 OFFCURVE",
"339 409 OFFCURVE",
"339 524 CURVE SMOOTH",
"339 634 OFFCURVE",
"276 704 OFFCURVE",
"189 704 CURVE SMOOTH",
"102 704 OFFCURVE",
"34 631 OFFCURVE",
"34 516 CURVE SMOOTH",
"34 406 OFFCURVE",
"94 335 OFFCURVE",
"184 335 CURVE SMOOTH"
);
},
{
closed = 1;
nodes = (
"658 288 LINE",
"695 288 OFFCURVE",
"730 256 OFFCURVE",
"730 180 CURVE SMOOTH",
"730 97 OFFCURVE",
"698 65 OFFCURVE",
"655 65 CURVE SMOOTH",
"615 65 OFFCURVE",
"584 95 OFFCURVE",
"584 172 CURVE SMOOTH",
"584 254 OFFCURVE",
"621 288 OFFCURVE",
"658 288 CURVE SMOOTH"
);
},
{
closed = 1;
nodes = (
"188 632 LINE",
"225 632 OFFCURVE",
"260 600 OFFCURVE",
"260 524 CURVE SMOOTH",
"260 441 OFFCURVE",
"228 409 OFFCURVE",
"185 409 CURVE SMOOTH",
"145 409 OFFCURVE",
"114 439 OFFCURVE",
"114 516 CURVE SMOOTH",
"114 598 OFFCURVE",
"151 632 OFFCURVE",
"188 632 CURVE SMOOTH"
);
}
);
width = 842;
}
);
unicode = 0025;
},
{
glyphname = period;
lastChange = "2016-08-23 09:36:32 +0000";
layers = (
{
layerId = UUID0;
paths = (
{
closed = 1;
nodes = (
"166 0 LINE",
"166 86 LINE",
"76 86 LINE",
"76 0 LINE"
);
}
);
width = 236;
},
{
layerId = "7C863538-AAB4-42AD-A9FE-7240E615272A";
paths = (
{
closed = 1;
nodes = (
"180 0 LINE",
"180 130 LINE",
"56 130 LINE",
"56 0 LINE"
);
}
);
width = 236;
}
);
leftKerningGroup = period;
unicode = 002E;
},
{
glyphname = periodcentered;
lastChange = "2016-08-23 09:36:32 +0000";
layers = (
{
layerId = UUID0;
paths = (
{
closed = 1;
nodes = (
"188 213 LINE",
"188 343 LINE",
"64 343 LINE",
"64 213 LINE"
);
}
);
width = 252;
},
{
layerId = "7C863538-AAB4-42AD-A9FE-7240E615272A";
paths = (
{
closed = 1;
nodes = (
"188 213 LINE",
"188 343 LINE",
"64 343 LINE",
"64 213 LINE"
);
}
);
width = 252;
}
);
unicode = 00B7;
},
{
glyphname = perthousand;
lastChange = "2016-08-23 09:36:32 +0000";
layers = (
{
layerId = UUID0;
paths = (
{
closed = 1;
nodes = (
"656 -13 LINE",
"746 -13 OFFCURVE",
"809 57 OFFCURVE",
"809 179 CURVE SMOOTH",
"809 295 OFFCURVE",
"745 362 OFFCURVE",
"661 362 CURVE SMOOTH",
"579 362 OFFCURVE",
"508 292 OFFCURVE",
"508 171 CURVE SMOOTH",
"508 54 OFFCURVE",
"569 -13 OFFCURVE",
"656 -13 CURVE SMOOTH"
);
},
{
closed = 1;
nodes = (
"660 700 LINE",
"586 700 LINE",
"165 -12 LINE",
"240 -12 LINE"
);
},
{
closed = 1;
nodes = (
"184 333 LINE",
"271 333 OFFCURVE",
"335 401 OFFCURVE",
"335 524 CURVE SMOOTH",
"335 641 OFFCURVE",
"271 705 OFFCURVE",
"189 705 CURVE SMOOTH",
"108 705 OFFCURVE",
"38 637 OFFCURVE",
"38 515 CURVE SMOOTH",
"38 398 OFFCURVE",
"99 333 OFFCURVE",
"184 333 CURVE SMOOTH"
);
},
{
closed = 1;
nodes = (
"657 315 LINE",
"712 315 OFFCURVE",
"754 264 OFFCURVE",
"754 179 CURVE SMOOTH",
"754 88 OFFCURVE",
"716 36 OFFCURVE",
"654 36 CURVE SMOOTH",
"596 36 OFFCURVE",
"558 85 OFFCURVE",
"558 171 CURVE SMOOTH",
"558 261 OFFCURVE",
"602 315 OFFCURVE",
"657 315 CURVE SMOOTH"
);
},
{
closed = 1;
nodes = (
"188 654 LINE",
"236 654 OFFCURVE",
"280 602 OFFCURVE",
"280 524 CURVE SMOOTH",
"280 439 OFFCURVE",
"238 385 OFFCURVE",
"185 385 CURVE SMOOTH",
"136 385 OFFCURVE",
"94 436 OFFCURVE",
"94 515 CURVE SMOOTH",
"94 599 OFFCURVE",
"137 654 OFFCURVE",
"188 654 CURVE SMOOTH"
);
},
{
closed = 1;
nodes = (
"1016 -13 LINE SMOOTH",
"1106 -13 OFFCURVE",
"1169 57 OFFCURVE",
"1169 179 CURVE SMOOTH",
"1169 295 OFFCURVE",
"1105 362 OFFCURVE",
"1021 362 CURVE SMOOTH",
"939 362 OFFCURVE",
"868 292 OFFCURVE",
"868 171 CURVE SMOOTH",
"868 54 OFFCURVE",
"929 -13 OFFCURVE",
"1016 -13 CURVE SMOOTH"
);
},
{
closed = 1;
nodes = (
"1017 315 LINE SMOOTH",
"1072 315 OFFCURVE",
"1114 264 OFFCURVE",
"1114 179 CURVE SMOOTH",
"1114 88 OFFCURVE",
"1076 36 OFFCURVE",
"1014 36 CURVE SMOOTH",
"956 36 OFFCURVE",
"918 85 OFFCURVE",
"918 171 CURVE SMOOTH",
"918 261 OFFCURVE",
"962 315 OFFCURVE",
"1017 315 CURVE SMOOTH"
);
}
);
width = 842;
},
{
layerId = "7C863538-AAB4-42AD-A9FE-7240E615272A";
paths = (
{
closed = 1;
nodes = (
"654 -9 LINE",
"747 -9 OFFCURVE",
"809 65 OFFCURVE",
"809 180 CURVE SMOOTH",
"809 290 OFFCURVE",
"746 360 OFFCURVE",
"659 360 CURVE SMOOTH",
"572 360 OFFCURVE",
"504 287 OFFCURVE",
"504 172 CURVE SMOOTH",
"504 62 OFFCURVE",
"564 -9 OFFCURVE",
"654 -9 CURVE SMOOTH"
);
},
{
closed = 1;
nodes = (
"673 700 LINE",
"569 700 LINE",
"147 -12 LINE",
"251 -12 LINE"
);
},
{
closed = 1;
nodes = (
"184 335 LINE",
"277 335 OFFCURVE",
"339 409 OFFCURVE",
"339 524 CURVE SMOOTH",
"339 634 OFFCURVE",
"276 704 OFFCURVE",
"189 704 CURVE SMOOTH",
"102 704 OFFCURVE",
"34 631 OFFCURVE",
"34 516 CURVE SMOOTH",
"34 406 OFFCURVE",
"94 335 OFFCURVE",
"184 335 CURVE SMOOTH"
);
},
{
closed = 1;
nodes = (
"658 288 LINE",
"695 288 OFFCURVE",
"730 256 OFFCURVE",
"730 180 CURVE SMOOTH",
"730 97 OFFCURVE",
"698 65 OFFCURVE",
"655 65 CURVE SMOOTH",
"615 65 OFFCURVE",
"584 95 OFFCURVE",
"584 172 CURVE SMOOTH",
"584 254 OFFCURVE",
"621 288 OFFCURVE",
"658 288 CURVE SMOOTH"
);
},
{
closed = 1;
nodes = (
"188 632 LINE",
"225 632 OFFCURVE",
"260 600 OFFCURVE",
"260 524 CURVE SMOOTH",
"260 441 OFFCURVE",
"228 409 OFFCURVE",
"185 409 CURVE SMOOTH",
"145 409 OFFCURVE",
"114 439 OFFCURVE",
"114 516 CURVE SMOOTH",
"114 598 OFFCURVE",
"151 632 OFFCURVE",
"188 632 CURVE SMOOTH"
);
},
{
closed = 1;
nodes = (
"1015 -9 LINE SMOOTH",
"1108 -9 OFFCURVE",
"1170 65 OFFCURVE",
"1170 180 CURVE SMOOTH",
"1170 290 OFFCURVE",
"1107 360 OFFCURVE",
"1020 360 CURVE SMOOTH",
"933 360 OFFCURVE",
"865 287 OFFCURVE",
"865 172 CURVE SMOOTH",
"865 62 OFFCURVE",
"925 -9 OFFCURVE",
"1015 -9 CURVE SMOOTH"
);
},
{
closed = 1;
nodes = (
"1019 288 LINE SMOOTH",
"1056 288 OFFCURVE",
"1091 256 OFFCURVE",
"1091 180 CURVE SMOOTH",
"1091 97 OFFCURVE",
"1059 65 OFFCURVE",
"1016 65 CURVE SMOOTH",
"976 65 OFFCURVE",
"945 95 OFFCURVE",
"945 172 CURVE SMOOTH",
"945 254 OFFCURVE",
"982 288 OFFCURVE",
"1019 288 CURVE SMOOTH"
);
}
);
width = 842;
}
);
unicode = 2030;
},
{
glyphname = plus;
lastChange = "2016-08-23 09:36:32 +0000";
layers = (
{
layerId = UUID0;
paths = (
{
closed = 1;
nodes = (
"411 238 LINE",
"411 324 LINE",
"266 324 LINE",
"266 452 LINE",
"186 452 LINE",
"186 324 LINE",
"41 324 LINE",
"41 238 LINE",
"186 238 LINE",
"186 102 LINE",
"266 102 LINE",
"266 238 LINE"
);
}
);
width = 452;
},
{
layerId = "7C863538-AAB4-42AD-A9FE-7240E615272A";
paths = (
{
closed = 1;
nodes = (
"411 230 LINE",
"411 324 LINE",
"273 324 LINE",
"273 452 LINE",
"179 452 LINE",
"179 324 LINE",
"41 324 LINE",
"41 230 LINE",
"179 230 LINE",
"179 102 LINE",
"273 102 LINE",
"273 230 LINE"
);
}
);
width = 452;
}
);
unicode = 002B;
},
{
glyphname = plusminus;
lastChange = "2016-08-23 09:36:32 +0000";
layers = (
{
layerId = UUID0;
paths = (
{
closed = 1;
nodes = (
"418 327 LINE",
"418 394 LINE",
"265 394 LINE",
"265 532 LINE",
"201 532 LINE",
"201 394 LINE",
"48 394 LINE",
"48 327 LINE",
"201 327 LINE",
"201 183 LINE",
"265 183 LINE",
"265 327 LINE"
);
},
{
closed = 1;
nodes = (
"418 42 LINE",
"418 109 LINE",
"48 109 LINE",
"48 42 LINE"
);
}
);
width = 466;
},
{
layerId = "7C863538-AAB4-42AD-A9FE-7240E615272A";
paths = (
{
closed = 1;
nodes = (
"418 310 LINE",
"418 404 LINE",
"280 404 LINE",
"280 532 LINE",
"186 532 LINE",
"186 404 LINE",
"48 404 LINE",
"48 310 LINE",
"186 310 LINE",
"186 182 LINE",
"280 182 LINE",
"280 310 LINE"
);
},
{
closed = 1;
nodes = (
"418 30 LINE",
"418 124 LINE",
"48 124 LINE",
"48 30 LINE"
);
}
);
width = 466;
}
);
unicode = 00B1;
},
{
glyphname = q;
lastChange = "2016-08-23 09:36:32 +0000";
layers = (
{
layerId = UUID0;
paths = (
{
closed = 1;
nodes = (
"290 -10 LINE",
"145 -10 OFFCURVE",
"71 102 OFFCURVE",
"71 245 CURVE SMOOTH",
"71 379 OFFCURVE",
"152 500 OFFCURVE",
"289 500 CURVE SMOOTH",
"369 500 OFFCURVE",
"412 471 OFFCURVE",
"454 420 CURVE",
"464 490 LINE",
"534 490 LINE",
"534 -242 LINE",
"444 -242 LINE",
"444 62 LINE",
"407 14 OFFCURVE",
"334 -10 OFFCURVE",
"290 -10 CURVE"
);
},
{
closed = 1;
nodes = (
"300 420 LINE",
"214 420 OFFCURVE",
"163 345 OFFCURVE",
"163 245 CURVE SMOOTH",
"163 149 OFFCURVE",
"214 70 OFFCURVE",
"300 70 CURVE SMOOTH",
"372 70 OFFCURVE",
"449 122 OFFCURVE",
"449 245 CURVE SMOOTH",
"449 363 OFFCURVE",
"372 420 OFFCURVE",
"300 420 CURVE"
);
}
);
width = 572;
},
{
layerId = "7C863538-AAB4-42AD-A9FE-7240E615272A";
paths = (
{
closed = 1;
nodes = (
"303 -10 LINE",
"143 -10 OFFCURVE",
"58 109 OFFCURVE",
"58 249 CURVE SMOOTH",
"58 389 OFFCURVE",
"143 508 OFFCURVE",
"303 508 CURVE SMOOTH",
"358 508 OFFCURVE",
"392 494 OFFCURVE",
"426 471 CURVE",
"436 500 LINE",
"544 500 LINE",
"544 -242 LINE",
"420 -242 LINE",
"420 24 LINE",
"387 2 OFFCURVE",
"355 -10 OFFCURVE",
"303 -10 CURVE"
);
},
{
closed = 1;
nodes = (
"311 406 LINE",
"231 406 OFFCURVE",
"185 342 OFFCURVE",
"185 249 CURVE SMOOTH",
"185 156 OFFCURVE",
"231 92 OFFCURVE",
"311 92 CURVE SMOOTH",
"391 92 OFFCURVE",
"426 156 OFFCURVE",
"426 249 CURVE SMOOTH",
"426 342 OFFCURVE",
"391 406 OFFCURVE",
"311 406 CURVE"
);
}
);
width = 572;
}
);
leftKerningGroup = o;
rightKerningGroup = u;
unicode = 0071;
},
{
glyphname = question;
lastChange = "2016-08-23 09:36:32 +0000";
layers = (
{
layerId = UUID0;
paths = (
{
closed = 1;
nodes = (
"228 200 LINE",
"228 227 LINE SMOOTH",
"228 332 OFFCURVE",
"399 436 OFFCURVE",
"399 563 CURVE SMOOTH",
"399 645 OFFCURVE",
"327 750 OFFCURVE",
"191 750 CURVE SMOOTH",
"118 750 OFFCURVE",
"56 720 OFFCURVE",
"32 683 CURVE",
"57 616 LINE",
"69 641 OFFCURVE",
"122 684 OFFCURVE",
"188 684 CURVE SMOOTH",
"250 684 OFFCURVE",
"316 646 OFFCURVE",
"316 561 CURVE SMOOTH",
"316 433 OFFCURVE",
"166 369 OFFCURVE",
"166 245 CURVE SMOOTH",
"166 242 OFFCURVE",
"167 227 OFFCURVE",
"169 200 CURVE"
);
},
{
closed = 1;
nodes = (
"246 0 LINE",
"246 86 LINE",
"155 86 LINE",
"155 0 LINE"
);
}
);
width = 443;
},
{
layerId = "7C863538-AAB4-42AD-A9FE-7240E615272A";
paths = (
{
closed = 1;
nodes = (
"244 200 LINE",
"244 213 LINE SMOOTH",
"244 357 OFFCURVE",
"399 439 OFFCURVE",
"399 560 CURVE SMOOTH",
"399 640 OFFCURVE",
"332 750 OFFCURVE",
"189 750 CURVE SMOOTH",
"125 750 OFFCURVE",
"62 728 OFFCURVE",
"29 679 CURVE",
"57 587 LINE",
"82 622 OFFCURVE",
"124 652 OFFCURVE",
"181 652 CURVE SMOOTH",
"238 652 OFFCURVE",
"282 623 OFFCURVE",
"282 559 CURVE SMOOTH",
"282 451 OFFCURVE",
"157 378 OFFCURVE",
"157 253 CURVE SMOOTH",
"157 249 OFFCURVE",
"157 245 OFFCURVE",
"160 200 CURVE"
);
},
{
closed = 1;
nodes = (
"264 0 LINE",
"264 124 LINE",
"140 124 LINE",
"140 0 LINE"
);
}
);
width = 443;
}
);
unicode = 003F;
},
{
glyphname = questiondown;
lastChange = "2016-08-23 09:36:32 +0000";
layers = (
{
layerId = UUID0;
paths = (
{
closed = 1;
nodes = (
"203 300 LINE",
"203 273 LINE SMOOTH",
"203 168 OFFCURVE",
"32 64 OFFCURVE",
"32 -63 CURVE SMOOTH",
"32 -145 OFFCURVE",
"104 -250 OFFCURVE",
"240 -250 CURVE SMOOTH",
"313 -250 OFFCURVE",
"375 -220 OFFCURVE",
"399 -183 CURVE",
"374 -116 LINE",
"362 -141 OFFCURVE",
"309 -184 OFFCURVE",
"243 -184 CURVE SMOOTH",
"181 -184 OFFCURVE",
"115 -146 OFFCURVE",
"115 -61 CURVE SMOOTH",
"115 67 OFFCURVE",
"265 131 OFFCURVE",
"265 255 CURVE SMOOTH",
"265 258 OFFCURVE",
"264 273 OFFCURVE",
"262 300 CURVE"
);
},
{
closed = 1;
nodes = (
"185 500 LINE",
"185 414 LINE",
"276 414 LINE",
"276 500 LINE"
);
}
);
width = 443;
},
{
layerId = "7C863538-AAB4-42AD-A9FE-7240E615272A";
paths = (
{
closed = 1;
nodes = (
"184 300 LINE",
"184 287 LINE SMOOTH",
"184 143 OFFCURVE",
"29 61 OFFCURVE",
"29 -60 CURVE SMOOTH",
"29 -140 OFFCURVE",
"96 -250 OFFCURVE",
"239 -250 CURVE SMOOTH",
"303 -250 OFFCURVE",
"366 -228 OFFCURVE",
"399 -179 CURVE",
"371 -87 LINE",
"346 -122 OFFCURVE",
"304 -152 OFFCURVE",
"247 -152 CURVE SMOOTH",
"190 -152 OFFCURVE",
"146 -123 OFFCURVE",
"146 -59 CURVE SMOOTH",
"146 49 OFFCURVE",
"271 122 OFFCURVE",
"271 247 CURVE SMOOTH",
"271 251 OFFCURVE",
"271 255 OFFCURVE",
"268 300 CURVE"
);
},
{
closed = 1;
nodes = (
"164 500 LINE",
"164 376 LINE",
"288 376 LINE",
"288 500 LINE"
);
}
);
width = 443;
}
);
unicode = 00BF;
},
{
glyphname = quotedbl;
lastChange = "2016-08-23 09:36:32 +0000";
layers = (
{
layerId = UUID0;
paths = (
{
closed = 1;
nodes = (
"358 750 LINE",
"266 750 LINE",
"286 450 LINE",
"338 450 LINE"
);
},
{
closed = 1;
nodes = (
"130 750 LINE",
"36 750 LINE",
"56 450 LINE",
"110 450 LINE"
);
}
);
width = 396;
},
{
layerId = "7C863538-AAB4-42AD-A9FE-7240E615272A";
paths = (
{
closed = 1;
nodes = (
"360 750 LINE",
"236 750 LINE",
"256 450 LINE",
"340 450 LINE"
);
},
{
closed = 1;
nodes = (
"160 750 LINE",
"36 750 LINE",
"56 450 LINE",
"140 450 LINE"
);
}
);
width = 396;
}
);
leftKerningGroup = quotesingle;
rightKerningGroup = quotesingle;
unicode = 0022;
},
{
glyphname = quotedblbase;
lastChange = "2016-08-23 09:36:32 +0000";
layers = (
{
layerId = UUID0;
paths = (
{
closed = 1;
nodes = (
"169 0 LINE",
"169 86 LINE",
"69 86 LINE",
"69 0 LINE",
"103 -9 LINE",
"68 -96 LINE",
"91 -109 LINE"
);
},
{
closed = 1;
nodes = (
"399 0 LINE",
"399 86 LINE",
"299 86 LINE",
"299 0 LINE",
"333 -9 LINE",
"298 -96 LINE",
"321 -109 LINE"
);
}
);
width = 455;
},
{
layerId = "7C863538-AAB4-42AD-A9FE-7240E615272A";
paths = (
{
closed = 1;
nodes = (
"180 0 LINE",
"180 130 LINE",
"56 130 LINE",
"56 0 LINE",
"89 -10 LINE",
"56 -96 LINE",
"82 -110 LINE"
);
},
{
closed = 1;
nodes = (
"410 0 LINE",
"410 130 LINE",
"286 130 LINE",
"286 0 LINE",
"319 -10 LINE",
"286 -96 LINE",
"312 -110 LINE"
);
}
);
width = 455;
}
);
leftKerningGroup = quotesinglbase;
rightKerningGroup = quotesinglbase;
unicode = 201E;
},
{
glyphname = quotedblleft;
lastChange = "2016-08-23 09:36:32 +0000";
layers = (
{
layerId = UUID0;
paths = (
{
closed = 1;
nodes = (
"68 641 LINE",
"68 555 LINE",
"168 555 LINE",
"168 641 LINE",
"134 650 LINE",
"169 737 LINE",
"146 750 LINE"
);
},
{
closed = 1;
nodes = (
"278 641 LINE",
"278 555 LINE",
"378 555 LINE",
"378 641 LINE",
"344 650 LINE",
"379 737 LINE",
"356 750 LINE"
);
}
);
width = 447;
},
{
layerId = "7C863538-AAB4-42AD-A9FE-7240E615272A";
paths = (
{
closed = 1;
nodes = (
"56 640 LINE",
"56 510 LINE",
"180 510 LINE",
"180 640 LINE",
"147 650 LINE",
"180 736 LINE",
"154 750 LINE"
);
},
{
closed = 1;
nodes = (
"266 640 LINE",
"266 510 LINE",
"390 510 LINE",
"390 640 LINE",
"357 650 LINE",
"390 736 LINE",
"364 750 LINE"
);
}
);
width = 447;
}
);
leftKerningGroup = quoteleft;
rightKerningGroup = quoteleft;
unicode = 201C;
},
{
glyphname = quotedblright;
lastChange = "2016-08-23 09:36:32 +0000";
layers = (
{
layerId = UUID0;
paths = (
{
closed = 1;
nodes = (
"379 664 LINE",
"379 750 LINE",
"279 750 LINE",
"279 664 LINE",
"313 655 LINE",
"278 568 LINE",
"301 555 LINE"
);
},
{
closed = 1;
nodes = (
"169 664 LINE",
"169 750 LINE",
"69 750 LINE",
"69 664 LINE",
"103 655 LINE",
"68 568 LINE",
"91 555 LINE"
);
}
);
width = 447;
},
{
layerId = "7C863538-AAB4-42AD-A9FE-7240E615272A";
paths = (
{
closed = 1;
nodes = (
"390 620 LINE",
"390 750 LINE",
"266 750 LINE",
"266 620 LINE",
"299 610 LINE",
"266 524 LINE",
"292 510 LINE"
);
},
{
closed = 1;
nodes = (
"180 620 LINE",
"180 750 LINE",
"56 750 LINE",
"56 620 LINE",
"89 610 LINE",
"56 524 LINE",
"82 510 LINE"
);
}
);
width = 447;
}
);
leftKerningGroup = quoteright;
rightKerningGroup = quoteright;
unicode = 201D;
},
{
glyphname = quoteleft;
lastChange = "2016-08-23 09:36:32 +0000";
layers = (
{
layerId = UUID0;
paths = (
{
closed = 1;
nodes = (
"68 641 LINE",
"68 555 LINE",
"168 555 LINE",
"168 641 LINE",
"134 650 LINE",
"169 737 LINE",
"146 750 LINE"
);
}
);
width = 236;
},
{
layerId = "7C863538-AAB4-42AD-A9FE-7240E615272A";
paths = (
{
closed = 1;
nodes = (
"56 640 LINE",
"56 510 LINE",
"180 510 LINE",
"180 640 LINE",
"147 650 LINE",
"180 736 LINE",
"154 750 LINE"
);
}
);
width = 236;
}
);
leftKerningGroup = quoteleft;
rightKerningGroup = quoteleft;
unicode = 2018;
},
{
glyphname = quoteright;
lastChange = "2016-08-23 09:36:32 +0000";
layers = (
{
layerId = UUID0;
paths = (
{
closed = 1;
nodes = (
"169 664 LINE",
"169 750 LINE",
"69 750 LINE",
"69 664 LINE",
"103 655 LINE",
"68 568 LINE",
"91 555 LINE"
);
}
);
width = 236;
},
{
layerId = "7C863538-AAB4-42AD-A9FE-7240E615272A";
paths = (
{
closed = 1;
nodes = (
"180 620 LINE",
"180 750 LINE",
"56 750 LINE",
"56 620 LINE",
"89 610 LINE",
"56 524 LINE",
"82 510 LINE"
);
}
);
width = 236;
}
);
leftKerningGroup = quoteright;
rightKerningGroup = quoteright;
unicode = 2019;
},
{
glyphname = quotesinglbase;
lastChange = "2016-08-23 09:36:32 +0000";
layers = (
{
layerId = UUID0;
paths = (
{
closed = 1;
nodes = (
"169 0 LINE",
"169 86 LINE",
"69 86 LINE",
"69 0 LINE",
"103 -9 LINE",
"68 -96 LINE",
"91 -109 LINE"
);
}
);
width = 236;
},
{
layerId = "7C863538-AAB4-42AD-A9FE-7240E615272A";
paths = (
{
closed = 1;
nodes = (
"180 0 LINE",
"180 130 LINE",
"56 130 LINE",
"56 0 LINE",
"89 -10 LINE",
"56 -96 LINE",
"82 -110 LINE"
);
}
);
width = 236;
}
);
leftKerningGroup = quotesinglbase;
rightKerningGroup = quotesinglbase;
unicode = 201A;
},
{
glyphname = quotesingle;
lastChange = "2016-08-23 09:36:32 +0000";
layers = (
{
layerId = UUID0;
paths = (
{
closed = 1;
nodes = (
"148 750 LINE",
"48 750 LINE",
"66 450 LINE",
"130 450 LINE"
);
}
);
width = 196;
},
{
layerId = "7C863538-AAB4-42AD-A9FE-7240E615272A";
paths = (
{
closed = 1;
nodes = (
"160 750 LINE",
"36 750 LINE",
"56 450 LINE",
"140 450 LINE"
);
}
);
width = 196;
}
);
leftKerningGroup = quotesingle;
rightKerningGroup = quotesingle;
unicode = 0027;
},
{
glyphname = r;
lastChange = "2016-08-23 09:36:32 +0000";
layers = (
{
layerId = UUID0;
paths = (
{
closed = 1;
nodes = (
"331 508 LINE",
"323 508 LINE SMOOTH",
"263 508 OFFCURVE",
"216 476 OFFCURVE",
"157 409 CURVE",
"146 490 LINE",
"72 490 LINE",
"72 0 LINE",
"168 0 LINE",
"168 346 LINE",
"185 377 OFFCURVE",
"239 409 OFFCURVE",
"280 409 CURVE SMOOTH",
"311 409 LINE"
);
}
);
width = 347;
},
{
layerId = "7C863538-AAB4-42AD-A9FE-7240E615272A";
paths = (
{
closed = 1;
nodes = (
"343 508 LINE",
"310 508 LINE SMOOTH",
"253 508 OFFCURVE",
"203 474 OFFCURVE",
"177 447 CURVE",
"174 500 LINE",
"58 500 LINE",
"58 0 LINE",
"182 0 LINE",
"182 341 LINE",
"196 369 OFFCURVE",
"232 391 OFFCURVE",
"273 391 CURVE SMOOTH",
"319 391 LINE"
);
}
);
width = 342;
}
);
leftKerningGroup = n;
unicode = 0072;
},
{
glyphname = registered;
lastChange = "2016-08-23 09:36:32 +0000";
layers = (
{
layerId = UUID0;
paths = (
{
closed = 1;
nodes = (
"351 37 LINE",
"531 37 OFFCURVE",
"661 167 OFFCURVE",
"661 365 CURVE SMOOTH",
"661 564 OFFCURVE",
"531 693 OFFCURVE",
"351 693 CURVE SMOOTH",
"171 693 OFFCURVE",
"40 564 OFFCURVE",
"40 365 CURVE SMOOTH",
"40 167 OFFCURVE",
"171 37 OFFCURVE",
"351 37 CURVE SMOOTH"
);
},
{
closed = 1;
nodes = (
"351 649 LINE",
"524 649 OFFCURVE",
"610 525 OFFCURVE",
"610 365 CURVE SMOOTH",
"610 205 OFFCURVE",
"524 80 OFFCURVE",
"351 80 CURVE SMOOTH",
"177 80 OFFCURVE",
"91 205 OFFCURVE",
"91 365 CURVE SMOOTH",
"91 525 OFFCURVE",
"177 649 OFFCURVE",
"351 649 CURVE SMOOTH"
);
},
{
closed = 1;
nodes = (
"480 210 LINE",
"409 344 LINE",
"442 366 OFFCURVE",
"463 396 OFFCURVE",
"463 431 CURVE SMOOTH",
"463 509 OFFCURVE",
"420 531 OFFCURVE",
"353 531 CURVE SMOOTH",
"235 531 LINE",
"235 210 LINE",
"297 210 LINE",
"297 327 LINE",
"352 327 LINE",
"417 210 LINE"
);
},
{
closed = 1;
nodes = (
"339 482 LINE SMOOTH",
"385 482 OFFCURVE",
"398 463 OFFCURVE",
"398 433 CURVE SMOOTH",
"398 405 OFFCURVE",
"385 383 OFFCURVE",
"337 383 CURVE SMOOTH",
"297 383 LINE",
"297 482 LINE"
);
}
);
width = 701;
},
{
layerId = "7C863538-AAB4-42AD-A9FE-7240E615272A";
paths = (
{
closed = 1;
nodes = (
"351 37 LINE",
"531 37 OFFCURVE",
"661 168 OFFCURVE",
"661 365 CURVE SMOOTH",
"661 563 OFFCURVE",
"531 693 OFFCURVE",
"351 693 CURVE SMOOTH",
"171 693 OFFCURVE",
"40 563 OFFCURVE",
"40 365 CURVE SMOOTH",
"40 168 OFFCURVE",
"171 37 OFFCURVE",
"351 37 CURVE SMOOTH"
);
},
{
closed = 1;
nodes = (
"351 622 LINE",
"507 622 OFFCURVE",
"583 513 OFFCURVE",
"583 365 CURVE SMOOTH",
"583 218 OFFCURVE",
"507 107 OFFCURVE",
"351 107 CURVE SMOOTH",
"195 107 OFFCURVE",
"118 218 OFFCURVE",
"118 365 CURVE SMOOTH",
"118 513 OFFCURVE",
"195 622 OFFCURVE",
"351 622 CURVE SMOOTH"
);
},
{
closed = 1;
nodes = (
"498 203 LINE",
"424 341 LINE",
"448 356 OFFCURVE",
"471 389 OFFCURVE",
"471 428 CURVE SMOOTH",
"471 513 OFFCURVE",
"421 538 OFFCURVE",
"352 538 CURVE SMOOTH",
"225 538 LINE",
"225 203 LINE",
"313 203 LINE",
"313 315 LINE",
"343 315 LINE",
"405 203 LINE"
);
},
{
closed = 1;
nodes = (
"339 463 LINE SMOOTH",
"376 463 OFFCURVE",
"381 450 OFFCURVE",
"381 430 CURVE SMOOTH",
"381 411 OFFCURVE",
"375 396 OFFCURVE",
"337 396 CURVE SMOOTH",
"313 396 LINE",
"313 463 LINE"
);
}
);
width = 701;
}
);
unicode = 00AE;
},
{
glyphname = ring;
lastChange = "2016-08-23 09:36:32 +0000";
layers = (
{
layerId = UUID0;
paths = (
{
closed = 1;
nodes = (
"146 576 LINE",
"216 576 OFFCURVE",
"250 619 OFFCURVE",
"250 665 CURVE SMOOTH",
"250 711 OFFCURVE",
"215 755 OFFCURVE",
"146 755 CURVE SMOOTH",
"78 755 OFFCURVE",
"42 711 OFFCURVE",
"42 665 CURVE SMOOTH",
"42 619 OFFCURVE",
"77 576 OFFCURVE",
"146 576 CURVE SMOOTH"
);
},
{
closed = 1;
nodes = (
"146 724 LINE",
"178 724 OFFCURVE",
"206 700 OFFCURVE",
"206 665 CURVE SMOOTH",
"206 628 OFFCURVE",
"177 605 OFFCURVE",
"146 605 CURVE SMOOTH",
"115 605 OFFCURVE",
"86 628 OFFCURVE",
"86 665 CURVE SMOOTH",
"86 700 OFFCURVE",
"114 724 OFFCURVE",
"146 724 CURVE SMOOTH"
);
}
);
width = 292;
},
{
layerId = "7C863538-AAB4-42AD-A9FE-7240E615272A";
paths = (
{
closed = 1;
nodes = (
"146 576 LINE",
"211 576 OFFCURVE",
"250 616 OFFCURVE",
"250 665 CURVE SMOOTH",
"250 714 OFFCURVE",
"211 755 OFFCURVE",
"146 755 CURVE SMOOTH",
"82 755 OFFCURVE",
"42 714 OFFCURVE",
"42 665 CURVE SMOOTH",
"42 616 OFFCURVE",
"82 576 OFFCURVE",
"146 576 CURVE SMOOTH"
);
},
{
closed = 1;
nodes = (
"146 706 LINE",
"171 706 OFFCURVE",
"190 689 OFFCURVE",
"190 665 CURVE SMOOTH",
"190 640 OFFCURVE",
"171 624 OFFCURVE",
"146 624 CURVE SMOOTH",
"121 624 OFFCURVE",
"102 640 OFFCURVE",
"102 665 CURVE SMOOTH",
"102 689 OFFCURVE",
"121 706 OFFCURVE",
"146 706 CURVE SMOOTH"
);
}
);
width = 292;
}
);
unicode = 02DA;
},
{
glyphname = s;
lastChange = "2016-08-23 09:36:32 +0000";
layers = (
{
layerId = UUID0;
paths = (
{
closed = 1;
nodes = (
"208 -10 LINE",
"358 -10 OFFCURVE",
"395 71 OFFCURVE",
"395 136 CURVE SMOOTH",
"395 238 OFFCURVE",
"303 268 OFFCURVE",
"255 282 CURVE SMOOTH",
"178 305 OFFCURVE",
"141 317 OFFCURVE",
"141 363 CURVE SMOOTH",
"141 409 OFFCURVE",
"180 429 OFFCURVE",
"236 429 CURVE SMOOTH",
"291 429 OFFCURVE",
"327 410 OFFCURVE",
"356 386 CURVE",
"367 468 LINE",
"337 483 OFFCURVE",
"299 500 OFFCURVE",
"234 500 CURVE SMOOTH",
"100 500 OFFCURVE",
"50 428 OFFCURVE",
"50 353 CURVE SMOOTH",
"50 254 OFFCURVE",
"137 230 OFFCURVE",
"204 212 CURVE SMOOTH",
"244 201 OFFCURVE",
"302 182 OFFCURVE",
"302 131 CURVE SMOOTH",
"302 92 OFFCURVE",
"267 70 OFFCURVE",
"204 70 CURVE SMOOTH",
"129 70 OFFCURVE",
"72 101 OFFCURVE",
"51 120 CURVE",
"40 33 LINE",
"63 17 OFFCURVE",
"121 -10 OFFCURVE",
"208 -10 CURVE SMOOTH"
);
}
);
width = 414;
},
{
layerId = "7C863538-AAB4-42AD-A9FE-7240E615272A";
paths = (
{
closed = 1;
nodes = (
"205 -10 LINE",
"376 -10 OFFCURVE",
"401 76 OFFCURVE",
"401 137 CURVE SMOOTH",
"401 240 OFFCURVE",
"331 271 OFFCURVE",
"264 290 CURVE SMOOTH",
"201 308 OFFCURVE",
"150 316 OFFCURVE",
"150 364 CURVE SMOOTH",
"150 404 OFFCURVE",
"190 419 OFFCURVE",
"233 419 CURVE SMOOTH",
"287 419 OFFCURVE",
"345 390 OFFCURVE",
"370 365 CURVE",
"381 471 LINE",
"354 489 OFFCURVE",
"289 508 OFFCURVE",
"224 508 CURVE SMOOTH",
"83 508 OFFCURVE",
"41 419 OFFCURVE",
"41 349 CURVE SMOOTH",
"41 253 OFFCURVE",
"115 230 OFFCURVE",
"185 209 CURVE SMOOTH",
"234 194 OFFCURVE",
"277 180 OFFCURVE",
"277 138 CURVE SMOOTH",
"277 113 OFFCURVE",
"261 83 OFFCURVE",
"201 83 CURVE SMOOTH",
"145 83 OFFCURVE",
"78 109 OFFCURVE",
"47 133 CURVE",
"36 27 LINE",
"65 8 OFFCURVE",
"127 -10 OFFCURVE",
"205 -10 CURVE SMOOTH"
);
}
);
width = 425;
}
);
leftKerningGroup = s;
rightKerningGroup = s;
unicode = 0073;
},
{
glyphname = section;
lastChange = "2016-08-23 09:36:32 +0000";
layers = (
{
layerId = UUID0;
paths = (
{
closed = 1;
nodes = (
"315 188 LINE",
"399 223 OFFCURVE",
"419 286 OFFCURVE",
"419 331 CURVE SMOOTH",
"419 536 OFFCURVE",
"154 479 OFFCURVE",
"154 604 CURVE SMOOTH",
"154 651 OFFCURVE",
"191 690 OFFCURVE",
"251 690 CURVE SMOOTH",
"296 690 OFFCURVE",
"344 670 OFFCURVE",
"381 647 CURVE",
"394 710 LINE",
"365 729 OFFCURVE",
"310 750 OFFCURVE",
"247 750 CURVE SMOOTH",
"124 750 OFFCURVE",
"82 670 OFFCURVE",
"82 587 CURVE SMOOTH",
"82 555 OFFCURVE",
"88 521 OFFCURVE",
"146 479 CURVE",
"53 451 OFFCURVE",
"37 381 OFFCURVE",
"37 330 CURVE SMOOTH",
"37 118 OFFCURVE",
"310 203 OFFCURVE",
"310 60 CURVE SMOOTH",
"310 3 OFFCURVE",
"267 -23 OFFCURVE",
"207 -23 CURVE SMOOTH",
"160 -23 OFFCURVE",
"114 -5 OFFCURVE",
"76 18 CURVE",
"63 -45 LINE",
"89 -67 OFFCURVE",
"148 -84 OFFCURVE",
"206 -84 CURVE SMOOTH",
"333 -84 OFFCURVE",
"374 -1 OFFCURVE",
"374 69 CURVE SMOOTH",
"374 114 OFFCURVE",
"373 143 OFFCURVE",
"315 188 CURVE"
);
},
{
closed = 1;
nodes = (
"204 438 LINE",
"247 428 OFFCURVE",
"345 402 OFFCURVE",
"345 324 CURVE SMOOTH",
"345 275 OFFCURVE",
"315 232 OFFCURVE",
"267 219 CURVE",
"178 242 OFFCURVE",
"105 277 OFFCURVE",
"105 342 CURVE SMOOTH",
"105 418 OFFCURVE",
"180 437 OFFCURVE",
"204 438 CURVE"
);
}
);
width = 456;
},
{
layerId = "7C863538-AAB4-42AD-A9FE-7240E615272A";
paths = (
{
closed = 1;
nodes = (
"333 186 LINE",
"406 216 OFFCURVE",
"419 284 OFFCURVE",
"419 333 CURVE SMOOTH",
"419 534 OFFCURVE",
"166 485 OFFCURVE",
"166 596 CURVE SMOOTH",
"166 643 OFFCURVE",
"211 654 OFFCURVE",
"256 654 CURVE SMOOTH",
"295 654 OFFCURVE",
"348 631 OFFCURVE",
"385 604 CURVE",
"394 709 LINE",
"372 729 OFFCURVE",
"306 750 OFFCURVE",
"251 750 CURVE SMOOTH",
"117 750 OFFCURVE",
"79 658 OFFCURVE",
"79 583 CURVE SMOOTH",
"79 534 OFFCURVE",
"93 502 OFFCURVE",
"122 479 CURVE",
"49 448 OFFCURVE",
"37 380 OFFCURVE",
"37 332 CURVE SMOOTH",
"37 131 OFFCURVE",
"290 180 OFFCURVE",
"290 69 CURVE SMOOTH",
"290 22 OFFCURVE",
"245 11 OFFCURVE",
"200 11 CURVE SMOOTH",
"161 11 OFFCURVE",
"108 34 OFFCURVE",
"71 61 CURVE",
"62 -44 LINE",
"84 -64 OFFCURVE",
"150 -85 OFFCURVE",
"205 -85 CURVE SMOOTH",
"339 -85 OFFCURVE",
"376 7 OFFCURVE",
"376 82 CURVE SMOOTH",
"376 130 OFFCURVE",
"362 162 OFFCURVE",
"333 186 CURVE"
);
},
{
closed = 1;
nodes = (
"195 408 LINE",
"247 395 OFFCURVE",
"326 376 OFFCURVE",
"326 311 CURVE SMOOTH",
"326 281 OFFCURVE",
"286 247 OFFCURVE",
"263 247 CURVE",
"211 260 OFFCURVE",
"132 289 OFFCURVE",
"132 354 CURVE SMOOTH",
"132 384 OFFCURVE",
"172 408 OFFCURVE",
"195 408 CURVE"
);
}
);
width = 456;
}
);
unicode = 00A7;
},
{
glyphname = semicolon;
lastChange = "2016-08-23 09:36:32 +0000";
layers = (
{
layerId = UUID0;
paths = (
{
closed = 1;
nodes = (
"169 354 LINE",
"169 440 LINE",
"69 440 LINE",
"69 354 LINE"
);
},
{
closed = 1;
nodes = (
"169 -1 LINE",
"169 86 LINE",
"69 86 LINE",
"69 0 LINE",
"103 -9 LINE",
"68 -96 LINE",
"91 -109 LINE"
);
}
);
width = 262;
},
{
layerId = "7C863538-AAB4-42AD-A9FE-7240E615272A";
paths = (
{
closed = 1;
nodes = (
"193 310 LINE",
"193 440 LINE",
"56 440 LINE",
"56 310 LINE"
);
},
{
closed = 1;
nodes = (
"180 0 LINE",
"180 130 LINE",
"56 130 LINE",
"56 0 LINE",
"89 -10 LINE",
"56 -96 LINE",
"82 -110 LINE"
);
}
);
width = 262;
}
);
unicode = 003B;
},
{
glyphname = seven;
lastChange = "2016-08-23 09:36:32 +0000";
layers = (
{
layerId = UUID0;
paths = (
{
closed = 1;
nodes = (
"496 700 LINE",
"43 700 LINE",
"43 614 LINE",
"358 614 LINE",
"93 0 LINE",
"193 0 LINE"
);
}
);
width = 510;
},
{
layerId = "7C863538-AAB4-42AD-A9FE-7240E615272A";
paths = (
{
closed = 1;
nodes = (
"503 700 LINE",
"43 700 LINE",
"43 576 LINE",
"317 576 LINE",
"77 0 LINE",
"211 0 LINE"
);
}
);
width = 510;
}
);
unicode = 0037;
},
{
glyphname = seveninferior;
lastChange = "2016-08-23 09:36:32 +0000";
layers = (
{
layerId = UUID0;
paths = (
{
closed = 1;
nodes = (
"322 378 LINE",
"55 378 LINE",
"55 308 LINE",
"214 308 LINE",
"75 0 LINE",
"152 0 LINE"
);
}
);
width = 356;
},
{
layerId = "7C863538-AAB4-42AD-A9FE-7240E615272A";
paths = (
{
closed = 1;
nodes = (
"327 378 LINE",
"55 378 LINE",
"55 279 LINE",
"182 279 LINE",
"62 0 LINE",
"167 0 LINE"
);
}
);
width = 356;
}
);
unicode = 2087;
},
{
glyphname = sevensuperior;
lastChange = "2016-08-23 09:36:32 +0000";
layers = (
{
layerId = UUID0;
paths = (
{
closed = 1;
nodes = (
"322 698 LINE",
"55 698 LINE",
"55 628 LINE",
"214 628 LINE",
"75 320 LINE",
"152 320 LINE"
);
}
);
width = 356;
},
{
layerId = "7C863538-AAB4-42AD-A9FE-7240E615272A";
paths = (
{
closed = 1;
nodes = (
"327 698 LINE",
"55 698 LINE",
"55 599 LINE",
"182 599 LINE",
"62 320 LINE",
"167 320 LINE"
);
}
);
width = 356;
}
);
unicode = 2077;
},
